<svg width="12" height="7" viewBox="0 0 12 7" fill="none" xmlns="http://www.w3.org/2000/svg">
<path fill-rule="evenodd" clip-rule="evenodd" d="M6.54493 6.69708C6.34606 6.89128 6.07913 7 5.80117 7C5.52322 7 5.25628 6.89128 5.05742 6.69708L0.311027 2.0614C0.113249 1.86323 0.00150156 1.59513 -1.09471e-05 1.31515C-0.0015225 1.03518 0.107322 0.765885 0.302949 0.565593C0.498575 0.3653 0.765232 0.250137 1.04516 0.24505C1.32509 0.239962 1.59576 0.345358 1.79853 0.538411L5.80117 4.44737L9.80382 0.538411C9.90338 0.438653 10.0218 0.35966 10.1521 0.306012C10.2824 0.252364 10.4221 0.22513 10.563 0.225891C10.704 0.226652 10.8434 0.255392 10.9731 0.310445C11.1029 0.365498 11.2204 0.445766 11.3189 0.546594C11.4173 0.647422 11.4948 0.766801 11.5468 0.897806C11.5988 1.02881 11.6242 1.16883 11.6217 1.30975C11.6191 1.45067 11.5886 1.58967 11.5319 1.7187C11.4752 1.84773 11.3934 1.96422 11.2913 2.0614L6.54493 6.69708Z" fill="currentColor"/>
</svg>
