<svg width="12" height="20" viewBox="0 0 12 20" fill="none" xmlns="http://www.w3.org/2000/svg">
<path d="M0.351563 12.8663C0.576737 12.6319 0.882098 12.5003 1.20049 12.5003C1.51889 12.5003 1.82425 12.6319 2.04942 12.8663L4.80275 15.7325L4.80274 1.25002C4.80274 0.918505 4.92925 0.600561 5.15444 0.36614C5.37962 0.131719 5.68504 2.4547e-05 6.0035 2.45331e-05C6.32195 2.45192e-05 6.62737 0.131719 6.85256 0.36614C7.07774 0.600561 7.20425 0.918504 7.20425 1.25002L7.20425 15.7325L9.95757 12.8663C10.184 12.6386 10.4873 12.5126 10.8022 12.5154C11.117 12.5183 11.4182 12.6497 11.6408 12.8815C11.8634 13.1133 11.9897 13.4268 11.9925 13.7545C11.9952 14.0823 11.8742 14.398 11.6554 14.6338L6.85243 19.6338C6.62725 19.8681 6.32189 19.9998 6.0035 19.9998C5.6851 19.9998 5.37974 19.8681 5.15457 19.6338L0.351563 14.6338C0.126457 14.3994 -2.58696e-07 14.0815 -2.73184e-07 13.75C-2.87673e-07 13.4186 0.126457 13.1007 0.351563 12.8663Z" fill="currentColor"/>
</svg>
