<svg width="28" height="28" viewBox="0 0 28 28" fill="none" xmlns="http://www.w3.org/2000/svg">
<path fill-rule="evenodd" clip-rule="evenodd" d="M13.9999 5.25002C12.2709 5.25002 10.6609 5.75052 9.30641 6.61502C9.16094 6.70763 8.99865 6.77069 8.82881 6.80058C8.65897 6.83048 8.4849 6.82663 8.31655 6.78925C8.14819 6.75188 7.98885 6.68171 7.84762 6.58275C7.70638 6.48379 7.58602 6.35799 7.49341 6.21252C7.40079 6.06704 7.33774 5.90476 7.30784 5.73492C7.27795 5.56507 7.2818 5.39101 7.31917 5.22266C7.39466 4.88265 7.60211 4.58656 7.89591 4.39952C9.6158 3.30578 11.598 2.69426 13.6351 2.6289C15.6723 2.56354 17.6896 3.04674 19.4761 4.02797C21.2625 5.00921 22.7525 6.45242 23.7902 8.20669C24.828 9.96095 25.3753 11.9618 25.3749 14C25.3749 16.9138 24.7922 19.6945 23.7369 22.232C23.603 22.5534 23.3469 22.8085 23.025 22.9411C22.703 23.0737 22.3416 23.0729 22.0202 22.939C21.6987 22.8051 21.4437 22.549 21.3111 22.2271C21.1785 21.9051 21.1793 21.5437 21.3132 21.2223C22.2389 18.9998 22.7499 16.562 22.7499 14C22.7499 11.6794 21.828 9.45378 20.1871 7.81283C18.5461 6.17189 16.3206 5.25002 13.9999 5.25002ZM6.21241 7.49352C6.35795 7.58607 6.48382 7.7064 6.58283 7.84763C6.68184 7.98886 6.75204 8.14822 6.78942 8.31659C6.82681 8.48497 6.83063 8.65907 6.80069 8.82892C6.77074 8.99878 6.70761 9.16107 6.61491 9.30652C5.7206 10.7084 5.24689 12.3372 5.24991 14C5.24991 14.3481 5.11163 14.682 4.86548 14.9281C4.61934 15.1742 4.2855 15.3125 3.93741 15.3125C3.58931 15.3125 3.25547 15.1742 3.00933 14.9281C2.76319 14.682 2.62491 14.3481 2.62491 14C2.62491 11.7565 3.27591 9.66002 4.39941 7.89602C4.49196 7.75047 4.61229 7.6246 4.75352 7.52559C4.89475 7.42658 5.05411 7.35638 5.22248 7.319C5.39086 7.28162 5.56496 7.27779 5.73481 7.30774C5.90467 7.33768 6.06696 7.40081 6.21241 7.49352ZM13.9999 10.2813C13.0136 10.2813 12.0678 10.6731 11.3704 11.3705C10.673 12.0679 10.2812 13.0137 10.2812 14C10.2812 15.6825 9.6128 17.296 8.42312 18.4857C7.23343 19.6754 5.61987 20.3438 3.93741 20.3438H3.87266C3.7003 20.3428 3.52981 20.308 3.37092 20.2412C3.21203 20.1744 3.06786 20.0769 2.94663 19.9544C2.8254 19.8319 2.7295 19.6867 2.66439 19.5271C2.59928 19.3675 2.56624 19.1966 2.56716 19.0243C2.56808 18.8519 2.60294 18.6814 2.66974 18.5225C2.73655 18.3636 2.834 18.2195 2.95653 18.0982C3.07906 17.977 3.22426 17.8811 3.38385 17.816C3.54344 17.7509 3.7143 17.7178 3.88666 17.7188H3.93916C4.42751 17.7188 4.91108 17.6226 5.36226 17.4357C5.81344 17.2488 6.22339 16.9749 6.56871 16.6296C6.91403 16.2843 7.18795 15.8743 7.37483 15.4231C7.56172 14.9719 7.65791 14.4884 7.65791 14C7.65791 12.3175 8.32626 10.704 9.51595 9.51431C10.7056 8.32462 12.3192 7.65627 14.0017 7.65627C15.6841 7.65627 17.2977 8.32462 18.4874 9.51431C19.677 10.704 20.3454 12.3175 20.3454 14C20.3454 14.1365 20.3437 14.2724 20.3402 14.4078C20.336 14.5801 20.298 14.75 20.2282 14.9076C20.1584 15.0653 20.0583 15.2077 19.9335 15.3266C19.8087 15.4456 19.6616 15.5388 19.5008 15.6009C19.34 15.6631 19.1685 15.6929 18.9962 15.6888C18.8238 15.6846 18.6539 15.6466 18.4963 15.5768C18.3386 15.507 18.1963 15.4069 18.0773 15.2821C17.9584 15.1573 17.8651 15.0103 17.803 14.8494C17.7409 14.6886 17.711 14.5171 17.7152 14.3448C17.7187 14.2304 17.7204 14.1155 17.7204 14C17.7204 13.5115 17.6242 13.0278 17.4372 12.5765C17.2502 12.1252 16.9761 11.7152 16.6306 11.3698C16.2851 11.0245 15.8749 10.7506 15.4235 10.5638C14.9722 10.3771 14.4884 10.281 13.9999 10.2813ZM13.9912 12.6875C14.3393 12.6875 14.6731 12.8258 14.9192 13.0719C15.1654 13.3181 15.3037 13.6519 15.3037 14C15.3045 16.3561 14.5737 18.6542 13.2123 20.5771C11.8509 22.5 9.92594 23.9527 7.70341 24.7345C7.5407 24.7917 7.36831 24.8164 7.19609 24.807C7.02387 24.7976 6.85519 24.7543 6.69967 24.6797C6.54416 24.6052 6.40486 24.5007 6.28973 24.3722C6.17459 24.2438 6.08588 24.094 6.02866 23.9313C5.97143 23.7686 5.94682 23.5962 5.95622 23.424C5.96561 23.2517 6.00884 23.083 6.08343 22.9275C6.15802 22.772 6.26251 22.6327 6.39093 22.5176C6.51936 22.4025 6.6692 22.3137 6.83191 22.2565C8.5415 21.6552 10.0222 20.5379 11.0695 19.0589C12.1168 17.58 12.6791 15.8123 12.6787 14C12.6787 13.6519 12.8169 13.3181 13.0631 13.0719C13.3092 12.8258 13.6431 12.6875 13.9912 12.6875ZM18.6304 17.71C18.7934 17.7665 18.9437 17.8545 19.0726 17.969C19.2016 18.0836 19.3067 18.2225 19.382 18.3777C19.4572 18.5329 19.5011 18.7014 19.5112 18.8736C19.5213 19.0458 19.4973 19.2183 19.4407 19.3813C18.4213 22.3066 16.5966 24.8847 14.1767 26.8188C13.9037 27.022 13.5625 27.1112 13.225 27.0677C12.8875 27.0241 12.5802 26.8512 12.3677 26.5854C12.1552 26.3196 12.0543 25.9817 12.0862 25.6429C12.1181 25.3041 12.2803 24.991 12.5387 24.7695C14.5713 23.1447 16.1042 20.9792 16.9609 18.522C17.0749 18.1932 17.3148 17.9232 17.6279 17.7712C17.941 17.6193 18.3016 17.5979 18.6304 17.7118" fill="currentColor"/>
</svg>
