<svg width="29" height="28" viewBox="0 0 29 28" fill="none" xmlns="http://www.w3.org/2000/svg">
<path d="M7.27778 1H4.38889C3.62271 1 2.88791 1.30436 2.34614 1.84614C1.80436 2.38791 1.5 3.12271 1.5 3.88889V6.77778M21.7222 1H24.6111C25.3773 1 26.1121 1.30436 26.6539 1.84614C27.1956 2.38791 27.5 3.12271 27.5 3.88889V6.77778M20.2778 8.22222V11.1111M8.72222 8.22222V11.1111M10.1667 19.7778C10.1667 19.7778 11.6111 21.2222 14.5 21.2222C17.3889 21.2222 18.8333 19.7778 18.8333 19.7778M14.5 8.22222V15.4444H13.0556M7.27778 27H4.38889C3.62271 27 2.88791 26.6956 2.34614 26.1539C1.80436 25.6121 1.5 24.8773 1.5 24.1111V21.2222M21.7222 27H24.6111C25.3773 27 26.1121 26.6956 26.6539 26.1539C27.1956 25.6121 27.5 24.8773 27.5 24.1111V21.2222" stroke="currentColor" stroke-width="2" stroke-linecap="round" stroke-linejoin="round"/>
</svg>
