<svg width="24" height="24" viewBox="0 0 24 24" fill="none" xmlns="http://www.w3.org/2000/svg">
<path d="M19.2857 15.4375H11.1429C10.7696 15.4375 10.4643 15.1281 10.4643 14.75V3.75C10.4643 3.37188 10.7696 3.0625 11.1429 3.0625H17.0846L19.9643 5.98008V14.75C19.9643 15.1281 19.6589 15.4375 19.2857 15.4375ZM11.1429 17.5H19.2857C20.7828 17.5 22 16.2668 22 14.75V5.98008C22 5.43438 21.7837 4.91016 21.402 4.52344L18.5266 1.60586C18.1449 1.21914 17.6275 1 17.0888 1H11.1429C9.64576 1 8.42857 2.2332 8.42857 3.75V14.75C8.42857 16.2668 9.64576 17.5 11.1429 17.5ZM5.71429 6.5C4.21719 6.5 3 7.7332 3 9.25V20.25C3 21.7668 4.21719 23 5.71429 23H13.8571C15.3542 23 16.5714 21.7668 16.5714 20.25V18.875H14.5357V20.25C14.5357 20.6281 14.2304 20.9375 13.8571 20.9375H5.71429C5.34107 20.9375 5.03571 20.6281 5.03571 20.25V9.25C5.03571 8.87187 5.34107 8.5625 5.71429 8.5625H7.07143V6.5H5.71429Z" fill="currentColor"/>
</svg>
