<svg width="14" height="14" viewBox="0 0 14 14" fill="none" xmlns="http://www.w3.org/2000/svg">
<path d="M10.8889 1.5C11.1836 1.5 11.4662 1.61589 11.6746 1.82218C11.8829 2.02847 12 2.30826 12 2.6V9.2C12 9.49174 11.8829 9.77153 11.6746 9.97782C11.4662 10.1841 11.1836 10.3 10.8889 10.3H9.77778V11.4C9.77778 11.6917 9.66071 11.9715 9.45234 12.1778C9.24397 12.3841 8.96135 12.5 8.66667 12.5H3.11111C2.81643 12.5 2.53381 12.3841 2.32544 12.1778C2.11706 11.9715 2 11.6917 2 11.4V4.8C2 4.50826 2.11706 4.22847 2.32544 4.02218C2.53381 3.81589 2.81643 3.7 3.11111 3.7H4.22222V2.6C4.22222 2.30826 4.33929 2.02847 4.54766 1.82218C4.75603 1.61589 5.03865 1.5 5.33333 1.5H10.8889ZM8.66667 4.8H3.11111V11.4H8.66667V4.8ZM10.8889 2.6H5.33333V3.7H8.66667C8.96135 3.7 9.24397 3.81589 9.45234 4.02218C9.66071 4.22847 9.77778 4.50826 9.77778 4.8V9.2H10.8889V2.6Z" fill="currentColor"/>
</svg>
