<svg width="24" height="24" viewBox="0 0 24 24" fill="none" xmlns="http://www.w3.org/2000/svg">
<path d="M18.2222 3C18.6937 3 19.1459 3.18964 19.4793 3.52721C19.8127 3.86477 20 4.32261 20 4.8V15.6C20 16.0774 19.8127 16.5352 19.4793 16.8728C19.1459 17.2104 18.6937 17.4 18.2222 17.4H16.4444V19.2C16.4444 19.6774 16.2571 20.1352 15.9237 20.4728C15.5903 20.8104 15.1382 21 14.6667 21H5.77778C5.30628 21 4.8541 20.8104 4.5207 20.4728C4.1873 20.1352 4 19.6774 4 19.2V8.4C4 7.92261 4.1873 7.46477 4.5207 7.12721C4.8541 6.78964 5.30628 6.6 5.77778 6.6H7.55556V4.8C7.55556 4.32261 7.74286 3.86477 8.07625 3.52721C8.40965 3.18964 8.86184 3 9.33333 3H18.2222ZM14.6667 8.4H5.77778V19.2H14.6667V8.4ZM10.2222 14.7C10.458 14.7 10.6841 14.7948 10.8508 14.9636C11.0175 15.1324 11.1111 15.3613 11.1111 15.6C11.1111 15.8387 11.0175 16.0676 10.8508 16.2364C10.6841 16.4052 10.458 16.5 10.2222 16.5H8.44444C8.2087 16.5 7.9826 16.4052 7.81591 16.2364C7.64921 16.0676 7.55556 15.8387 7.55556 15.6C7.55556 15.3613 7.64921 15.1324 7.81591 14.9636C7.9826 14.7948 8.2087 14.7 8.44444 14.7H10.2222ZM18.2222 4.8H9.33333V6.6H14.6667C15.1382 6.6 15.5903 6.78964 15.9237 7.12721C16.2571 7.46477 16.4444 7.92261 16.4444 8.4V15.6H18.2222V4.8ZM12 11.1C12.2266 11.1003 12.4445 11.1881 12.6092 11.3456C12.774 11.503 12.8731 11.7183 12.8864 11.9473C12.8997 12.1763 12.8261 12.4017 12.6807 12.5776C12.5352 12.7536 12.329 12.8666 12.104 12.8937L12 12.9H8.44444C8.21789 12.8997 7.99997 12.8119 7.83523 12.6544C7.67048 12.497 7.57135 12.2817 7.55807 12.0527C7.54479 11.8237 7.61838 11.5983 7.76379 11.4224C7.9092 11.2464 8.11547 11.1334 8.34044 11.1063L8.44444 11.1H12Z" fill="currentColor"/>
</svg>
