<svg width="24" height="24" viewBox="0 0 24 24" fill="none" xmlns="http://www.w3.org/2000/svg">
<path d="M12.087 8C13.2348 8 14.1739 7.1 14.1739 6C14.1739 4.9 13.2348 4 12.087 4C10.9391 4 10 4.9 10 6C10 7.1 10.9391 8 12.087 8ZM12.087 10C10.9391 10 10 10.9 10 12C10 13.1 10.9391 14 12.087 14C13.2348 14 14.1739 13.1 14.1739 12C14.1739 10.9 13.2348 10 12.087 10ZM12.087 16C10.9391 16 10 16.9 10 18C10 19.1 10.9391 20 12.087 20C13.2348 20 14.1739 19.1 14.1739 18C14.1739 16.9 13.2348 16 12.087 16Z" fill="currentColor"/>
</svg>
