<svg width="18" height="19" viewBox="0 0 18 19" fill="none" xmlns="http://www.w3.org/2000/svg">
<path fill-rule="evenodd" clip-rule="evenodd" d="M9 18.5C13.9706 18.5 18 14.4706 18 9.5C18 4.52944 13.9706 0.5 9 0.5C4.02944 0.5 0 4.52944 0 9.5C0 14.4706 4.02944 18.5 9 18.5ZM12.5355 5.96446C12.9261 6.35499 12.9261 6.98815 12.5355 7.37868L10.4142 9.50001L12.5355 11.6213C12.9261 12.0119 12.9261 12.645 12.5355 13.0356C12.145 13.4261 11.5118 13.4261 11.1213 13.0356L8.99999 10.9142L6.87868 13.0355C6.48816 13.4261 5.85499 13.4261 5.46447 13.0355C5.07394 12.645 5.07394 12.0118 5.46447 11.6213L7.58577 9.50001L5.46447 7.37871C5.07394 6.98818 5.07394 6.35502 5.46447 5.96449C5.85499 5.57397 6.48816 5.57397 6.87868 5.96449L8.99999 8.0858L11.1213 5.96446C11.5118 5.57394 12.145 5.57394 12.5355 5.96446Z" fill="currentColor"/>
</svg>
