<svg width="18" height="18" viewBox="0 0 18 18" fill="none" xmlns="http://www.w3.org/2000/svg">
<path d="M14.1429 11.5H8.57143C8.31607 11.5 8.10714 11.275 8.10714 11V3C8.10714 2.725 8.31607 2.5 8.57143 2.5H12.6368L14.6071 4.62188V11C14.6071 11.275 14.3982 11.5 14.1429 11.5ZM8.57143 13H14.1429C15.1672 13 16 12.1031 16 11V4.62188C16 4.225 15.852 3.84375 15.5908 3.5625L13.6234 1.44063C13.3623 1.15938 13.0083 1 12.6397 1H8.57143C7.5471 1 6.71429 1.89688 6.71429 3V11C6.71429 12.1031 7.5471 13 8.57143 13ZM4.85714 5C3.83281 5 3 5.89687 3 7V15C3 16.1031 3.83281 17 4.85714 17H10.4286C11.4529 17 12.2857 16.1031 12.2857 15V14H10.8929V15C10.8929 15.275 10.6839 15.5 10.4286 15.5H4.85714C4.60179 15.5 4.39286 15.275 4.39286 15V7C4.39286 6.725 4.60179 6.5 4.85714 6.5H5.78571V5H4.85714Z" fill="currentColor"/>
</svg>
