<svg width="18" height="18" viewBox="0 0 18 18" fill="none" xmlns="http://www.w3.org/2000/svg">
<path fill-rule="evenodd" clip-rule="evenodd" d="M9 18C13.9706 18 18 13.9706 18 9C18 4.02944 13.9706 0 9 0C4.02944 0 0 4.02944 0 9C0 13.9706 4.02944 18 9 18ZM13.8716 7.50166C14.2621 7.11114 14.2621 6.47797 13.8716 6.08745C13.4811 5.69692 12.8479 5.69692 12.4574 6.08745L8.66218 9.88264L6.49342 7.71388C6.1029 7.32336 5.46974 7.32336 5.07921 7.71388C4.68869 8.10441 4.68869 8.73757 5.07921 9.12809L7.95508 12.004L8.66218 12.7111L9.36929 12.004L13.8716 7.50166Z" fill="currentColor"/>
</svg>
