<svg width="22" height="22" viewBox="0 0 22 22" fill="none" xmlns="http://www.w3.org/2000/svg">
<path fill-rule="evenodd" clip-rule="evenodd" d="M1.06404 15.253C1.34638 15.253 1.61714 15.3651 1.81678 15.5648C2.01642 15.7644 2.12858 16.0352 2.12858 16.3175V19.5154C2.12858 19.7113 2.28755 19.8702 2.48342 19.8702H19.5159C19.61 19.8702 19.7003 19.8328 19.7668 19.7663C19.8334 19.6997 19.8708 19.6095 19.8708 19.5154V16.3175C19.8708 16.0352 19.9829 15.7644 20.1826 15.5648C20.3822 15.3651 20.653 15.253 20.9353 15.253C21.2176 15.253 21.4884 15.3651 21.688 15.5648C21.8877 15.7644 21.9998 16.0352 21.9998 16.3175V19.5154C21.9998 20.1742 21.7381 20.8059 21.2723 21.2718C20.8065 21.7376 20.1747 21.9993 19.5159 21.9993H2.48342C1.82465 21.9993 1.19285 21.7376 0.727032 21.2718C0.261209 20.8059 -0.000488281 20.1742 -0.000488281 19.5154V16.3175C-0.000488281 16.0352 0.111667 15.7644 0.311306 15.5648C0.510944 15.3651 0.781712 15.253 1.06404 15.253Z" fill="currentColor"/>
<path fill-rule="evenodd" clip-rule="evenodd" d="M11.2665 13.6059C10.9842 13.6059 10.7134 13.4937 10.5138 13.2941C10.3141 13.0945 10.202 12.8237 10.202 12.5414L10.202 1.06429C10.202 0.781956 10.3141 0.511187 10.5138 0.311549C10.7134 0.111911 10.9842 -0.000245212 11.2665 -0.000245187C11.5489 -0.000245163 11.8196 0.111911 12.0193 0.311549C12.2189 0.511188 12.3311 0.781956 12.3311 1.06429L12.3311 12.5399C12.3311 12.8223 12.2189 13.093 12.0193 13.2927C11.8196 13.4923 11.5489 13.6059 11.2665 13.6059Z" fill="currentColor"/>
<path fill-rule="evenodd" clip-rule="evenodd" d="M12.0105 15.1899C11.8116 15.3841 11.5447 15.4929 11.2668 15.4929C10.9888 15.4929 10.7219 15.3841 10.523 15.1899L5.7766 10.5543C5.57883 10.3561 5.46708 10.088 5.46557 9.80801C5.46405 9.52804 5.5729 9.25874 5.76852 9.05845C5.96415 8.85816 6.23081 8.743 6.51074 8.73791C6.79067 8.73282 7.06133 8.83822 7.26411 9.03127L11.2668 12.9402L15.2694 9.03127C15.369 8.93151 15.4873 8.85252 15.6177 8.79887C15.748 8.74522 15.8877 8.71799 16.0286 8.71875C16.1696 8.71951 16.3089 8.74825 16.4387 8.8033C16.5684 8.85836 16.686 8.93863 16.7844 9.03945C16.8829 9.14028 16.9604 9.25966 17.0124 9.39067C17.0643 9.52167 17.0898 9.66169 17.0872 9.80261C17.0847 9.94353 17.0541 10.0825 16.9974 10.2116C16.9407 10.3406 16.859 10.4571 16.7569 10.5543L12.0105 15.1899Z" fill="currentColor"/>
</svg>
