<svg width="19" height="19" viewBox="0 0 19 19" fill="none" xmlns="http://www.w3.org/2000/svg">
<path fill-rule="evenodd" clip-rule="evenodd" d="M9.5 18.5C14.4706 18.5 18.5 14.4706 18.5 9.5C18.5 4.52944 14.4706 0.5 9.5 0.5C4.52944 0.5 0.5 4.52944 0.5 9.5C0.5 14.4706 4.52944 18.5 9.5 18.5ZM13.0355 5.96446C13.4261 6.35499 13.4261 6.98815 13.0355 7.37868L10.9142 9.50001L13.0355 11.6213C13.4261 12.0119 13.4261 12.645 13.0355 13.0356C12.645 13.4261 12.0118 13.4261 11.6213 13.0356L9.49999 10.9142L7.37868 13.0355C6.98816 13.4261 6.35499 13.4261 5.96447 13.0355C5.57394 12.645 5.57394 12.0118 5.96447 11.6213L8.08577 9.50001L5.96447 7.37871C5.57394 6.98818 5.57394 6.35502 5.96447 5.96449C6.35499 5.57397 6.98816 5.57397 7.37868 5.96449L9.49999 8.0858L11.6213 5.96446C12.0118 5.57394 12.645 5.57394 13.0355 5.96446Z" fill="currentColor"/>
</svg>
