<svg width="22" height="22" viewBox="0 0 22 22" fill="none" xmlns="http://www.w3.org/2000/svg">
<path d="M21.3881 5.06603C20.4345 4.58522 19.4771 4.11067 18.5216 3.63298C18.4397 3.59171 18.3596 3.54607 18.2495 3.4873C18.2495 3.4873 18.2501 3.4873 18.2501 3.48667L17.1088 2.9152C16.7909 2.75577 16.3717 2.54631 15.8917 2.30622C15.9036 2.30997 15.9155 2.31309 15.928 2.31622C15.9236 2.31435 15.9199 2.31184 15.9155 2.30934C15.8773 2.29934 15.8398 2.28558 15.8085 2.27058C14.4063 1.57281 13.0034 0.875039 11.6093 0.160387C11.1976 -0.0509447 10.824 -0.0546962 10.4104 0.156636C9.00879 0.874413 7.59842 1.57468 6.18804 2.27496C6.15988 2.28871 6.12672 2.30059 6.09168 2.30934C5.61425 2.54819 5.19752 2.75639 4.88091 2.9152L3.75273 3.48042C3.75586 3.48167 3.75899 3.48292 3.76211 3.4848C3.66951 3.53482 3.60255 3.57233 3.53435 3.60672C2.57136 4.08816 1.60963 4.57084 0.645392 5.04915C0.341917 5.19921 0.122914 5.41617 0.044699 5.75255C-0.0685567 6.23899 0.141686 6.67103 0.618486 6.91237C1.28926 7.25188 1.96254 7.58764 2.63456 7.92402L4.43289 7.02304C4.55991 6.95927 4.70383 6.88736 4.86088 6.80858C4.86401 6.81046 4.86776 6.81171 4.87089 6.81359C4.87465 6.81234 4.8784 6.81108 4.88216 6.80983C4.88654 6.81171 4.89029 6.81421 4.89467 6.81609C6.40642 6.05954 8.48694 5.01852 9.9017 4.30949C9.9017 4.30449 10.2315 4.13693 10.5343 3.98437C10.849 3.8787 11.1932 3.84681 11.5129 3.98061C13.0503 4.75404 15.5201 6.00327 17.1288 6.80858C17.2858 6.88736 17.4298 6.95927 17.5568 7.02304L19.3632 7.92777C20.0321 7.59264 20.7004 7.25813 21.3699 6.92613C21.6734 6.77607 21.8918 6.55911 21.9694 6.22148C22.0814 5.73879 21.8693 5.30863 21.3881 5.06603Z" fill="currentColor"/>
<path d="M21.9724 15.7677C21.9724 15.767 21.9718 15.7664 21.9718 15.7658C21.9674 15.7464 21.9624 15.727 21.9561 15.7076C21.9499 15.687 21.9436 15.667 21.9361 15.6476C21.9361 15.6476 21.9361 15.647 21.9355 15.647C21.8391 15.3863 21.6326 15.1931 21.3473 15.0586C21.3354 15.053 21.3241 15.0474 21.3129 15.0418C20.669 14.716 20.0233 14.394 19.3781 14.0714L19.3756 14.0726L17.5798 14.9724C17.4528 15.0361 17.3089 15.108 17.1518 15.1868C17.1487 15.1849 17.1449 15.1837 17.1418 15.1818C17.1406 15.1812 17.1387 15.1806 17.1374 15.1793C17.1349 15.1812 17.1324 15.1831 17.1293 15.1849C17.1255 15.1831 17.1218 15.1812 17.118 15.1793C15.6063 15.9358 13.5258 16.9769 12.111 17.6859C12.111 17.6909 11.7812 17.8585 11.4784 18.011C11.1637 18.1167 10.8195 18.1486 10.4998 18.0148C8.96299 17.2414 6.49389 15.9927 4.88516 15.1874C4.88579 15.1868 4.88704 15.1868 4.88766 15.1862C4.88766 15.1856 4.88704 15.1856 4.88704 15.1849C4.88579 15.1856 4.88516 15.1862 4.88391 15.1862C4.72685 15.1074 4.58294 15.0355 4.45591 14.9717L2.65321 14.0689C2.65321 14.0689 2.65321 14.0689 2.65258 14.0689L2.65008 14.0676C1.98118 14.4028 1.31291 14.7373 0.64339 15.0693C0.356809 15.2112 0.147818 15.4138 0.0595911 15.7201C0.0545853 15.7364 0.0489538 15.7514 0.0451995 15.7683C0.0445738 15.7695 0.0445738 15.7714 0.0445738 15.7727C0.0445738 15.7733 0.0445738 15.7733 0.043948 15.7739C0.0426966 15.7789 0.0420709 15.7845 0.0408194 15.7895C-0.0161213 16.0465 0.017042 16.281 0.135303 16.4842C0.229162 16.6493 0.376206 16.7918 0.572683 16.9012C0.607098 16.9212 0.642764 16.9412 0.680307 16.96C1.66144 17.4508 2.64195 17.9416 3.62308 18.4324C3.66563 18.4556 3.7113 18.4806 3.76387 18.5087C3.76387 18.5087 3.76324 18.5087 3.76324 18.5093L4.90456 19.0808C5.22242 19.2403 5.64166 19.4497 6.12159 19.6898C6.1097 19.6861 6.09781 19.6829 6.08529 19.6798C6.08967 19.6817 6.09343 19.6842 6.09781 19.6867C6.13598 19.6967 6.17352 19.7104 6.20481 19.7254C6.24861 19.7473 6.29241 19.7692 6.33621 19.7911C7.46126 20.3544 8.5863 20.9184 9.71135 21.483C9.94224 21.6005 10.1738 21.7175 10.404 21.8356C10.5117 21.8913 10.6168 21.9319 10.7213 21.9582C10.959 22.0232 11.1906 22.0107 11.4302 21.915C11.4872 21.8938 11.5447 21.8688 11.6035 21.8388C12.0153 21.6281 12.4276 21.4192 12.8406 21.211C13.1109 21.0766 13.3818 20.9428 13.6515 20.8071C14.1859 20.5395 14.7196 20.2719 15.254 20.0049C15.4448 19.9099 15.6351 19.8155 15.8259 19.7204C15.8541 19.7067 15.8872 19.6948 15.9223 19.686C16.3997 19.4472 16.8164 19.239 17.133 19.0802L18.2612 18.515C18.2581 18.5137 18.255 18.5125 18.2518 18.5106C18.3144 18.4768 18.3651 18.4487 18.4126 18.4237C19.3293 17.9648 20.2466 17.5058 21.1639 17.0482C21.2321 17.0144 21.3004 16.98 21.3686 16.9462C21.5312 16.8656 21.6689 16.7649 21.7746 16.6374C21.9067 16.4823 21.9855 16.2935 21.9968 16.0634C21.9968 16.0621 21.9968 16.0609 21.9968 16.0596C21.9974 16.0415 21.9987 16.024 21.9987 16.0059C21.9987 16.004 21.9987 16.0028 21.9987 16.0009C21.9987 15.9208 21.9899 15.8427 21.9724 15.7677Z" fill="currentColor"/>
<path d="M15.9387 14.6804C15.933 14.6817 15.9274 14.6829 15.9218 14.6842C15.9199 14.6854 15.9174 14.686 15.9155 14.6873C15.923 14.6848 15.9312 14.6823 15.9387 14.6804Z" fill="currentColor"/>
<path d="M10.9863 16.9601C10.8349 16.9601 10.6835 16.9257 10.5439 16.8569L6.70012 14.965C6.20393 14.7205 5.99994 14.1209 6.2446 13.6257C6.48926 13.1305 7.08932 12.926 7.5849 13.1705L10.9844 14.8437L16.7248 11.9944H12.8635C12.3103 11.9944 11.8623 11.5468 11.8623 10.994C11.8623 10.4413 12.3103 9.99365 12.8635 9.99365H20.9904C21.4553 9.99365 21.8589 10.3132 21.9652 10.7652C22.0716 11.2173 21.852 11.6831 21.4359 11.89L11.4318 16.8557C11.291 16.9251 11.1384 16.9601 10.9863 16.9601Z" fill="currentColor"/>
<path d="M9.129 12.0063H1.0015C0.536587 12.0063 0.132996 11.6868 0.0266234 11.2348C-0.0797493 10.7827 0.139879 10.3169 0.555984 10.11L10.56 5.14429C10.8397 5.00549 11.1676 5.00486 11.4479 5.14304L15.2917 7.03502C15.7879 7.27949 15.9919 7.8791 15.7473 8.37429C15.5026 8.87011 14.9025 9.07393 14.407 8.82947L11.0074 7.15632L5.26705 10.0055H9.12838C9.68151 10.0055 10.1295 10.4532 10.1295 11.0059C10.1295 11.5586 9.68151 12.0063 9.129 12.0063Z" fill="currentColor"/>
</svg>
