<svg width="22" height="22" viewBox="0 0 22 22" fill="none" xmlns="http://www.w3.org/2000/svg">
<path d="M0.617616 6.92855C1.52667 7.37815 2.43322 7.83275 3.34103 8.28609C3.47 8.34988 3.59772 8.41678 3.75424 8.49682C3.75236 8.49807 3.74985 8.49932 3.74797 8.49995L4.89431 9.07398C5.21236 9.23343 5.63182 9.44291 6.11202 9.68303C6.11265 9.68366 6.11327 9.68365 6.1139 9.68365C6.14019 9.69241 6.16461 9.70304 6.18652 9.71367C7.50441 10.3696 8.82354 11.0212 10.1327 11.694C10.204 11.7303 10.2754 11.7672 10.3468 11.8041C10.385 11.8241 10.4232 11.8422 10.4607 11.8585C10.7875 12.001 11.0924 12.0173 11.4142 11.9079C11.4148 11.9079 11.4161 11.9072 11.4167 11.9066C11.4944 11.8804 11.5732 11.846 11.654 11.8047C13.0332 11.0943 14.4244 10.4065 15.8143 9.71805C15.8462 9.70241 15.885 9.68928 15.9251 9.68115C15.9276 9.6799 15.9301 9.67865 15.9326 9.6774C15.9257 9.67928 15.9182 9.68115 15.9113 9.68303C16.3915 9.44291 16.811 9.23343 17.129 9.07398L18.2678 8.5037C18.2622 8.50058 18.2559 8.49682 18.2497 8.4937C19.1043 8.06724 19.9363 7.65016 20.7646 7.23746C20.9706 7.13491 21.1766 7.03236 21.3825 6.93043C21.7676 6.73971 21.9942 6.43769 21.9973 6.00873C22.0005 5.58039 21.7807 5.27212 21.3957 5.08015C18.095 3.42871 14.7944 1.77603 11.4937 0.123343C11.1638 -0.0417374 10.8364 -0.0411121 10.5052 0.125219C7.20577 1.7779 3.90637 3.43059 0.606346 5.08077C0.22006 5.27399 0.000934914 5.57914 0.0034392 6.00748C0.00531742 6.43706 0.231955 6.73846 0.617616 6.92855Z" fill="currentColor"/>
<path d="M0.61242 11.9255C1.56655 12.4064 2.52444 12.881 3.48045 13.3587C3.56247 13.4 3.64261 13.4456 3.7528 13.5044C3.7528 13.5044 3.75217 13.5044 3.75217 13.505L4.89412 14.0766C5.21217 14.236 5.63164 14.4455 6.11183 14.6856C6.09994 14.6819 6.08804 14.6787 6.07552 14.6756C6.0799 14.6775 6.08366 14.68 6.08804 14.6825C6.12623 14.6925 6.1638 14.7062 6.1951 14.7212C7.59813 15.4191 9.00178 16.1169 10.3967 16.8317C10.8086 17.043 11.1824 17.0468 11.5962 16.8354C12.9986 16.1176 14.4098 15.4172 15.821 14.7169C15.8491 14.7031 15.8823 14.6912 15.9174 14.6825C16.3951 14.4436 16.812 14.2354 17.1288 14.0766L18.2576 13.5113C18.2545 13.51 18.2514 13.5088 18.2482 13.5069C18.3409 13.4569 18.4079 13.4194 18.4761 13.385C19.4396 12.9035 20.4019 12.4207 21.3667 11.9424C21.6703 11.7923 21.8895 11.5753 21.9677 11.2389C22.081 10.7524 21.8707 10.3203 21.3936 10.079C20.7225 9.73943 20.0488 9.40364 19.3764 9.06723L17.5771 9.9683C17.45 10.0321 17.306 10.104 17.1489 10.1828C17.1457 10.1809 17.142 10.1796 17.1388 10.1778C17.1351 10.179 17.1313 10.1803 17.1276 10.1815C17.1232 10.1796 17.1194 10.1771 17.115 10.1753C15.6025 10.9319 13.5208 11.973 12.1052 12.6821C12.1052 12.6871 11.7753 12.8547 11.4723 13.0073C11.1573 13.113 10.813 13.1449 10.4931 13.011C8.95483 12.2375 6.48372 10.9882 4.87409 10.1828C4.71695 10.104 4.57295 10.0321 4.44586 9.9683L2.63839 9.06348C1.96912 9.39864 1.30047 9.73318 0.630576 10.0652C0.326932 10.2153 0.108433 10.4323 0.0307998 10.7699C-0.081267 11.2527 0.130971 11.6829 0.61242 11.9255Z" fill="currentColor"/>
<path d="M21.9716 15.7668C21.9716 15.7661 21.971 15.7655 21.971 15.7649C21.9666 15.7455 21.9616 15.7261 21.9553 15.7067C21.9491 15.6861 21.9428 15.6661 21.9353 15.6467C21.9353 15.6467 21.9353 15.6461 21.9347 15.6461C21.8382 15.3853 21.6316 15.1921 21.3462 15.0577C21.3343 15.052 21.323 15.0464 21.3117 15.0408C20.6675 14.715 20.0214 14.393 19.3759 14.0703L19.3734 14.0715L17.5766 14.9714C17.4495 15.0351 17.3055 15.1071 17.1483 15.1858C17.1452 15.184 17.1415 15.1827 17.1383 15.1808C17.1371 15.1802 17.1352 15.1796 17.1339 15.1783C17.1314 15.1802 17.1289 15.1821 17.1258 15.184C17.122 15.1821 17.1183 15.1802 17.1145 15.1783C15.6019 15.935 13.5203 16.9761 12.1047 17.6852C12.1047 17.6902 11.7748 17.8578 11.4718 18.0104C11.1568 18.116 10.8125 18.1479 10.4926 18.0141C8.95494 17.2406 6.48447 15.9919 4.87484 15.1865C4.87546 15.1858 4.87671 15.1858 4.87734 15.1852C4.87734 15.1846 4.87671 15.1846 4.87671 15.184C4.87546 15.1846 4.87484 15.1852 4.87358 15.1852C4.71644 15.1064 4.57244 15.0345 4.44535 14.9707L2.64101 14.0672C2.64101 14.0672 2.64101 14.0672 2.64039 14.0672L2.63788 14.0659C1.96861 14.4011 1.29997 14.7356 0.63007 15.0677C0.343329 15.2096 0.134221 15.4122 0.0459449 15.7186C0.0409363 15.7349 0.0353017 15.7499 0.0315452 15.7668C0.0309192 15.768 0.0309192 15.7699 0.0309192 15.7711C0.0309192 15.7718 0.0309192 15.7718 0.0302931 15.7724C0.0290409 15.7774 0.0284149 15.783 0.0271627 15.788C-0.0298098 16.045 0.003372 16.2795 0.1217 16.4827C0.21561 16.6478 0.362737 16.7904 0.559324 16.8998C0.593758 16.9198 0.629444 16.9398 0.667008 16.9586C1.64869 17.4495 2.62974 17.9403 3.61142 18.4312C3.654 18.4543 3.6997 18.4793 3.75229 18.5075C3.75229 18.5075 3.75166 18.5075 3.75166 18.5081L4.89362 19.0796C5.21166 19.2391 5.63113 19.4486 6.11133 19.6887C6.09943 19.6849 6.08754 19.6818 6.07502 19.6787C6.0794 19.6805 6.08315 19.683 6.08754 19.6855C6.12573 19.6956 6.16329 19.7093 6.1946 19.7243C6.23842 19.7462 6.28225 19.7681 6.32607 19.79C7.45175 20.3534 8.57742 20.9174 9.7031 21.4821C9.93412 21.5996 10.1658 21.7165 10.3962 21.8347C10.5038 21.8904 10.609 21.931 10.7136 21.9573C10.9515 22.0223 11.1831 22.0098 11.4229 21.9141C11.4799 21.8929 11.5375 21.8679 11.5963 21.8379C12.0083 21.6271 12.4209 21.4183 12.8341 21.21C13.1045 21.0756 13.3756 20.9418 13.6455 20.8061C14.1801 20.5385 14.7142 20.2708 15.2488 20.0038C15.4398 19.9088 15.6301 19.8144 15.8211 19.7193C15.8492 19.7056 15.8824 19.6937 15.9175 19.6849C16.3952 19.4461 16.8121 19.2378 17.1289 19.079L18.2577 18.5137C18.2546 18.5125 18.2515 18.5112 18.2484 18.5093C18.311 18.4756 18.3617 18.4474 18.4093 18.4224C19.3264 17.9635 20.2443 17.5045 21.1621 17.0468C21.2303 17.013 21.2986 16.9786 21.3668 16.9448C21.5296 16.8642 21.6673 16.7635 21.7731 16.6359C21.9052 16.4809 21.9841 16.292 21.9954 16.0619C21.9954 16.0606 21.9954 16.0594 21.9954 16.0581C21.996 16.04 21.9973 16.0225 21.9973 16.0044C21.9973 16.0025 21.9973 16.0012 21.9973 15.9994C21.9979 15.9193 21.9898 15.8412 21.9716 15.7668Z" fill="currentColor"/>
<path d="M15.9343 14.6787C15.9287 14.68 15.923 14.6812 15.9174 14.6825C15.9155 14.6837 15.913 14.6843 15.9111 14.6856C15.9186 14.6831 15.9268 14.6806 15.9343 14.6787Z" fill="currentColor"/>
</svg>
