<svg width="24" height="24" viewBox="0 0 24 24" fill="none" xmlns="http://www.w3.org/2000/svg">
<path d="M19.3333 24C18.3148 24 17.4491 23.65 16.7361 22.95C16.0231 22.25 15.6667 21.4 15.6667 20.4C15.6667 20.26 15.6769 20.1148 15.6972 19.9644C15.7176 19.814 15.7481 19.6792 15.7889 19.56L7.17222 14.64C6.82593 14.94 6.43889 15.1752 6.01111 15.3456C5.58333 15.516 5.13519 15.6008 4.66667 15.6C3.64815 15.6 2.78241 15.25 2.06944 14.55C1.35648 13.85 1 13 1 12C1 11 1.35648 10.15 2.06944 9.45C2.78241 8.75 3.64815 8.4 4.66667 8.4C5.13519 8.4 5.58333 8.4852 6.01111 8.6556C6.43889 8.826 6.82593 9.0608 7.17222 9.36L15.7889 4.44C15.7481 4.32 15.7176 4.1852 15.6972 4.0356C15.6769 3.886 15.6667 3.7408 15.6667 3.6C15.6667 2.6 16.0231 1.75 16.7361 1.05C17.4491 0.35 18.3148 0 19.3333 0C20.3519 0 21.2176 0.35 21.9306 1.05C22.6435 1.75 23 2.6 23 3.6C23 4.6 22.6435 5.45 21.9306 6.15C21.2176 6.85 20.3519 7.2 19.3333 7.2C18.8648 7.2 18.4167 7.1152 17.9889 6.9456C17.5611 6.776 17.1741 6.5408 16.8278 6.24L8.21111 11.16C8.25185 11.28 8.28241 11.4152 8.30278 11.5656C8.32315 11.716 8.33333 11.8608 8.33333 12C8.33333 12.1392 8.32315 12.2844 8.30278 12.4356C8.28241 12.5868 8.25185 12.7216 8.21111 12.84L16.8278 17.76C17.1741 17.46 17.5611 17.2252 17.9889 17.0556C18.4167 16.886 18.8648 16.8008 19.3333 16.8C20.3519 16.8 21.2176 17.15 21.9306 17.85C22.6435 18.55 23 19.4 23 20.4C23 21.4 22.6435 22.25 21.9306 22.95C21.2176 23.65 20.3519 24 19.3333 24ZM19.3333 4.8C19.6796 4.8 19.9701 4.6852 20.2048 4.4556C20.4394 4.226 20.5564 3.9408 20.5556 3.6C20.5547 3.2592 20.4374 2.9744 20.2036 2.7456C19.9697 2.5168 19.6796 2.4016 19.3333 2.4C18.987 2.3984 18.697 2.5136 18.4631 2.7456C18.2293 2.9776 18.1119 3.2624 18.1111 3.6C18.1103 3.9376 18.2276 4.2228 18.4631 4.4556C18.6986 4.6884 18.9887 4.8032 19.3333 4.8ZM4.66667 13.2C5.01296 13.2 5.30344 13.0848 5.53811 12.8544C5.77278 12.624 5.8897 12.3392 5.88889 12C5.88807 11.6608 5.77074 11.376 5.53689 11.1456C5.30304 10.9152 5.01296 10.8 4.66667 10.8C4.32037 10.8 4.0303 10.9152 3.79644 11.1456C3.56259 11.376 3.44526 11.6608 3.44444 12C3.44363 12.3392 3.56096 12.6244 3.79644 12.8556C4.03193 13.0868 4.322 13.2016 4.66667 13.2ZM19.3333 21.6C19.6796 21.6 19.9701 21.4848 20.2048 21.2544C20.4394 21.024 20.5564 20.7392 20.5556 20.4C20.5547 20.0608 20.4374 19.776 20.2036 19.5456C19.9697 19.3152 19.6796 19.2 19.3333 19.2C18.987 19.2 18.697 19.3152 18.4631 19.5456C18.2293 19.776 18.1119 20.0608 18.1111 20.4C18.1103 20.7392 18.2276 21.0244 18.4631 21.2556C18.6986 21.4868 18.9887 21.6016 19.3333 21.6Z" fill="currentColor"/>
</svg>
