<svg width="18" height="20" viewBox="0 0 18 20" fill="none" xmlns="http://www.w3.org/2000/svg">
<path d="M9.52941 20L9.26471 17H9C6.49412 17 4.36765 16.175 2.62059 14.525C0.873529 12.875 0 10.8667 0 8.5C0 6.13333 0.873529 4.125 2.62059 2.475C4.36765 0.825 6.49412 0 9 0C10.2529 0 11.4222 0.220667 12.5079 0.662C13.5935 1.10333 14.5465 1.71167 15.3667 2.487C16.1869 3.26233 16.8307 4.16233 17.298 5.187C17.7653 6.21167 17.9993 7.316 18 8.5C18 9.75 17.784 10.95 17.352 12.1C16.92 13.25 16.3285 14.3167 15.5774 15.3C14.8264 16.2833 13.9352 17.175 12.9039 17.975C11.8726 18.775 10.7478 19.45 9.52941 20ZM8.97353 13.975C9.27353 13.975 9.52941 13.875 9.74118 13.675C9.95294 13.475 10.0588 13.2333 10.0588 12.95C10.0588 12.6667 9.95294 12.425 9.74118 12.225C9.52941 12.025 9.27353 11.925 8.97353 11.925C8.67353 11.925 8.41765 12.025 8.20588 12.225C7.99412 12.425 7.88824 12.6667 7.88824 12.95C7.88824 13.2333 7.99412 13.475 8.20588 13.675C8.41765 13.875 8.67353 13.975 8.97353 13.975ZM8.20588 10.8H9.79412C9.79412 10.3 9.84706 9.95 9.95294 9.75C10.0588 9.55 10.3941 9.18333 10.9588 8.65C11.2765 8.35 11.5412 8.025 11.7529 7.675C11.9647 7.325 12.0706 6.95 12.0706 6.55C12.0706 5.7 11.7664 5.06233 11.1579 4.637C10.5494 4.21167 9.83012 3.99933 9 4C8.22353 4 7.57059 4.20433 7.04118 4.613C6.51176 5.02167 6.14118 5.51733 5.92941 6.1L7.41177 6.65C7.5 6.36667 7.66765 6.08767 7.91471 5.813C8.16177 5.53833 8.52353 5.40067 9 5.4C9.47647 5.39933 9.834 5.52433 10.0726 5.775C10.3112 6.02567 10.4301 6.30067 10.4294 6.6C10.4294 6.88333 10.3412 7.13767 10.1647 7.363C9.98824 7.58833 9.77647 7.81733 9.52941 8.05C8.91177 8.55 8.53694 8.946 8.40494 9.238C8.27294 9.53 8.20659 10.0507 8.20588 10.8Z" fill="currentColor"/>
</svg>
