<svg width="22" height="22" viewBox="0 0 22 22" fill="none" xmlns="http://www.w3.org/2000/svg">
<path fill-rule="evenodd" clip-rule="evenodd" d="M1.06404 15.253C1.34638 15.253 1.61714 15.3651 1.81678 15.5648C2.01642 15.7644 2.12858 16.0352 2.12858 16.3175V19.5154C2.12858 19.7113 2.28755 19.8702 2.48342 19.8702H19.5159C19.61 19.8702 19.7003 19.8328 19.7668 19.7663C19.8334 19.6997 19.8708 19.6095 19.8708 19.5154V16.3175C19.8708 16.0352 19.9829 15.7644 20.1826 15.5648C20.3822 15.3651 20.653 15.253 20.9353 15.253C21.2176 15.253 21.4884 15.3651 21.688 15.5648C21.8877 15.7644 21.9998 16.0352 21.9998 16.3175V19.5154C21.9998 20.1742 21.7381 20.8059 21.2723 21.2718C20.8065 21.7376 20.1747 21.9993 19.5159 21.9993H2.48342C1.82465 21.9993 1.19285 21.7376 0.727032 21.2718C0.261209 20.8059 -0.000488281 20.1742 -0.000488281 19.5154V16.3175C-0.000488281 16.0352 0.111667 15.7644 0.311306 15.5648C0.510944 15.3651 0.781712 15.253 1.06404 15.253Z" fill="currentColor"/>
<path fill-rule="evenodd" clip-rule="evenodd" d="M11.2867 1.88672C11.569 1.88672 11.8398 1.99887 12.0394 2.19851C12.2391 2.39815 12.3512 2.66892 12.3512 2.95125V14.4283C12.3512 14.7107 12.2391 14.9814 12.0394 15.1811C11.8398 15.3807 11.569 15.4929 11.2867 15.4929C11.0044 15.4929 10.7336 15.3807 10.534 15.1811C10.3343 14.9814 10.2222 14.7107 10.2222 14.4283V2.95267C10.2222 2.67034 10.3343 2.39957 10.534 2.19993C10.7336 2.00029 11.0044 1.88672 11.2867 1.88672Z" fill="currentColor"/>
<path fill-rule="evenodd" clip-rule="evenodd" d="M10.5427 0.302672C10.7416 0.108472 11.0085 -0.000244141 11.2865 -0.000244141C11.5644 -0.000244141 11.8314 0.108472 12.0302 0.302672L16.7766 4.93835C16.9744 5.13652 17.0861 5.40463 17.0877 5.6846C17.0892 5.96457 16.9803 6.23387 16.7847 6.43416C16.5891 6.63446 16.3224 6.74962 16.0425 6.75471C15.7626 6.75979 15.4919 6.6544 15.2891 6.46134L11.2865 2.55238L7.28383 6.46134C7.18427 6.5611 7.06589 6.6401 6.93556 6.69374C6.80523 6.74739 6.66554 6.77463 6.5246 6.77386C6.38367 6.7731 6.24428 6.74436 6.11454 6.68931C5.98479 6.63426 5.86727 6.55399 5.76879 6.45316C5.67032 6.35233 5.59284 6.23295 5.54086 6.10195C5.48888 5.97094 5.46344 5.83092 5.466 5.69C5.46856 5.54909 5.49908 5.41008 5.55578 5.28105C5.61249 5.15202 5.69425 5.03554 5.79632 4.93835L10.5427 0.302672Z" fill="currentColor"/>
</svg>
