<svg width="14" height="14" viewBox="0 0 14 14" fill="none" xmlns="http://www.w3.org/2000/svg">
<path fill-rule="evenodd" clip-rule="evenodd" d="M0.676941 9.70645C0.856607 9.70645 1.02891 9.77782 1.15596 9.90487C1.283 10.0319 1.35437 10.2042 1.35437 10.3839V12.4189C1.35437 12.5435 1.45553 12.6447 1.58018 12.6447H12.4191C12.4789 12.6447 12.5364 12.6209 12.5787 12.5786C12.6211 12.5362 12.6449 12.4788 12.6449 12.4189V10.3839C12.6449 10.2042 12.7162 10.0319 12.8433 9.90487C12.9703 9.77782 13.1426 9.70645 13.3223 9.70645C13.502 9.70645 13.6743 9.77782 13.8013 9.90487C13.9284 10.0319 13.9997 10.2042 13.9997 10.3839V12.4189C13.9997 12.8381 13.8332 13.2401 13.5368 13.5366C13.2403 13.833 12.8383 13.9995 12.4191 13.9995H1.58018C1.16096 13.9995 0.758912 13.833 0.462479 13.5366C0.166046 13.2401 -0.000488281 12.8381 -0.000488281 12.4189V10.3839C-0.000488281 10.2042 0.0708835 10.0319 0.197926 9.90487C0.324969 9.77782 0.497276 9.70645 0.676941 9.70645Z" fill="currentColor"/>
<path fill-rule="evenodd" clip-rule="evenodd" d="M0.67743 4.29312C0.857095 4.29312 1.0294 4.22175 1.15644 4.09471C1.28349 3.96766 1.35486 3.79536 1.35486 3.61569V1.58069C1.35486 1.45605 1.45602 1.35488 1.58067 1.35488H12.4195C12.4794 1.35488 12.5369 1.37867 12.5792 1.42102C12.6216 1.46337 12.6454 1.5208 12.6454 1.58069V3.61569C12.6454 3.79536 12.7167 3.96766 12.8438 4.09471C12.9708 4.22175 13.1431 4.29312 13.3228 4.29312C13.5024 4.29312 13.6748 4.22175 13.8018 4.09471C13.9288 3.96766 14.0002 3.79536 14.0002 3.61569V1.58069C14.0002 1.16147 13.8337 0.759424 13.5372 0.462991C13.2408 0.166558 12.8388 2.3365e-05 12.4195 2.3365e-05H1.58067C1.16145 2.3365e-05 0.7594 0.166558 0.462967 0.462991C0.166534 0.759424 0 1.16147 0 1.58069V3.61569C0 3.79536 0.0713718 3.96766 0.198414 4.09471C0.325457 4.22175 0.497764 4.29312 0.67743 4.29312Z" fill="currentColor"/>
<path fill-rule="evenodd" clip-rule="evenodd" d="M2.54541 6.95892C2.54541 6.77926 2.61678 6.60695 2.74382 6.47991C2.87087 6.35286 3.04317 6.28149 3.22284 6.28149L10.5264 6.28149C10.7061 6.28149 10.8784 6.35286 11.0055 6.47991C11.1325 6.60695 11.2039 6.77926 11.2039 6.95892C11.2039 7.13859 11.1325 7.31089 11.0055 7.43794C10.8784 7.56498 10.7061 7.63635 10.5264 7.63635L3.22374 7.63635C3.04408 7.63635 2.87177 7.56498 2.74473 7.43794C2.61769 7.31089 2.54541 7.13859 2.54541 6.95892Z" fill="currentColor"/>
</svg>
