<svg width="22" height="22" viewBox="0 0 22 22" fill="none" xmlns="http://www.w3.org/2000/svg">
<path d="M3.75067 13.5121C3.43489 13.3519 3.15787 13.2111 2.88023 13.0716C2.14047 12.7 1.40322 12.3234 0.659717 11.9605C0.250758 11.7609 -0.00312166 11.4619 0.00125558 10.9958C0.00563281 10.5403 0.258262 10.2519 0.659092 10.0548C1.61208 9.58623 2.55819 9.10325 3.5068 8.62589C3.57558 8.59148 3.64249 8.55457 3.73817 8.50389C3.64124 8.45196 3.57121 8.4113 3.49867 8.37501C2.54318 7.89453 1.58894 7.41029 0.630327 6.93606C0.23575 6.74149 0.00125558 6.44431 4.93824e-06 6.00074C-0.0012457 5.55654 0.235125 5.25874 0.626575 5.06355C3.91513 3.42064 7.20306 1.77523 10.4897 0.128571C10.8299 -0.0416006 11.162 -0.0434775 11.5009 0.126694C14.7957 1.77648 18.0911 3.42627 21.3872 5.07418C21.7711 5.26625 22 5.56718 22 5.99699C22.0006 6.43743 21.7649 6.73961 21.3716 6.93418C20.4136 7.40966 19.46 7.89265 18.5045 8.37313C18.43 8.41067 18.3563 8.45071 18.2537 8.50389C18.5551 8.65717 18.8321 8.79856 19.1098 8.93808C19.8564 9.31346 20.6005 9.69322 21.3509 10.0611C21.753 10.2582 21.9944 10.5585 21.9919 11.0127C21.9894 11.4669 21.7399 11.7603 21.3397 11.9574C20.3798 12.4304 19.4268 12.9165 18.4713 13.3976C18.4094 13.4289 18.3494 13.4633 18.2631 13.5096C18.3544 13.5596 18.4232 13.6003 18.4951 13.6359C19.4368 14.1089 20.3767 14.5856 21.3222 15.0511C21.728 15.2507 21.9919 15.5429 21.9931 16.0096C21.9944 16.4757 21.7336 16.7685 21.3278 16.9712C18.0792 18.5922 14.8326 20.2163 11.5891 21.8473C11.1845 22.0507 10.8137 22.0513 10.4078 21.8467C7.16367 20.2163 3.91763 18.5934 0.669097 16.9731C0.26389 16.771 4.93824e-06 16.4807 4.93824e-06 16.014C-0.000620381 15.5472 0.262014 15.2551 0.668472 15.0549C1.68399 14.555 2.69326 14.0426 3.75067 13.5121ZM3.24791 5.99386C3.29106 6.02201 3.30294 6.03202 3.3167 6.03891C5.83549 7.3008 8.35365 8.56332 10.8756 9.81771C10.9519 9.85588 11.0863 9.83398 11.1701 9.79269C13.0786 8.84486 14.9833 7.88952 16.8893 6.93606C17.5008 6.63013 18.113 6.32419 18.7471 6.00637C18.6695 5.9607 18.6189 5.92567 18.5645 5.89876C16.1082 4.67003 13.6507 3.44316 11.197 2.20942C11.0456 2.13309 10.9325 2.1431 10.7868 2.2163C8.83389 3.19792 6.87789 4.17327 4.92315 5.15114C4.37349 5.42704 3.82383 5.70482 3.24791 5.99386ZM3.24479 16.0083C3.3117 16.0471 3.34421 16.0678 3.37798 16.0853C5.86988 17.3334 8.36053 18.5822 10.8568 19.8216C10.945 19.8653 11.0994 19.8422 11.1957 19.7947C13.3418 18.7298 15.4835 17.6575 17.6259 16.5858C17.9942 16.4019 18.3606 16.2142 18.7583 16.0133C17.8466 15.556 16.9706 15.1131 16.0876 14.6826C16.0182 14.6488 15.8931 14.6889 15.8112 14.7295C14.3911 15.4334 12.9716 16.1372 11.5584 16.8529C11.1688 17.0506 10.8093 17.0438 10.421 16.8467C9.00773 16.1297 7.58826 15.4259 6.16816 14.7227C6.08812 14.6832 5.96305 14.6551 5.89239 14.6895C5.01632 15.1168 4.14587 15.5566 3.24479 16.0083ZM3.24354 11.0045C3.34296 11.0583 3.39049 11.0852 3.43864 11.1096C5.90302 12.3434 8.36803 13.5746 10.8299 14.8134C10.9719 14.8847 11.075 14.8572 11.1989 14.7952C13.6545 13.5634 16.1114 12.3334 18.5682 11.1021C18.6195 11.0765 18.667 11.0427 18.7421 10.9964C17.8404 10.5453 16.9712 10.1061 16.0951 9.68008C16.0251 9.64567 15.8994 9.68008 15.8181 9.72012C14.4117 10.4158 13.0048 11.1096 11.6078 11.8222C11.1863 12.0375 10.8055 12.0362 10.3847 11.8222C8.99335 11.1134 7.59138 10.4265 6.19755 9.72324C6.04747 9.64754 5.93429 9.64942 5.78734 9.72512C5.10011 10.0786 4.40663 10.4196 3.71503 10.7655C3.57246 10.8375 3.42926 10.9107 3.24354 11.0045Z" fill="currentColor"/>
</svg>
