<svg width="134" height="126" viewBox="0 0 134 126" fill="none" xmlns="http://www.w3.org/2000/svg">
<circle cx="66.4998" cy="55.5" r="55" fill="url(#paint0_linear_2001_7869)" fill-opacity="0.86" stroke="url(#paint1_linear_2001_7869)"/>
<path d="M89.9998 41L102.5 32.5" stroke="white" stroke-width="2"/>
<path d="M42.4998 41L29.9998 32.5" stroke="white" stroke-width="2"/>
<path d="M65.9998 100L65.9997 83" stroke="white" stroke-width="2"/>
<path fill-rule="evenodd" clip-rule="evenodd" d="M66.0981 28.0279L42.7387 41.6494V68.8922L66.0981 82.5137L89.4576 68.8922V41.6494L66.0981 28.0279ZM91.1965 40.6354L66.0981 26L40.9998 40.6354V69.9062L66.0981 84.5416L91.1965 69.9062V40.6354Z" fill="white"/>
<path fill-rule="evenodd" clip-rule="evenodd" d="M66.0881 44.7728C64.2941 44.7728 62.8347 43.2978 62.8347 41.4845C62.8347 39.6713 64.2941 38.1962 66.0881 38.1962C67.8821 38.1962 69.3416 39.6713 69.3416 41.4845C69.3416 43.2978 67.8821 44.7728 66.0881 44.7728ZM66.0881 39.9879C65.2715 39.9879 64.6074 40.6593 64.6074 41.4845C64.6074 42.3097 65.2715 42.9811 66.0881 42.9811C66.9046 42.9811 67.569 42.3097 67.569 41.4845C67.569 40.6593 66.9046 39.9879 66.0881 39.9879Z" fill="white"/>
<path d="M65.2499 45.3167C65.5294 45.3819 65.8205 45.4163 66.1193 45.4163C66.4182 45.4163 66.7092 45.3819 66.9888 45.3167V51.4677C66.7092 51.4025 66.4182 51.3681 66.1193 51.3681C65.8205 51.3681 65.5294 51.4025 65.2499 51.4676V45.3167Z" fill="white"/>
<path d="M63.2948 52.6099L58.0188 49.5333C57.9349 49.8104 57.8188 50.0822 57.6694 50.3436C57.52 50.605 57.345 50.8423 57.1494 51.0542L62.4235 54.1297C62.5975 53.556 62.8991 53.0381 63.2948 52.6099Z" fill="white"/>
<path d="M62.4235 56.4117L57.1494 59.4875C57.345 59.6994 57.5201 59.9368 57.6695 60.1982C57.8189 60.4596 57.9349 60.7312 58.0188 61.0084L63.2948 57.9318C62.8991 57.5035 62.5975 56.9857 62.4235 56.4117Z" fill="white"/>
<path d="M65.2499 59.0739V65.2249C65.5295 65.1596 65.8206 65.1254 66.1195 65.1254C66.4183 65.1254 66.7093 65.1596 66.9888 65.2249V59.0739C66.7092 59.1392 66.4182 59.1734 66.1193 59.1734C65.8205 59.1734 65.5294 59.1392 65.2499 59.0739Z" fill="white"/>
<path d="M68.9436 57.9318L74.2198 61.0084C74.3035 60.7312 74.4198 60.4593 74.569 60.1979C74.7186 59.9365 74.8936 59.6991 75.0892 59.4872L69.815 56.4117C69.641 56.9857 69.3393 57.5035 68.9436 57.9318Z" fill="white"/>
<path d="M69.815 54.1298L75.0892 51.0543C74.8936 50.8423 74.7186 50.605 74.569 50.3435C74.4195 50.0821 74.3035 49.8104 74.2198 49.5333L68.9436 52.6099C69.3393 53.0381 69.641 53.556 69.815 54.1298Z" fill="white"/>
<path fill-rule="evenodd" clip-rule="evenodd" d="M57.1019 50.049C56.205 51.6182 54.2105 52.1572 52.6557 51.2506C51.101 50.344 50.5658 48.3299 51.4628 46.7607C52.3598 45.1915 54.3544 44.6525 55.9092 45.5591C57.4639 46.4657 57.9989 48.4799 57.1019 50.049ZM52.9991 47.6566C52.5908 48.3708 52.8344 49.2874 53.542 49.7C54.2496 50.1127 55.1574 49.8674 55.5657 49.1532C55.9739 48.439 55.7304 47.5222 55.0228 47.1096C54.3152 46.697 53.4074 46.9424 52.9991 47.6566Z" fill="white"/>
<path fill-rule="evenodd" clip-rule="evenodd" d="M57.1333 60.5471C58.0303 62.1163 57.4952 64.1301 55.9404 65.0369C54.3857 65.9435 52.3911 65.4046 51.4941 63.8354C50.5971 62.2662 51.1322 60.252 52.6869 59.3452C54.2417 58.4387 56.2363 58.9779 57.1333 60.5471ZM53.0304 62.9394C53.4387 63.6536 54.3465 63.8989 55.0541 63.4865C55.7617 63.0737 56.0053 62.157 55.597 61.4428C55.1887 60.7286 54.2809 60.4833 53.5733 60.8957C52.8657 61.3084 52.6221 62.2252 53.0304 62.9394Z" fill="white"/>
<path fill-rule="evenodd" clip-rule="evenodd" d="M66.1503 65.7687C67.9443 65.7687 69.4037 67.244 69.4037 69.057C69.4037 70.8703 67.9443 72.3453 66.1503 72.3453C64.3563 72.3453 62.8968 70.8703 62.8968 69.057C62.8968 67.244 64.3563 65.7687 66.1503 65.7687ZM66.1503 70.5536C66.9669 70.5536 67.631 69.8825 67.631 69.057C67.631 68.2319 66.9669 67.5604 66.1503 67.5604C65.3338 67.5604 64.6694 68.2319 64.6694 69.057C64.6694 69.8825 65.3338 70.5536 66.1503 70.5536Z" fill="white"/>
<path fill-rule="evenodd" clip-rule="evenodd" d="M75.1366 60.4927C76.0336 58.9235 78.0281 58.3843 79.5829 59.2911C81.1375 60.1976 81.6727 62.2118 80.7758 63.781C79.8788 65.3502 77.884 65.889 76.3295 64.9825C74.7747 64.076 74.2397 62.0619 75.1366 60.4927ZM79.2395 62.885C79.6478 62.1708 79.4041 61.2543 78.6964 60.8416C77.989 60.4289 77.081 60.6742 76.6729 61.3884C76.2646 62.1026 76.508 63.0193 77.2157 63.4321C77.9232 63.8448 78.8311 63.5992 79.2395 62.885Z" fill="white"/>
<path fill-rule="evenodd" clip-rule="evenodd" d="M75.1052 49.9945C74.2082 48.4254 74.7432 46.4113 76.298 45.5047C77.8528 44.5981 79.8473 45.1371 80.7443 46.7062C81.6412 48.2754 81.1062 50.2896 79.5517 51.1962C77.9969 52.1029 76.0021 51.5638 75.1052 49.9945ZM79.208 47.6021C78.7999 46.8879 77.892 46.6426 77.1845 47.0552C76.4768 47.4678 76.2334 48.3845 76.6414 49.0987C77.0498 49.8129 77.9578 50.0583 78.6652 49.6457C79.3729 49.2331 79.6163 48.3163 79.208 47.6021Z" fill="white"/>
<path fill-rule="evenodd" clip-rule="evenodd" d="M66.0881 53.7452C65.2716 53.7452 64.6074 54.4166 64.6074 55.2418C64.6074 56.067 65.2716 56.7384 66.0881 56.7384C66.9047 56.7384 67.569 56.067 67.569 55.2418C67.569 54.4166 66.9047 53.7452 66.0881 53.7452ZM66.0881 58.5301C64.2941 58.5301 62.8347 57.0552 62.8347 55.2418C62.8347 53.4286 64.2941 51.9535 66.0881 51.9535C67.8821 51.9535 69.3416 53.4286 69.3416 55.2418C69.3416 57.0552 67.8821 58.5301 66.0881 58.5301Z" fill="white"/>
<path d="M95.9998 12C95.9998 7.58172 99.5815 4 104 4H126C130.418 4 134 7.58172 134 12V34C134 38.4183 130.418 42 126 42H104C99.5815 42 95.9998 38.4183 95.9998 34V12Z" fill="#D9D9D9"/>
<path d="M95.9998 12C95.9998 7.58172 99.5815 4 104 4H126C130.418 4 134 7.58172 134 12V34C134 38.4183 130.418 42 126 42H104C99.5815 42 95.9998 38.4183 95.9998 34V12Z" fill="url(#paint2_linear_2001_7869)"/>
<path d="M46.9998 96C46.9998 91.5817 50.5815 88 54.9998 88H76.9998C81.4181 88 84.9998 91.5817 84.9998 96V118C84.9998 122.418 81.4181 126 76.9998 126H54.9998C50.5815 126 46.9998 122.418 46.9998 118V96Z" fill="url(#paint3_linear_2001_7869)"/>
<path d="M-0.000183105 12C-0.000183105 7.58172 3.58154 4 7.99982 4H29.9998C34.4181 4 37.9998 7.58172 37.9998 12V34C37.9998 38.4183 34.4181 42 29.9998 42H7.99982C3.58154 42 -0.000183105 38.4183 -0.000183105 34V12Z" fill="#D9D9D9"/>
<path d="M-0.000183105 12C-0.000183105 7.58172 3.58154 4 7.99982 4H29.9998C34.4181 4 37.9998 7.58172 37.9998 12V34C37.9998 38.4183 34.4181 42 29.9998 42H7.99982C3.58154 42 -0.000183105 38.4183 -0.000183105 34V12Z" fill="url(#paint4_linear_2001_7869)"/>
<defs>
<linearGradient id="paint0_linear_2001_7869" x1="66.4998" y1="0" x2="66.4998" y2="111" gradientUnits="userSpaceOnUse">
<stop stop-color="#A37DE4"/>
<stop offset="1" stop-color="#3C2165"/>
</linearGradient>
<linearGradient id="paint1_linear_2001_7869" x1="66.4998" y1="111" x2="112.407" y2="5.55505" gradientUnits="userSpaceOnUse">
<stop stop-color="#7544FF"/>
<stop offset="1" stop-color="white" stop-opacity="0"/>
</linearGradient>
<linearGradient id="paint2_linear_2001_7869" x1="87.5145" y1="30.3898" x2="127.908" y2="0.886388" gradientUnits="userSpaceOnUse">
<stop stop-color="#036CD1"/>
<stop offset="1" stop-color="#30F8BB"/>
</linearGradient>
<linearGradient id="paint3_linear_2001_7869" x1="35.5148" y1="121.159" x2="53.9044" y2="77.5215" gradientUnits="userSpaceOnUse">
<stop offset="0.1009" stop-color="#8D089D"/>
<stop offset="0.1486" stop-color="#9E0886"/>
<stop offset="0.2571" stop-color="#C00856"/>
<stop offset="0.3604" stop-color="#DC0831"/>
<stop offset="0.4557" stop-color="#EF0816"/>
<stop offset="0.5404" stop-color="#FB0806"/>
<stop offset="0.6055" stop-color="#FF0800"/>
<stop offset="1" stop-color="#FF9700"/>
</linearGradient>
<linearGradient id="paint4_linear_2001_7869" x1="0.00223535" y1="23.0042" x2="38.0072" y2="23.0042" gradientUnits="userSpaceOnUse">
<stop stop-color="#FF812B"/>
<stop offset="1" stop-color="#FFFF3B"/>
</linearGradient>
</defs>
</svg>
