<svg width="142" height="125" viewBox="0 0 142 125" fill="none" xmlns="http://www.w3.org/2000/svg">
<path d="M136.574 3.43C135.475 2.51 134.237 1.75 132.91 1.18C131.128 0.42 129.178 0 127.128 0H56.7322C54.6827 0 52.7223 0.42 50.95 1.18C49.1678 1.94 47.5738 3.04 46.2272 4.4C43.5342 7.12 41.8708 10.87 41.8708 15.01V44.53V56.68C41.8708 64.97 48.5243 71.69 56.7322 71.69H88.5936C88.5936 71.69 95.554 83.34 100.732 91.7C102.524 94.59 106.613 94.77 108.653 92.06C115.366 83.15 123.207 71.69 123.207 71.69H127.128C135.336 71.69 141.99 64.97 141.99 56.68V44.53V15.01C141.98 10.35 139.881 6.18 136.574 3.43Z" fill="url(#paint0_linear_2001_7825)"/>
<g filter="url(#filter0_b_2001_7825)">
<circle cx="44.9995" cy="31" r="23.5" fill="url(#paint1_linear_2001_7825)" fill-opacity="0.86" stroke="url(#paint2_linear_2001_7825)"/>
<path d="M90.4995 102.998C90.4995 108.535 88.4764 112.616 85.2555 115.649C82.0191 118.697 77.5481 120.708 72.6332 122.028C63.3426 124.523 52.6309 124.508 46.104 124.499C45.7211 124.498 45.3525 124.498 44.9995 124.498C38.6539 124.498 27.4672 124.172 17.8803 121.282C13.0877 119.838 8.73501 117.764 5.58689 114.805C2.45305 111.859 0.499481 108.025 0.499481 102.998C0.499481 86.8495 8.45809 76.9993 17.997 71.1627C27.5632 65.3095 38.7175 63.5 44.9995 63.5C51.2825 63.5 62.689 65.31 72.5068 71.1657C82.2983 77.0056 90.4995 86.8568 90.4995 102.998Z" fill="url(#paint3_linear_2001_7825)" fill-opacity="0.86" stroke="url(#paint4_linear_2001_7825)"/>
</g>
<path fill-rule="evenodd" clip-rule="evenodd" d="M92.7317 8.80797L69.3723 22.4294V49.6723L92.7317 63.2937L116.091 49.6723V22.4294L92.7317 8.80797ZM117.83 21.4154L92.7317 6.78003L67.6334 21.4154V50.6862L92.7317 65.3216L117.83 50.6862V21.4154Z" fill="white"/>
<path fill-rule="evenodd" clip-rule="evenodd" d="M92.7216 25.5528C90.9276 25.5528 89.4683 24.0778 89.4683 22.2645C89.4683 20.4513 90.9276 18.9762 92.7216 18.9762C94.5156 18.9762 95.9752 20.4513 95.9752 22.2645C95.9752 24.0778 94.5156 25.5528 92.7216 25.5528ZM92.7216 20.7679C91.9051 20.7679 91.2409 21.4393 91.2409 22.2645C91.2409 23.0898 91.9051 23.7612 92.7216 23.7612C93.5382 23.7612 94.2025 23.0898 94.2025 22.2645C94.2025 21.4393 93.5382 20.7679 92.7216 20.7679Z" fill="white"/>
<path d="M91.8835 26.0968C92.163 26.1619 92.454 26.1963 92.7529 26.1963C93.0517 26.1963 93.3428 26.1619 93.6224 26.0967V32.2477C93.3428 32.1825 93.0517 32.1481 92.7528 32.1481C92.454 32.1481 92.163 32.1825 91.8835 32.2477V26.0968Z" fill="white"/>
<path d="M89.9284 33.3899L84.6523 30.3133C84.5684 30.5904 84.4524 30.8622 84.303 31.1237C84.1536 31.385 83.9786 31.6224 83.7829 31.8343L89.0571 34.9097C89.2311 34.336 89.5327 33.8181 89.9284 33.3899Z" fill="white"/>
<path d="M89.0571 37.1918L83.7829 40.2675C83.9786 40.4795 84.1537 40.7169 84.3031 40.9782C84.4525 41.2396 84.5685 41.5113 84.6524 41.7885L89.9284 38.7118C89.5327 38.2836 89.2311 37.7658 89.0571 37.1918Z" fill="white"/>
<path d="M91.8835 39.8539V46.0049C92.1631 45.9396 92.4541 45.9054 92.753 45.9054C93.0519 45.9054 93.3429 45.9396 93.6224 46.0049V39.8539C93.3428 39.9192 93.0517 39.9535 92.7528 39.9535C92.454 39.9535 92.163 39.9192 91.8835 39.8539Z" fill="white"/>
<path d="M95.5772 38.7118L100.853 41.7885C100.937 41.5113 101.053 41.2393 101.203 40.9779C101.352 40.7166 101.527 40.4792 101.723 40.2673L96.4485 37.1918C96.2745 37.7658 95.9729 38.2836 95.5772 38.7118Z" fill="white"/>
<path d="M96.4485 34.9098L101.723 31.8343C101.527 31.6223 101.352 31.385 101.203 31.1235C101.053 30.8622 100.937 30.5904 100.853 30.3134L95.5772 33.39C95.9729 33.8182 96.2745 34.3361 96.4485 34.9098Z" fill="white"/>
<path fill-rule="evenodd" clip-rule="evenodd" d="M83.7356 30.8291C82.8386 32.3983 80.8441 32.9372 79.2893 32.0306C77.7346 31.124 77.1994 29.1099 78.0964 27.5408C78.9934 25.9716 80.988 25.4325 82.5428 26.3391C84.0975 27.2457 84.6325 29.2599 83.7356 30.8291ZM79.6327 28.4366C79.2244 29.1508 79.468 30.0675 80.1756 30.4801C80.8832 30.8927 81.791 30.6474 82.1993 29.9332C82.6075 29.219 82.364 28.3022 81.6564 27.8896C80.9488 27.477 80.041 27.7224 79.6327 28.4366Z" fill="white"/>
<path fill-rule="evenodd" clip-rule="evenodd" d="M83.7668 41.3271C84.6639 42.8963 84.1288 44.9102 82.574 45.817C81.0192 46.7235 79.0247 46.1846 78.1277 44.6154C77.2307 43.0462 77.7658 41.0321 79.3205 40.1253C80.8753 39.2188 82.8699 39.7579 83.7668 41.3271ZM79.664 43.7194C80.0723 44.4336 80.9801 44.6789 81.6876 44.2665C82.3952 43.8538 82.6388 42.937 82.2306 42.2228C81.8223 41.5086 80.9144 41.2633 80.2068 41.6757C79.4992 42.0885 79.2557 43.0052 79.664 43.7194Z" fill="white"/>
<path fill-rule="evenodd" clip-rule="evenodd" d="M92.7839 46.5488C94.5779 46.5488 96.0372 48.024 96.0372 49.837C96.0372 51.6504 94.5779 53.1253 92.7839 53.1253C90.9899 53.1253 89.5303 51.6504 89.5303 49.837C89.5303 48.024 90.9899 46.5488 92.7839 46.5488ZM92.7839 51.3337C93.6004 51.3337 94.2646 50.6625 94.2646 49.837C94.2646 49.0119 93.6004 48.3404 92.7839 48.3404C91.9673 48.3404 91.303 49.0119 91.303 49.837C91.303 50.6625 91.9673 51.3337 92.7839 51.3337Z" fill="white"/>
<path fill-rule="evenodd" clip-rule="evenodd" d="M101.77 41.2727C102.667 39.7035 104.662 39.1643 106.216 40.0712C107.771 40.9777 108.306 42.9918 107.409 44.561C106.512 46.1302 104.518 46.6691 102.963 45.7626C101.408 44.856 100.873 42.8419 101.77 41.2727ZM105.873 43.665C106.281 42.9508 106.038 42.0343 105.33 41.6216C104.623 41.2089 103.715 41.4542 103.307 42.1684C102.898 42.8826 103.142 43.7994 103.849 44.2121C104.557 44.6248 105.465 44.3792 105.873 43.665Z" fill="white"/>
<path fill-rule="evenodd" clip-rule="evenodd" d="M101.739 30.7746C100.842 29.2054 101.377 27.1914 102.932 26.2847C104.486 25.3782 106.481 25.9171 107.378 27.4863C108.275 29.0554 107.74 31.0697 106.185 31.9763C104.63 32.8829 102.636 32.3438 101.739 30.7746ZM105.842 28.3821C105.433 27.6679 104.526 27.4226 103.818 27.8353C103.11 28.2479 102.867 29.1645 103.275 29.8787C103.683 30.593 104.591 30.8384 105.299 30.4257C106.006 30.0131 106.25 29.0963 105.842 28.3821Z" fill="white"/>
<path fill-rule="evenodd" clip-rule="evenodd" d="M92.7216 34.5252C91.9051 34.5252 91.2409 35.1966 91.2409 36.0218C91.2409 36.847 91.9051 37.5185 92.7216 37.5185C93.5382 37.5185 94.2025 36.847 94.2025 36.0218C94.2025 35.1966 93.5382 34.5252 92.7216 34.5252ZM92.7216 39.3101C90.9277 39.3101 89.4683 37.8352 89.4683 36.0218C89.4683 34.2087 90.9277 32.7335 92.7216 32.7335C94.5156 32.7335 95.9752 34.2087 95.9752 36.0218C95.9752 37.8352 94.5156 39.3101 92.7216 39.3101Z" fill="white"/>
<defs>
<filter id="filter0_b_2001_7825" x="-1.00052" y="6" width="93" height="120" filterUnits="userSpaceOnUse" color-interpolation-filters="sRGB">
<feFlood flood-opacity="0" result="BackgroundImageFix"/>
<feGaussianBlur in="BackgroundImageFix" stdDeviation="0.5"/>
<feComposite in2="SourceAlpha" operator="in" result="effect1_backgroundBlur_2001_7825"/>
<feBlend mode="normal" in="SourceGraphic" in2="effect1_backgroundBlur_2001_7825" result="shape"/>
</filter>
<linearGradient id="paint0_linear_2001_7825" x1="56.4645" y1="66.8043" x2="132.776" y2="1.49663" gradientUnits="userSpaceOnUse">
<stop offset="0.17" stop-color="#6500E4"/>
<stop offset="0.47" stop-color="#9400FF"/>
<stop offset="0.82" stop-color="#B804FF"/>
</linearGradient>
<linearGradient id="paint1_linear_2001_7825" x1="44.9995" y1="7" x2="44.9995" y2="55" gradientUnits="userSpaceOnUse">
<stop stop-color="#A37DE4"/>
<stop offset="1" stop-color="#3C2165"/>
</linearGradient>
<linearGradient id="paint2_linear_2001_7825" x1="44.9995" y1="55" x2="64.8514" y2="9.40218" gradientUnits="userSpaceOnUse">
<stop stop-color="#7544FF"/>
<stop offset="1" stop-color="white" stop-opacity="0"/>
</linearGradient>
<linearGradient id="paint3_linear_2001_7825" x1="45.4995" y1="63" x2="45.4995" y2="125" gradientUnits="userSpaceOnUse">
<stop stop-color="#A37DE4"/>
<stop offset="1" stop-color="#3C2165"/>
</linearGradient>
<linearGradient id="paint4_linear_2001_7825" x1="45.4995" y1="125" x2="64.6007" y2="60.6049" gradientUnits="userSpaceOnUse">
<stop stop-color="#7544FF"/>
<stop offset="1" stop-color="white" stop-opacity="0"/>
</linearGradient>
</defs>
</svg>
