<svg width="80" height="125" viewBox="0 0 80 125" fill="none" xmlns="http://www.w3.org/2000/svg">
<rect x="79.5" y="0.5" width="124" height="79" rx="9.5" transform="rotate(90 79.5 0.5)" fill="url(#paint0_linear_2001_8496)" stroke="url(#paint1_linear_2001_8496)"/>
<rect x="19" y="10" width="18" height="18" rx="5" fill="url(#paint2_linear_2001_8496)" fill-opacity="0.6"/>
<rect x="43" y="10" width="18" height="18" rx="5" fill="url(#paint3_linear_2001_8496)" fill-opacity="0.6"/>
<rect x="43" y="30" width="18" height="18" rx="5" fill="url(#paint4_linear_2001_8496)" fill-opacity="0.6"/>
<rect x="19" y="30" width="18" height="18" rx="5" fill="url(#paint5_linear_2001_8496)" fill-opacity="0.6"/>
<rect x="5" y="5" width="70" height="47" rx="6" fill="url(#paint6_linear_2001_8496)" fill-opacity="0.6"/>
<rect x="5.5" y="5.5" width="69" height="46" rx="5.5" stroke="url(#paint7_linear_2001_8496)" stroke-opacity="0.45"/>
<rect x="5" y="56" width="70" height="19" rx="6" fill="url(#paint8_linear_2001_8496)" fill-opacity="0.6"/>
<rect x="5.5" y="56.5" width="69" height="18" rx="5.5" stroke="url(#paint9_linear_2001_8496)" stroke-opacity="0.45"/>
<rect x="5" y="79" width="70" height="19" rx="6" fill="url(#paint10_linear_2001_8496)" fill-opacity="0.6"/>
<rect x="5.5" y="79.5" width="69" height="18" rx="5.5" stroke="url(#paint11_linear_2001_8496)" stroke-opacity="0.45"/>
<rect x="5" y="102" width="70" height="19" rx="6" fill="url(#paint12_linear_2001_8496)" fill-opacity="0.6"/>
<rect x="5.5" y="102.5" width="69" height="18" rx="5.5" stroke="url(#paint13_linear_2001_8496)" stroke-opacity="0.45"/>
<defs>
<linearGradient id="paint0_linear_2001_8496" x1="250.2" y1="-25.5662" x2="129.547" y2="132.79" gradientUnits="userSpaceOnUse">
<stop offset="0.17" stop-color="#6500E4"/>
<stop offset="0.47" stop-color="#9400FF"/>
<stop offset="0.82" stop-color="#B804FF"/>
</linearGradient>
<linearGradient id="paint1_linear_2001_8496" x1="78.4375" y1="5.14286" x2="213.249" y2="67.1206" gradientUnits="userSpaceOnUse">
<stop stop-color="#7544FF"/>
<stop offset="1" stop-color="white" stop-opacity="0"/>
</linearGradient>
<linearGradient id="paint2_linear_2001_8496" x1="28" y1="10" x2="28" y2="28" gradientUnits="userSpaceOnUse">
<stop stop-color="#61F6FF"/>
<stop offset="1" stop-color="#246DB1"/>
</linearGradient>
<linearGradient id="paint3_linear_2001_8496" x1="52" y1="10" x2="52" y2="28" gradientUnits="userSpaceOnUse">
<stop stop-color="#61F6FF"/>
<stop offset="1" stop-color="#246DB1"/>
</linearGradient>
<linearGradient id="paint4_linear_2001_8496" x1="52" y1="30" x2="52" y2="48" gradientUnits="userSpaceOnUse">
<stop stop-color="#61F6FF"/>
<stop offset="1" stop-color="#246DB1"/>
</linearGradient>
<linearGradient id="paint5_linear_2001_8496" x1="28" y1="30" x2="28" y2="48" gradientUnits="userSpaceOnUse">
<stop stop-color="#61F6FF"/>
<stop offset="1" stop-color="#246DB1"/>
</linearGradient>
<linearGradient id="paint6_linear_2001_8496" x1="40" y1="5" x2="40" y2="52" gradientUnits="userSpaceOnUse">
<stop stop-color="white" stop-opacity="0.4"/>
<stop offset="1" stop-color="#E9E9E9" stop-opacity="0.8"/>
</linearGradient>
<linearGradient id="paint7_linear_2001_8496" x1="30.1408" y1="5" x2="54.8616" y2="56.7296" gradientUnits="userSpaceOnUse">
<stop stop-color="#D8D8D8"/>
<stop offset="1" stop-color="#979494"/>
</linearGradient>
<linearGradient id="paint8_linear_2001_8496" x1="40" y1="56" x2="40" y2="75" gradientUnits="userSpaceOnUse">
<stop stop-color="white" stop-opacity="0.4"/>
<stop offset="1" stop-color="#E9E9E9" stop-opacity="0.8"/>
</linearGradient>
<linearGradient id="paint9_linear_2001_8496" x1="30.1408" y1="56" x2="34.9248" y2="80.7635" gradientUnits="userSpaceOnUse">
<stop stop-color="#D8D8D8"/>
<stop offset="1" stop-color="#979494"/>
</linearGradient>
<linearGradient id="paint10_linear_2001_8496" x1="40" y1="79" x2="40" y2="98" gradientUnits="userSpaceOnUse">
<stop stop-color="white" stop-opacity="0.4"/>
<stop offset="1" stop-color="#E9E9E9" stop-opacity="0.8"/>
</linearGradient>
<linearGradient id="paint11_linear_2001_8496" x1="30.1408" y1="79" x2="34.9248" y2="103.763" gradientUnits="userSpaceOnUse">
<stop stop-color="#D8D8D8"/>
<stop offset="1" stop-color="#979494"/>
</linearGradient>
<linearGradient id="paint12_linear_2001_8496" x1="40" y1="102" x2="40" y2="121" gradientUnits="userSpaceOnUse">
<stop stop-color="white" stop-opacity="0.4"/>
<stop offset="1" stop-color="#E9E9E9" stop-opacity="0.8"/>
</linearGradient>
<linearGradient id="paint13_linear_2001_8496" x1="30.1408" y1="102" x2="34.9248" y2="126.763" gradientUnits="userSpaceOnUse">
<stop stop-color="#D8D8D8"/>
<stop offset="1" stop-color="#979494"/>
</linearGradient>
</defs>
</svg>
