<svg width="110" height="46" viewBox="0 0 110 46" fill="none" xmlns="http://www.w3.org/2000/svg">
<path d="M29.6789 12.3733C29.528 13.5463 29.3664 14.7463 29.1924 15.983C28.8506 18.4022 28.4796 20.8039 28.087 23.1434C27.0339 22.2478 26.0531 21.2645 25.1571 20.2047C24.1055 18.968 23.1695 17.6229 22.3627 16.1934C20.0672 20.2605 16.7293 23.6199 12.7279 25.875C12.5585 25.9706 12.3907 26.0631 12.2214 26.1539C9.57478 27.5659 6.65108 28.4998 3.55648 28.8456C3.12231 26.5077 2.7174 24.157 2.34173 21.7936C1.67047 17.6134 1.09158 13.3981 0.606603 9.15092C0.383361 7.20822 0.180133 5.25915 0 3.30689C3.00376 1.92676 6.15225 0.812777 9.41467 0C9.57479 1.99529 9.76108 3.99217 9.96738 5.97949C10.0444 6.71896 10.1244 7.46161 10.2045 8.19949C10.5155 11.0251 10.8757 13.8347 11.2668 16.6301C14.7571 13.4889 17.396 9.3565 18.7677 4.65674C18.8555 4.64717 18.9402 4.64399 19.0249 4.63921C20.1303 4.56908 21.245 4.53402 22.3627 4.53402C23.4805 4.53402 24.5951 4.56908 25.7006 4.63921C25.7853 4.64399 25.8699 4.64717 25.9577 4.65674C26.6721 7.10304 27.7313 9.39634 29.0692 11.4761C29.2663 11.7805 29.4695 12.0785 29.6789 12.3733Z" fill="white"/>
<path d="M44.7253 3.30689C44.5452 5.25915 44.342 7.20822 44.1187 9.15092C43.6338 13.3981 43.0549 17.6134 42.3836 21.7936C42.0079 24.157 41.603 26.5077 41.1689 28.8456C40.9918 29.8146 40.8055 30.7756 40.6161 31.7413C38.8856 33.5326 37.0751 35.2458 35.1967 36.8746C33.1198 38.6739 30.9551 40.3695 28.7104 41.9505C27.7728 42.615 26.8198 43.2573 25.8529 43.8772C24.709 44.6119 23.545 45.3227 22.3626 46C20.1856 44.7474 18.0671 43.3975 16.0148 41.9505C13.7701 40.3695 11.6054 38.6739 9.5285 36.8746C8.16133 35.6905 6.83111 34.4634 5.54401 33.1916C8.38457 32.7199 11.0866 31.8242 13.5884 30.5748C14.0195 30.3564 14.446 30.1301 14.8632 29.8943C16.9401 32.2609 19.4928 34.1701 22.3626 35.4594C24.7013 34.4108 26.8228 32.9509 28.6504 31.1692C29.7943 30.0473 30.8243 28.7978 31.7142 27.448C31.8127 26.9236 31.9051 26.4025 31.9974 25.875C32.5332 22.8119 33.0182 19.7282 33.4585 16.6301C33.8496 13.8347 34.2099 11.0251 34.5209 8.19949C34.6009 7.46161 34.681 6.71896 34.758 5.97949C34.9643 3.99217 35.1506 1.99529 35.3107 0C38.5731 0.812777 41.7216 1.92676 44.7253 3.30689Z" fill="#950FFF"/>
<path d="M44.7253 3.30689C44.5452 5.25915 44.342 7.20822 44.1187 9.15092C43.6338 13.3981 43.0549 17.6134 42.3836 21.7936C42.0079 24.157 41.603 26.5077 41.1689 28.8456C40.9918 29.8146 40.8055 30.7756 40.6161 31.7413C38.8856 33.5326 37.0751 35.2458 35.1967 36.8746C33.1198 38.6739 30.9551 40.3695 28.7104 41.9505C27.7728 42.615 26.8198 43.2573 25.8529 43.8772C24.709 44.6119 23.545 45.3227 22.3626 46C20.1856 44.7474 18.0671 43.3975 16.0148 41.9505C13.7701 40.3695 11.6054 38.6739 9.5285 36.8746C8.16133 35.6905 6.83111 34.4634 5.54401 33.1916C8.38457 32.7199 11.0866 31.8242 13.5884 30.5748C14.0195 30.3564 14.446 30.1301 14.8632 29.8943C16.9401 32.2609 19.4928 34.1701 22.3626 35.4594C24.7013 34.4108 26.8228 32.9509 28.6504 31.1692C29.7943 30.0473 30.8243 28.7978 31.7142 27.448C31.8127 26.9236 31.9051 26.4025 31.9974 25.875C32.5332 22.8119 33.0182 19.7282 33.4585 16.6301C33.8496 13.8347 34.2099 11.0251 34.5209 8.19949C34.6009 7.46161 34.681 6.71896 34.758 5.97949C34.9643 3.99217 35.1506 1.99529 35.3107 0C38.5731 0.812777 41.7216 1.92676 44.7253 3.30689Z" fill="#950FFF"/>
<path d="M64.1299 19.9186C63.7032 19.9186 63.3406 19.8902 63.0419 19.8333V17.7001C63.2695 17.757 63.5255 17.7854 63.8099 17.7854C64.2792 17.7854 64.6276 17.6716 64.8552 17.4441C65.0827 17.2023 65.1965 16.8397 65.1965 16.3561V4.9007H67.5431V16.2922C67.5431 17.5152 67.2586 18.4254 66.6898 19.0227C66.1351 19.62 65.2818 19.9186 64.1299 19.9186ZM68.3675 4.9007H74.7672V7.03393H70.7141V10.9804H73.9352V13.1136H70.7141V17.7001H74.7672V19.8333H68.3675V4.9007ZM77.0984 7.03393H74.6452V4.9007H81.8982V7.03393H79.445V19.8333H77.0984V7.03393ZM63.0206 23.9007H65.2818L66.3271 35.3775H66.3698L67.4791 23.9007H70.0389L71.1482 35.3775H71.1909L72.2362 23.9007H74.2627L72.7481 38.8333H69.8256L68.759 28.7645H68.7163L67.6497 38.8333H64.5352L63.0206 23.9007ZM76.118 23.9007H79.2965L81.7284 38.8333H79.3818L78.9552 35.8681V35.9108H76.2886L75.862 38.8333H73.6861L76.118 23.9007ZM78.6778 33.8842L77.6326 26.5032H77.5899L76.5659 33.8842H78.6778ZM82.0135 23.9007H84.3601V36.7001H88.2212V38.8333H82.0135V23.9007ZM88.4932 23.9007H90.8398V36.7001H94.7009V38.8333H88.4932V23.9007ZM94.9729 23.9007H101.373V26.0339H97.3194V29.9804H100.541V32.1136H97.3194V36.7001H101.373V38.8333H94.9729V23.9007ZM103.704 26.0339H101.251V23.9007H108.504V26.0339H106.05V38.8333H103.704V26.0339Z" fill="white"/>
</svg>
