<svg width="360" height="58" viewBox="0 0 360 58" fill="none" xmlns="http://www.w3.org/2000/svg">
<path d="M-283 10.5007C-303 10.5007 -331 3.00073 -371 3.00073V190.001H725V3.00078C695 3.00078 591.9 16.501 571.5 16.501C524 16.501 494 3.00073 414 3.00073C334 3.00073 320 16.5007 279.5 16.5007C239 16.5007 218 4.00074 186.5 4.00074C155 4.00074 132.5 13.5007 95.5 13.5007C58.5 13.5007 43.5 0.000732422 -1 0.000732422C-45.5 0.000732422 -68.5 14.5007 -106 14.5007C-140.5 14.5007 -170.5 2.00073 -195 2.00073C-219.5 2.00073 -263 10.5007 -283 10.5007Z" fill="white"/>
<path d="M-208.001 10.501C-238.001 10.501 -261.501 0.000976563 -291.501 0.000976562C-321.5 0.000976562 -351.492 10.001 -371 10.001C-370.998 25.001 -371 190.001 -371 190.001H725V10.001C711 10.001 699.991 2.00098 684.992 2.00098C669.992 2.00098 632.981 16.501 613.493 16.501C565.994 16.501 573.993 2.00098 493.994 2.00098C413.995 2.00098 379.995 18.501 339.495 18.501C298.995 18.501 277.996 4.00098 246.496 4.00098C214.996 4.00098 192.496 13.501 155.496 13.501C118.497 13.501 103.497 0.000976562 58.997 0.000976562C14.4973 0.000976562 -16.0025 10.001 -46.0023 10.001C-76.002 10.001 -106.502 0.000976562 -131.002 0.000976562C-155.501 0.000976562 -178.001 10.501 -208.001 10.501Z" fill="white"/>
</svg>
