<svg width="360" height="196" viewBox="0 0 360 196" fill="none" xmlns="http://www.w3.org/2000/svg">
<g opacity="0.7" clip-path="url(#clip0_260_6953)">
<path d="M-472 170.5C-492 170.5 -520 163 -560 163V350H536V163C506 163 402.9 176.5 382.5 176.5C335 176.5 305 163 225 163C145 163 131 176.5 90.5 176.5C50 176.5 29 164 -2.5 164C-34 164 -56.5 173.5 -93.5 173.5C-130.5 173.5 -145.5 160 -190 160C-234.5 160 -257.5 174.5 -295 174.5C-329.5 174.5 -359.5 162 -384 162C-408.5 162 -452 170.5 -472 170.5Z" fill="white"/>
<path d="M-397.001 170.5C-427.001 170.5 -450.501 160 -480.501 160C-510.5 160 -540.492 170 -560 170C-559.998 185 -560 350 -560 350H536V170C522 170 510.991 162 495.992 162C480.992 162 443.981 176.5 424.493 176.5C376.993 176.5 384.993 162 304.994 162C224.995 162 190.995 178.5 150.495 178.5C109.995 178.5 88.9955 164 57.4958 164C25.996 164 3.49615 173.5 -33.5036 173.5C-70.5033 173.5 -85.5033 160 -130.003 160C-174.503 160 -205.002 170 -235.002 170C-265.002 170 -295.502 160 -320.002 160C-344.501 160 -367.001 170.5 -397.001 170.5Z" fill="white"/>
</g>
<defs>
<clipPath id="clip0_260_6953">
<rect width="360" height="196" fill="white"/>
</clipPath>
</defs>
</svg>
