<svg width="129" height="129" viewBox="0 0 129 129" fill="none" xmlns="http://www.w3.org/2000/svg">
<path d="M85.6028 34.9497C85.1676 38.2113 84.7014 41.5483 84.1996 44.9872C83.2137 51.7143 82.1435 58.3927 81.0112 64.8982C77.9737 62.4077 75.145 59.6734 72.5606 56.7264C69.5276 53.2875 66.8277 49.5473 64.5008 45.5722C57.8797 56.8815 48.2523 66.2233 36.711 72.494C36.2226 72.7599 35.7385 73.0169 35.25 73.2695C27.6165 77.1959 19.1837 79.7928 10.258 80.7544C9.00568 74.2533 7.83779 67.7167 6.75426 61.1447C4.81813 49.5207 3.14844 37.7992 1.74962 25.989C1.10573 20.587 0.519559 15.1672 0 9.73848C8.66375 5.90074 17.7449 2.80307 27.1547 0.542969C27.6165 6.0913 28.1539 11.6441 28.7489 17.1702C28.9709 19.2265 29.2019 21.2916 29.4328 23.3434C30.3298 31.2006 31.3689 39.0134 32.4968 46.7864C42.5638 38.0518 50.1751 26.5607 54.1318 13.492C54.3849 13.4654 54.6291 13.4566 54.8734 13.4433C58.0618 13.2483 61.2768 13.1508 64.5008 13.1508C67.7247 13.1508 70.9397 13.2483 74.1281 13.4433C74.3724 13.4566 74.6166 13.4654 74.8697 13.492C76.9302 20.2945 79.9854 26.6715 83.8443 32.4547C84.4127 33.3011 84.9989 34.1298 85.6028 34.9497Z" fill="white"/>
<path d="M128.999 9.73848C128.479 15.1672 127.893 20.587 127.249 25.9891C125.85 37.7992 124.181 49.5207 122.245 61.1447C121.161 67.7167 119.993 74.2533 118.741 80.7544C118.23 83.4488 117.693 86.121 117.147 88.8066C112.155 93.7877 106.933 98.5516 101.516 103.081C95.5251 108.084 89.2816 112.799 82.8071 117.195C80.1027 119.043 77.3539 120.829 74.5652 122.553C71.2658 124.596 67.9086 126.572 64.4982 128.456C58.2191 124.973 52.1087 121.219 46.1893 117.195C39.7148 112.799 33.4712 108.084 27.4807 103.081C23.5374 99.788 19.7007 96.3757 15.9883 92.8393C24.1813 91.5276 31.9747 89.037 39.1908 85.5627C40.4342 84.9556 41.6642 84.3263 42.8677 83.6704C48.8581 90.2513 56.2208 95.5603 64.4982 99.1454C71.2436 96.2295 77.3628 92.1701 82.6339 87.2156C85.9333 84.0958 88.9041 80.6215 91.4708 76.8679C91.755 75.4099 92.0215 73.9608 92.2879 72.494C93.8333 63.9765 95.2321 55.4014 96.5021 46.7864C97.63 39.0134 98.6691 31.2006 99.5662 23.3434C99.7971 21.2916 100.028 19.2265 100.25 17.1702C100.845 11.6441 101.382 6.0913 101.844 0.542969C111.254 2.80307 120.335 5.90074 128.999 9.73848Z" fill="#950FFF"/>
<path d="M128.999 9.73848C128.479 15.1672 127.893 20.587 127.249 25.9891C125.85 37.7992 124.181 49.5207 122.245 61.1447C121.161 67.7167 119.993 74.2533 118.741 80.7544C118.23 83.4488 117.693 86.121 117.147 88.8066C112.155 93.7877 106.933 98.5516 101.516 103.081C95.5251 108.084 89.2816 112.799 82.8071 117.195C80.1027 119.043 77.3539 120.829 74.5652 122.553C71.2658 124.596 67.9086 126.572 64.4982 128.456C58.2191 124.973 52.1087 121.219 46.1893 117.195C39.7148 112.799 33.4712 108.084 27.4807 103.081C23.5374 99.788 19.7007 96.3757 15.9883 92.8393C24.1813 91.5276 31.9747 89.037 39.1908 85.5627C40.4342 84.9556 41.6642 84.3263 42.8677 83.6704C48.8581 90.2513 56.2208 95.5603 64.4982 99.1454C71.2436 96.2295 77.3628 92.1701 82.6339 87.2156C85.9333 84.0958 88.9041 80.6215 91.4708 76.8679C91.755 75.4099 92.0215 73.9608 92.2879 72.494C93.8333 63.9765 95.2321 55.4014 96.5021 46.7864C97.63 39.0134 98.6691 31.2006 99.5662 23.3434C99.7971 21.2916 100.028 19.2265 100.25 17.1702C100.845 11.6441 101.382 6.0913 101.844 0.542969C111.254 2.80307 120.335 5.90074 128.999 9.73848Z" fill="#950FFF"/>
</svg>
