<svg width="161" height="63" viewBox="0 0 161 63" fill="none" xmlns="http://www.w3.org/2000/svg">
<rect width="161" height="63" rx="31.1429" fill="#950FFF"/>
<rect x="5.0415" y="4.96173" width="60.26" height="53.1131" rx="25.1429" fill="white"/>
<path d="M10.5725 32.994C11.427 35.3809 13.5099 37.4788 16.0025 39.0782C19.2926 41.1894 23.3997 42.5026 26.6703 42.5026H35.1762H43.6821C46.9527 42.5026 51.0598 41.1894 54.3499 39.0782C56.8425 37.4788 58.9254 35.3809 59.7799 32.994L44.7742 33.0229C40.1788 33.0229 36.3123 36.1413 35.1762 40.3769C34.0401 36.1413 30.1736 33.0229 25.5782 33.0229L10.5725 32.994Z" fill="black"/>
<path d="M10.5725 45.1253C11.427 47.5123 13.5099 49.6101 16.0025 51.2095C19.2926 53.3207 23.3997 54.6339 26.6703 54.6339H35.1762H43.6821C46.9527 54.6339 51.0598 53.3207 54.3499 51.2095C56.8425 49.6101 58.9254 47.5123 59.7799 45.1253L44.7742 45.1542C40.1788 45.1542 36.3123 48.2726 35.1762 52.5083C34.0401 48.2726 30.1736 45.1542 25.5782 45.1542L10.5725 45.1253Z" fill="black"/>
<path d="M10.5725 18.2391C11.427 15.8521 13.5099 13.7543 16.0025 12.1549C19.2926 10.0437 23.3997 8.73048 26.6703 8.73048H35.1762H43.6821C46.9527 8.73048 51.0598 10.0437 54.3499 12.1549C56.8425 13.7543 58.9254 15.8521 59.7799 18.2391L44.7742 18.2102C40.1788 18.2102 36.3123 15.0918 35.1762 10.8561C34.0401 15.0918 30.1736 18.2102 25.5782 18.2102L10.5725 18.2391Z" fill="black"/>
<path d="M10.5725 30.3705C11.427 27.9835 13.5099 25.8857 16.0025 24.2862C19.2926 22.1751 23.3997 20.8618 26.6703 20.8618H35.1762H43.6821C46.9527 20.8618 51.0598 22.1751 54.3499 24.2862C56.8425 25.8857 58.9254 27.9835 59.7799 30.3705L44.7742 30.3415C40.1788 30.3415 36.3123 27.2231 35.1762 22.9875C34.0401 27.2231 30.1736 30.3415 25.5782 30.3415L10.5725 30.3705Z" fill="black"/>
<rect x="5.0415" y="4.96173" width="60.26" height="53.1131" rx="25.1429" fill="white"/>
<path d="M10.5726 32.994C11.4271 35.3809 13.5099 37.4788 16.0025 39.0782C19.2927 41.1894 23.3998 42.5026 26.6703 42.5026H35.1763H43.6822C46.9527 42.5026 51.0598 41.1894 54.35 39.0782C56.8426 37.4788 58.9255 35.3809 59.78 32.994L44.7742 33.0229C40.1788 33.0229 36.3123 36.1413 35.1763 40.3769C34.0402 36.1413 30.1737 33.0229 25.5783 33.0229L10.5726 32.994Z" fill="black"/>
<path d="M10.5726 45.1253C11.4271 47.5123 13.5099 49.6101 16.0025 51.2095C19.2927 53.3207 23.3998 54.6339 26.6703 54.6339H35.1763H43.6822C46.9527 54.6339 51.0598 53.3207 54.35 51.2095C56.8426 49.6101 58.9255 47.5123 59.78 45.1253L44.7742 45.1542C40.1788 45.1542 36.3123 48.2726 35.1763 52.5083C34.0402 48.2726 30.1737 45.1542 25.5783 45.1542L10.5726 45.1253Z" fill="black"/>
<path d="M10.5726 18.2391C11.4271 15.8522 13.5099 13.7543 16.0025 12.1549C19.2927 10.0437 23.3998 8.73051 26.6703 8.73051H35.1763H43.6822C46.9527 8.73051 51.0598 10.0437 54.35 12.1549C56.8426 13.7543 58.9255 15.8522 59.78 18.2391L44.7742 18.2102C40.1788 18.2102 36.3123 15.0918 35.1763 10.8562C34.0402 15.0918 30.1737 18.2102 25.5783 18.2102L10.5726 18.2391Z" fill="black"/>
<path d="M10.5726 30.3705C11.4271 27.9835 13.5099 25.8857 16.0025 24.2863C19.2927 22.1751 23.3998 20.8619 26.6703 20.8619H35.1763H43.6822C46.9527 20.8619 51.0598 22.1751 54.35 24.2863C56.8426 25.8857 58.9255 27.9835 59.78 30.3705L44.7742 30.3415C40.1788 30.3415 36.3123 27.2232 35.1763 22.9875C34.0402 27.2232 30.1737 30.3415 25.5783 30.3415L10.5726 30.3705Z" fill="black"/>
<path d="M70.23 11H75.21C76.91 11 78.15 11.4 78.93 12.2C79.71 12.98 80.1 14.19 80.1 15.83V16.67C80.1 17.75 79.92 18.63 79.56 19.31C79.22 19.99 78.69 20.48 77.97 20.78V20.84C79.61 21.4 80.43 22.86 80.43 25.22V27.02C80.43 28.64 80 29.88 79.14 30.74C78.3 31.58 77.06 32 75.42 32H70.23V11ZM74.82 19.55C75.48 19.55 75.97 19.38 76.29 19.04C76.63 18.7 76.8 18.13 76.8 17.33V16.16C76.8 15.4 76.66 14.85 76.38 14.51C76.12 14.17 75.7 14 75.12 14H73.53V19.55H74.82ZM75.42 29C76 29 76.43 28.85 76.71 28.55C76.99 28.23 77.13 27.69 77.13 26.93V25.1C77.13 24.14 76.96 23.48 76.62 23.12C76.3 22.74 75.76 22.55 75 22.55H73.53V29H75.42ZM82.3589 11H87.2489C88.9489 11 90.1889 11.4 90.9689 12.2C91.7489 12.98 92.1389 14.19 92.1389 15.83V17.12C92.1389 19.3 91.4189 20.68 89.9789 21.26V21.32C90.7789 21.56 91.3389 22.05 91.6589 22.79C91.9989 23.53 92.1689 24.52 92.1689 25.76V29.45C92.1689 30.05 92.1889 30.54 92.2289 30.92C92.2689 31.28 92.3689 31.64 92.5289 32H89.1689C89.0489 31.66 88.9689 31.34 88.9289 31.04C88.8889 30.74 88.8689 30.2 88.8689 29.42V25.58C88.8689 24.62 88.7089 23.95 88.3889 23.57C88.0889 23.19 87.5589 23 86.7989 23H85.6589V32H82.3589V11ZM86.8589 20C87.5189 20 88.0089 19.83 88.3289 19.49C88.6689 19.15 88.8389 18.58 88.8389 17.78V16.16C88.8389 15.4 88.6989 14.85 88.4189 14.51C88.1589 14.17 87.7389 14 87.1589 14H85.6589V20H86.8589ZM99.2285 32.3C97.6085 32.3 96.3685 31.84 95.5085 30.92C94.6485 30 94.2185 28.7 94.2185 27.02V15.98C94.2185 14.3 94.6485 13 95.5085 12.08C96.3685 11.16 97.6085 10.7 99.2285 10.7C100.849 10.7 102.089 11.16 102.949 12.08C103.809 13 104.239 14.3 104.239 15.98V27.02C104.239 28.7 103.809 30 102.949 30.92C102.089 31.84 100.849 32.3 99.2285 32.3ZM99.2285 29.3C100.369 29.3 100.939 28.61 100.939 27.23V15.77C100.939 14.39 100.369 13.7 99.2285 13.7C98.0885 13.7 97.5185 14.39 97.5185 15.77V27.23C97.5185 28.61 98.0885 29.3 99.2285 29.3Z" fill="white"/>
<path d="M69.45 33H72.63L74.1 49.14H74.16L75.72 33H79.32L80.88 49.14H80.94L82.41 33H85.26L83.13 54H79.02L77.52 39.84H77.46L75.96 54H71.58L69.45 33ZM89.0691 33H93.5391L96.9591 54H93.6591L93.0591 49.83V49.89H89.3091L88.7091 54H85.6491L89.0691 33ZM92.6691 47.04L91.1991 36.66H91.1391L89.6991 47.04H92.6691ZM98.5601 33H101.86V51H107.29V54H98.5601V33ZM108.873 33H112.173V51H117.603V54H108.873V33ZM119.185 33H128.185V36H122.485V41.55H127.015V44.55H122.485V51H128.185V54H119.185V33ZM132.664 36H129.214V33H139.414V36H135.964V54H132.664V36Z" fill="white"/>
</svg>
