<svg width="61" height="168" viewBox="0 0 61 168" fill="none" xmlns="http://www.w3.org/2000/svg">
<path d="M42.7556 157.249H50.5803L50.5141 167.02H42.8218L42.7556 157.249Z" fill="#33303D"/>
<path d="M43.3517 167.02H42.8218L42.7556 157.249H50.5772L50.5109 167.02H49.9811C49.8802 160.35 43.4589 160.35 43.3517 167.02Z" fill="#232730"/>
<path d="M35.5274 103.866C30.2352 125.207 35.2719 161.463 35.2719 161.463H44.3171L35.5274 103.866Z" fill="#232730"/>
<path d="M58.2795 103.866C63.5717 125.207 58.535 161.463 58.535 161.463H49.4897L58.2795 103.866Z" fill="#E6E6E6"/>
<path d="M35.5282 103.866L44.0972 160.026C38.928 156.978 34.7839 147.226 33.1817 134.606C32.9105 124.24 33.3237 112.76 35.5282 103.866Z" fill="#33303D"/>
<path d="M60.2289 143.561C57.9013 152.679 54.0663 159.125 49.613 160.666L58.2798 103.866C61.1467 115.433 60.9827 131.379 60.2289 143.561Z" fill="#F5F5F5"/>
<path d="M46.6328 57.9648C53.4766 66.4434 67.5901 102.697 50.8558 163.219H42.4066C26.5302 101.672 40.4859 67.0265 46.6328 57.9648Z" fill="white"/>
<path opacity="0.4" d="M46.6332 57.9648C46.7404 58.0972 46.8476 58.2359 46.9612 58.384C48.6264 65.2867 48.6327 75.9496 46.6016 87.6778C44.2678 101.136 39.8524 112.508 35.2793 118.075C33.6929 84.3777 42.1957 64.505 46.6332 57.9648Z" fill="#CACACA"/>
<path d="M54.6116 76.0249C59.5 93.811 61.919 123.209 50.8553 163.216H42.4062C40.3026 155.055 38.7257 147.374 37.5808 140.157C49.2217 146.656 58.7084 110.825 54.6116 76.0249Z" fill="#DFDFDF"/>
<path d="M56.5859 84.6926C59.4811 116.628 50.0858 147.674 38.2873 144.33C38.0381 142.924 37.7984 141.531 37.5808 140.16C49.2185 146.659 58.7053 110.825 54.6084 76.0249C55.337 78.6599 56.0056 81.5533 56.5859 84.6926Z" fill="#EBEBEB"/>
<path d="M46.0171 158.101C49.3728 158.101 52.4289 153.962 54.706 147.205C53.662 152.339 52.3879 157.675 50.8551 163.219H42.406C41.545 159.882 40.7786 156.629 40.0847 153.448C41.8603 156.418 43.8788 158.101 46.0171 158.101Z" fill="#E0E0E0"/>
<path d="M46.6328 57.9648C53.4767 66.4434 67.5902 102.697 50.8558 163.219H50.7108C66.8332 102.933 53.2338 66.8185 46.6423 58.3746C40.7194 67.4016 27.2745 101.915 42.5738 163.219H42.4098C26.5302 101.672 40.486 67.0265 46.6328 57.9648Z" fill="#E6E6E6"/>
<path d="M49.3479 162.157H50.1895V163.475H48.7869L49.3479 162.157Z" fill="#232730"/>
<path d="M44.0671 162.157H43.2256V163.475H44.6282L44.0671 162.157Z" fill="#232730"/>
<path d="M47.2061 162.157H48.0886L48.366 163.582H46.9255L47.2061 162.157Z" fill="#232730"/>
<path d="M45.3076 162.157H46.1901L46.4707 163.582H45.0271L45.3076 162.157Z" fill="#232730"/>
<path d="M35.7302 95.6927C35.7397 95.5919 35.7491 95.491 35.7618 95.3901C40.5935 94.3469 53.5747 94.599 58.0847 95.5131C58.0942 95.6139 58.1036 95.7148 58.1131 95.8156C53.8049 94.9142 40.3569 94.6589 35.7302 95.6927Z" fill="#4D3C5E"/>
<path d="M49.3039 158.557C52.341 135.094 53.2399 120.378 53.2336 95.0591H52.9119C52.9182 120.369 52.0193 135.072 48.9822 158.522L49.3039 158.557Z" fill="#4D3C5E"/>
<path d="M41.2419 158.491H52.1133C52.088 158.589 52.0628 158.687 52.0376 158.784H41.3113C41.2861 158.687 41.264 158.589 41.2419 158.491Z" fill="#4D3C5E"/>
<path d="M39.4283 77.516C39.8225 75.7667 40.428 74.4019 40.7781 74.4681C41.1282 74.5343 41.0904 76.0063 40.6961 77.7524C40.3019 79.5017 39.6964 80.8665 39.3463 80.8003C38.993 80.7341 39.0309 79.2622 39.4283 77.516Z" fill="#E6E6E6"/>
<path d="M39.5796 77.5411C39.9232 76.0156 40.418 74.8178 40.6828 74.8651C40.9476 74.9156 40.8845 76.1921 40.541 77.7207C40.1974 79.2494 39.7026 80.4471 39.4378 80.3967C39.1731 80.3463 39.2361 79.0697 39.5796 77.5411Z" fill="white"/>
<path d="M46.6314 57.0698C50.3561 61.6842 56.2286 75.4138 58.1177 95.9043C53.5667 95.1699 48.8202 94.7822 43.9444 94.7822C41.1753 94.7822 38.4504 94.9083 35.7791 95.151C37.7344 75.1838 43.3167 61.9584 46.6314 57.0698Z" fill="#33303D"/>
<path d="M18.4504 157.249H10.6257L10.692 167.02H18.3842L18.4504 157.249Z" fill="#33303D"/>
<path d="M17.8544 167.02H18.3842L18.4504 157.249H10.6289L10.6951 167.02H11.225C11.3291 160.35 17.7471 160.35 17.8544 167.02Z" fill="#232730"/>
<path d="M25.6831 103.865C30.9752 125.207 25.9385 161.463 25.9385 161.463H16.8933L25.6831 103.865Z" fill="#232730"/>
<path d="M2.92774 103.865C-2.36441 125.207 2.67228 161.463 2.67228 161.463H11.7175L2.92774 103.865Z" fill="#E6E6E6"/>
<path d="M25.683 103.865L17.114 160.026C22.2832 156.978 26.4273 147.226 28.0295 134.606C28.2976 124.239 27.8844 112.76 25.683 103.865Z" fill="#33303D"/>
<path d="M0.979505 143.56C3.30704 152.679 7.14212 159.124 11.5954 160.666L2.92858 103.865C0.0617381 115.433 0.225736 131.378 0.979505 143.56Z" fill="#F5F5F5"/>
<path d="M14.5735 57.9648C7.72967 66.4434 -6.3838 102.697 10.3505 163.219H18.7997C34.6761 101.672 20.7204 67.0265 14.5735 57.9648Z" fill="white"/>
<path opacity="0.4" d="M14.5736 57.9648C14.4664 58.0972 14.3592 58.2359 14.2456 58.384C12.5804 65.2867 12.5741 75.9496 14.6052 87.6778C16.939 101.136 21.3544 112.508 25.9275 118.075C27.5139 84.3777 19.0111 64.505 14.5736 57.9648Z" fill="#CACACA"/>
<path d="M6.59478 76.0249C1.70632 93.811 -0.712682 123.209 10.351 163.216H18.8002C20.9038 155.055 22.4807 147.374 23.6255 140.157C11.9847 146.656 2.49793 110.825 6.59478 76.0249Z" fill="#DFDFDF"/>
<path d="M4.61952 84.6926C1.72428 116.628 11.1196 147.674 22.9181 144.33C23.1673 142.924 23.407 141.531 23.6246 140.16C11.9869 146.659 2.50013 110.825 6.59698 76.0249C5.86844 78.6599 5.19982 81.5533 4.61952 84.6926Z" fill="#EBEBEB"/>
<path d="M15.1896 158.101C11.8307 158.101 8.77781 153.962 6.50073 147.205C7.54466 152.339 8.81881 157.675 10.3516 163.219H18.8007C19.6617 159.882 20.4281 156.629 21.122 153.448C19.3463 156.418 17.3279 158.101 15.1896 158.101Z" fill="#E0E0E0"/>
<path d="M14.5735 57.9648C7.72967 66.4434 -6.3838 102.697 10.3505 163.219H10.4956C-5.62687 102.933 7.97251 66.8185 14.5641 58.3746C20.487 67.4016 33.9318 101.915 18.6325 163.219H18.7965C34.6761 101.672 20.7204 67.0265 14.5735 57.9648Z" fill="#E6E6E6"/>
<path d="M11.8577 162.157H11.0193V163.475H12.4219L11.8577 162.157Z" fill="#232730"/>
<path d="M17.1409 162.157H17.9824V163.475H16.5798L17.1409 162.157Z" fill="#232730"/>
<path d="M13.9995 162.157H13.1201L12.8396 163.582H14.28L13.9995 162.157Z" fill="#232730"/>
<path d="M15.8982 162.157H15.0156L14.7351 163.582H16.1787L15.8982 162.157Z" fill="#232730"/>
<path d="M25.4773 95.6927C25.4679 95.5919 25.4584 95.491 25.4458 95.3901C20.6141 94.3469 7.63287 94.599 3.12287 95.5131C3.1134 95.6139 3.10394 95.7148 3.09448 95.8156C7.40264 94.9142 20.8506 94.6589 25.4773 95.6927Z" fill="#4D3C5E"/>
<path d="M11.9031 158.557C8.86596 135.094 7.96711 120.378 7.97342 95.0591H8.29512C8.28881 120.369 9.18765 135.072 12.2248 158.522L11.9031 158.557Z" fill="#4D3C5E"/>
<path d="M19.9677 158.491H9.09644C9.12167 158.589 9.1469 158.687 9.17213 158.784H19.8984C19.9204 158.687 19.9425 158.589 19.9677 158.491Z" fill="#4D3C5E"/>
<path d="M21.7809 77.516C21.3867 75.7667 20.7812 74.4019 20.4311 74.4681C20.081 74.5343 20.1189 76.0063 20.5131 77.7524C20.9073 79.5017 21.5129 80.8665 21.8629 80.8003C22.213 80.7341 22.1752 79.2622 21.7809 77.516Z" fill="#E6E6E6"/>
<path d="M21.6259 77.5411C21.2824 76.0156 20.7875 74.8178 20.5228 74.8651C20.258 74.9156 20.3211 76.1921 20.6646 77.7207C21.0082 79.2494 21.503 80.4471 21.7678 80.3967C22.0325 80.3463 21.9695 79.0697 21.6259 77.5411Z" fill="white"/>
<path d="M14.5749 57.0698C10.8502 61.6842 4.97778 75.4138 3.08862 95.9043C7.63962 95.1699 12.3862 94.7822 17.262 94.7822C20.0311 94.7822 22.756 94.9083 25.4273 95.151C23.4719 75.1838 17.8896 61.9584 14.5749 57.0698Z" fill="#33303D"/>
<path opacity="0.5" d="M49.5084 98.9833C49.5084 98.9707 49.5084 98.9581 49.5053 98.9486C49.4769 98.5389 49.4485 98.1291 49.4201 97.7194C49.4201 97.7005 49.417 97.6847 49.417 97.6658C49.357 96.8526 49.2877 96.0426 49.2151 95.2357C49.212 95.2073 49.2088 95.179 49.2057 95.1506C49.1678 94.7598 49.13 94.3689 49.0921 93.9812C49.089 93.9466 49.0858 93.9119 49.0826 93.8772C49.0006 93.0956 48.9155 92.317 48.8209 91.5448C48.8177 91.507 48.8114 91.466 48.8051 91.4282C48.7578 91.0531 48.7105 90.6812 48.66 90.3093C48.6537 90.2652 48.6474 90.221 48.6411 90.1769C48.5402 89.4236 48.4298 88.6798 48.3163 87.9391C48.31 87.8886 48.3005 87.8413 48.2942 87.7909C48.2374 87.4348 48.1807 87.0786 48.1207 86.7256C48.1113 86.6751 48.105 86.6247 48.0955 86.5743C47.9725 85.8525 47.84 85.137 47.7013 84.431C47.6918 84.3774 47.6792 84.327 47.6697 84.2734C47.6003 83.933 47.531 83.5957 47.4616 83.2585C47.449 83.2049 47.4395 83.1513 47.4269 83.0978C47.2786 82.4106 47.1241 81.733 46.9601 81.0648C46.9475 81.0175 46.938 80.9702 46.9254 80.9229C46.9128 80.5699 46.9002 80.2201 46.8876 79.8702C46.8844 79.8072 46.8813 79.7441 46.8813 79.6779C46.8182 78.0011 46.7299 76.359 46.6227 74.7484C46.6163 74.6318 46.6069 74.5183 46.5974 74.4048C46.487 72.8226 46.3577 71.2718 46.2095 69.7558C46.2032 69.677 46.1937 69.595 46.1874 69.5162C46.137 69.0182 46.0865 68.5265 46.0329 68.0349C46.0266 67.9687 46.0171 67.8993 46.0108 67.8331C45.8437 66.3328 45.6607 64.864 45.4589 63.4331C45.4463 63.3385 45.4305 63.2408 45.4179 63.1463C45.2129 61.7027 44.989 60.2906 44.7524 58.9133C44.7461 58.8691 44.7367 58.8282 44.7303 58.784C44.6547 58.3428 44.5758 57.9047 44.4938 57.4697C44.478 57.3877 44.4623 57.3058 44.4465 57.2207C44.2037 55.9095 43.9482 54.633 43.6801 53.388C43.6612 53.2934 43.6391 53.1989 43.6202 53.1043C43.5319 52.704 43.4436 52.3037 43.3553 51.9129C43.3458 51.8688 43.3332 51.8247 43.3237 51.7805C43.1377 50.961 42.9453 50.1542 42.7466 49.363C42.7403 49.3347 42.7308 49.3031 42.7245 49.2748C42.633 48.9028 42.5384 48.5372 42.4438 48.1716C42.4154 48.0644 42.387 47.9573 42.3586 47.8501C42.0685 46.7438 41.7689 45.669 41.463 44.6226C41.4314 44.5154 41.3999 44.4051 41.3683 44.2979C41.2737 43.9764 41.176 43.6581 41.0813 43.3429C41.0466 43.2294 41.012 43.1191 40.9773 43.0088C40.7786 42.3721 40.5799 41.7449 40.378 41.1303C40.3623 41.0862 40.3496 41.0389 40.3339 40.9947C40.2393 40.7079 40.1415 40.4211 40.0469 40.1406C39.9996 40.0019 39.9523 39.8632 39.905 39.7245C39.8103 39.4503 39.7157 39.1793 39.6211 38.9113C39.5833 38.8042 39.5454 38.697 39.5076 38.5899C39.3341 38.1013 39.1575 37.6222 38.9809 37.1526C38.9273 37.0076 38.8736 36.8626 38.82 36.7208C38.7286 36.4844 38.6403 36.2511 38.5488 36.0179C38.4889 35.8603 38.429 35.709 38.3659 35.5546C38.2303 35.2079 38.0915 34.8675 37.9559 34.5302C37.877 34.3348 37.7982 34.1425 37.7193 33.9503C37.6342 33.7485 37.5522 33.55 37.467 33.3514C37.3977 33.1875 37.3251 33.0205 37.2557 32.8597C37.1737 32.6706 37.0917 32.4815 37.0097 32.2955C36.9277 32.1096 36.8457 31.9267 36.7637 31.7439C36.647 31.4855 36.5303 31.227 36.4137 30.9749C36.3222 30.7795 36.2339 30.584 36.1424 30.3918C36.0699 30.2342 35.9942 30.0797 35.9217 29.9253C35.8365 29.7456 35.7513 29.5691 35.6662 29.3958C35.5968 29.2571 35.5306 29.1153 35.4612 28.9766C35.3224 28.6929 35.1837 28.4155 35.0417 28.1445C34.9818 28.0279 34.9219 27.9144 34.8651 27.8009C34.7673 27.615 34.6727 27.429 34.575 27.2493C34.5119 27.1296 34.4488 27.0129 34.3857 26.8963C34.2785 26.6978 34.1713 26.4992 34.064 26.3069C34.0199 26.2281 33.9757 26.1462 33.9347 26.0674C33.7896 25.8089 33.6477 25.5568 33.5058 25.3078C33.4553 25.2164 33.4017 25.1281 33.3513 25.0399C33.2472 24.8602 33.1463 24.6868 33.0422 24.5135C32.9917 24.4315 32.9444 24.3496 32.8971 24.2676C32.7552 24.0313 32.6133 23.8012 32.4745 23.5742C32.4461 23.5301 32.4209 23.4891 32.3925 23.445C32.2727 23.2559 32.156 23.0699 32.0393 22.8903C31.9951 22.8209 31.951 22.7516 31.9068 22.6854C31.7964 22.5152 31.686 22.3481 31.5757 22.1874C31.5441 22.1433 31.5157 22.096 31.4842 22.0519C31.3486 21.8501 31.213 21.6547 31.0805 21.4656C31.0458 21.4183 31.0143 21.3742 30.9827 21.3269C30.8787 21.1788 30.7746 21.037 30.6736 20.8983C30.6358 20.8478 30.598 20.7974 30.5633 20.747C30.434 20.5736 30.3078 20.4034 30.1816 20.2427C30.024 20.4129 29.8663 20.5894 29.7054 20.7753C25.4256 25.7333 19.468 36.8027 15.819 53.6591C15.8127 53.6906 15.8064 53.7221 15.797 53.7536C15.7086 54.1602 15.6235 54.57 15.5383 54.9829C15.5352 55.0018 15.5289 55.0238 15.5257 55.0427C15.368 55.8087 15.2166 56.5872 15.0684 57.3751C15.0495 57.4823 15.0274 57.5895 15.0085 57.6966C14.936 58.0875 14.8666 58.4815 14.7972 58.8754C14.7814 58.9732 14.7625 59.074 14.7467 59.1717C14.6269 59.8714 14.5102 60.5806 14.3966 61.2992C14.3683 61.4789 14.3399 61.6586 14.3115 61.8382C14.2547 62.2101 14.198 62.5852 14.1443 62.9634C14.116 63.1589 14.0907 63.3543 14.0623 63.5497C13.974 64.1706 13.892 64.801 13.81 65.4345C13.7785 65.6835 13.747 65.9294 13.7154 66.1784C13.6713 66.5345 13.6303 66.8907 13.5893 67.25C13.5514 67.5652 13.5199 67.8867 13.4852 68.205C13.4757 68.3059 13.4631 68.4068 13.4505 68.5076C13.4505 68.5108 13.4505 68.5139 13.4505 68.5171C13.4063 68.9363 13.3653 69.3586 13.3212 69.7841C13.2896 70.093 13.2613 70.4019 13.2329 70.714C13.2013 71.0512 13.1698 71.3885 13.1414 71.732C13.1004 72.2206 13.0594 72.7123 13.0216 73.2071C12.9932 73.5822 12.968 73.9573 12.9427 74.3355C12.9175 74.7043 12.8923 75.073 12.8702 75.445C12.8513 75.7664 12.8323 76.0879 12.8134 76.4094C12.7787 77.0051 12.7503 77.604 12.722 78.206C12.7093 78.5023 12.6967 78.7986 12.6873 79.0948C12.6715 79.5172 12.6557 79.9396 12.6431 80.3651C12.6368 80.5762 12.6273 80.7843 12.621 80.9986C12.5737 81.1877 12.5296 81.3768 12.4854 81.5659C12.476 81.6069 12.4665 81.651 12.457 81.692C12.3561 82.127 12.2552 82.5682 12.1606 83.0126C12.1511 83.0568 12.1416 83.1009 12.1322 83.145C12.0376 83.5926 11.943 84.0433 11.8546 84.5003C11.8483 84.5382 11.8389 84.5728 11.8326 84.6107C11.7411 85.0834 11.6496 85.5594 11.5645 86.0416C11.5613 86.0605 11.5582 86.0763 11.555 86.0921C11.3753 87.0975 11.2144 88.1187 11.063 89.1525C11.063 89.1651 11.0599 89.1746 11.0599 89.1872C10.9873 89.6915 10.918 90.1958 10.8517 90.7064C10.8486 90.7316 10.8454 90.76 10.8423 90.7852C10.776 91.2864 10.7161 91.7875 10.6562 92.2918C10.653 92.317 10.6499 92.3454 10.6467 92.3706C10.5868 92.8812 10.53 93.3981 10.4796 93.915C10.4796 93.9308 10.4764 93.9434 10.4764 93.9592C7.77673 120.366 12.8355 152.257 12.8355 152.257H22.9152L21.7798 159.046L22.2245 159.103L23.7573 153.618C23.8487 153.911 23.937 154.201 24.0316 154.494H24.243H24.7255L23.9276 159.342H24.7823H35.4864H36.3443L35.5463 154.494H36.1046H36.3443C36.4483 154.138 36.5461 153.788 36.6502 153.432L38.5141 159.043L38.9588 158.967L37.4954 152.253H46.752C46.7267 152.263 51.1768 124.243 49.5084 98.9833Z" fill="#654A91"/>
<path d="M37.7948 153.896L37.4069 153.978L33.698 139.854L34.2468 133.33L37.7948 153.896Z" fill="#33303D"/>
<path d="M22.7537 153.978L23.1447 154.041L26.3017 139.75L25.4975 133.257L22.7537 153.978Z" fill="#33303D"/>
<path d="M34.4546 146.221H25.6869L24.6335 154.306H35.508L34.4546 146.221Z" fill="#33303D"/>
<path d="M34.7581 154.306H35.5088L34.4554 146.221H25.6877L24.6375 154.306H25.3881C25.5331 148.79 34.6099 148.79 34.7581 154.306Z" fill="#232730"/>
<path d="M44.291 65.1729C51.0434 95.2955 44.619 146.467 44.619 146.467H33.0728L44.291 65.1729Z" fill="#E6E6E6"/>
<path d="M15.2511 65.1729C8.49874 95.2955 14.9231 146.467 14.9231 146.467H26.4693L15.2511 65.1729Z" fill="#E6E6E6"/>
<path d="M44.2906 65.1729L33.353 144.437C39.9509 140.138 45.243 126.373 47.2867 108.562C47.6305 93.9276 47.1038 77.7237 44.2906 65.1729Z" fill="#F5F5F5"/>
<path d="M12.7623 121.198C15.7332 134.07 20.628 143.163 26.3112 145.341L15.2475 65.1729C11.589 81.4997 11.8004 104.004 12.7623 121.198Z" fill="#F5F5F5"/>
<path d="M30.1141 0.38623C21.378 12.354 3.3632 63.5218 24.7242 148.941H35.5072C55.7738 62.0783 37.9641 13.1798 30.1141 0.38623Z" fill="white"/>
<path opacity="0.4" d="M30.1156 0.38623C29.98 0.572192 29.8413 0.770762 29.6993 0.975635C27.5736 10.7181 27.5642 25.7684 30.1598 42.319C33.1402 61.3155 38.7761 77.3649 44.6139 85.2226C46.6323 37.6668 35.78 9.61813 30.1156 0.38623Z" fill="#CACACA"/>
<path d="M19.9313 25.8784C13.693 50.9801 10.6054 92.4748 24.7252 148.941H35.5082C38.1952 137.424 40.2074 126.581 41.6676 116.398C26.813 125.567 14.7022 74.9944 19.9313 25.8784Z" fill="#DFDFDF"/>
<path d="M17.4114 38.1116C13.7151 83.1837 25.7092 127.001 40.7657 122.283C41.0842 120.3 41.387 118.334 41.6645 116.395C26.8099 125.567 14.7023 74.9951 19.9313 25.876C19.0073 29.5984 18.1526 33.6801 17.4114 38.1116Z" fill="#EBEBEB"/>
<path d="M30.9002 141.72C26.6141 141.72 22.716 135.88 19.8113 126.339C21.1454 133.585 22.7696 141.118 24.725 148.941H35.508C36.6055 144.229 37.5864 139.637 38.4694 135.152C36.2081 139.344 33.6314 141.72 30.9002 141.72Z" fill="#E0E0E0"/>
<path d="M30.1141 0.38623C21.378 12.354 3.3632 63.5218 24.7242 148.941H24.9071C4.33143 63.8528 21.687 12.8835 30.1015 0.963027C37.6613 13.7061 54.8214 62.4155 35.2959 148.941H35.5072C55.7738 62.0783 37.9641 13.1798 30.1141 0.38623Z" fill="#E6E6E6"/>
<path d="M26.6514 147.447H25.5759V149.304H27.3673L26.6514 147.447Z" fill="#232730"/>
<path d="M33.3915 147.447H34.4669V149.304H32.6755L33.3915 147.447Z" fill="#232730"/>
<path d="M29.3834 147.447H28.2575L27.9011 149.458H29.743L29.3834 147.447Z" fill="#232730"/>
<path d="M31.8094 147.447H30.6835L30.324 149.458H32.1658L31.8094 147.447Z" fill="#232730"/>
<path d="M44.0321 53.6339C44.0195 53.4889 44.0069 53.347 43.9943 53.2052C37.8285 51.7333 21.2582 52.0894 15.5024 53.3786C15.4898 53.5204 15.4772 53.6622 15.4646 53.8041C20.9618 52.537 38.1281 52.1777 44.0321 53.6339Z" fill="#4D3C5E"/>
<path d="M26.7058 142.364C22.8297 109.25 21.6817 88.4788 21.688 52.7427H22.098C22.0917 88.4631 23.2366 109.218 27.1126 142.316L26.7058 142.364Z" fill="#4D3C5E"/>
<path d="M36.9997 142.272H23.1228C23.1543 142.411 23.1859 142.546 23.2174 142.685H36.9083C36.9398 142.546 36.9713 142.411 36.9997 142.272Z" fill="#4D3C5E"/>
<path d="M39.3101 27.9812C38.8055 25.5133 38.0359 23.5875 37.5881 23.6789C37.1402 23.7703 37.1875 25.8474 37.6953 28.3153C38.1999 30.7833 38.9695 32.7091 39.4173 32.6177C39.8652 32.5263 39.8179 30.4492 39.3101 27.9812Z" fill="#E6E6E6"/>
<path d="M39.1163 28.0188C38.6748 25.8629 38.044 24.1734 37.7065 24.2428C37.3659 24.3153 37.4479 26.1182 37.8863 28.2741C38.3279 30.43 38.9555 32.1194 39.2961 32.05C39.6367 31.9775 39.5578 30.1746 39.1163 28.0188Z" fill="white"/>
<circle cx="30" cy="41" r="10" fill="#262626"/>
<path d="M22.6086 35.3481C25.0395 32.1072 28.6957 31.4349 32.1739 31.8697C28.6958 32.3046 26.9566 33.1742 24.3479 36.2177C22.261 38.6525 21.7393 41.4351 21.7393 44.0436C21.1596 42.8842 20.2752 38.4591 22.6086 35.3481Z" fill="white"/>
<path d="M37.3914 46.6519C34.9605 49.8928 31.3043 50.5651 27.8261 50.1303C31.3042 49.6954 33.0434 48.8258 35.6521 45.7823C37.739 43.3475 38.2607 40.5649 38.2607 37.9564C38.8404 39.1158 39.7248 43.5409 37.3914 46.6519Z" fill="black"/>
</svg>
