<svg width="61" height="168" fill="none" xmlns="http://www.w3.org/2000/svg"><path d="M42.756 157.249h7.824l-.066 9.771h-7.692l-.066-9.771Z" fill="#33303D"/><path d="M43.352 167.02h-.53l-.066-9.771h7.821l-.066 9.771h-.53c-.1-6.67-6.522-6.67-6.63 0Z" fill="#232730"/><path d="M35.527 103.866c-5.292 21.341-.255 57.597-.255 57.597h9.045l-8.79-57.597Z" fill="#232730"/><path d="M58.28 103.866c5.292 21.341.255 57.597.255 57.597H49.49l8.79-57.597Z" fill="#E6E6E6"/><path d="m35.528 103.866 8.57 56.16c-5.17-3.048-9.314-12.8-10.916-25.42-.272-10.366.142-21.846 2.346-30.74Z" fill="#33303D"/><path d="M60.229 143.561c-2.328 9.118-6.163 15.564-10.616 17.105l8.667-56.8c2.867 11.567 2.703 27.513 1.949 39.695Z" fill="#F5F5F5"/><path d="M46.633 57.965c6.844 8.478 20.957 44.732 4.223 105.254h-8.45c-15.876-61.547-1.92-96.192 4.227-105.254Z" fill="#fff"/><path opacity=".4" d="M46.633 57.965c.107.132.215.27.328.419 1.665 6.903 1.672 17.566-.36 29.294-2.333 13.458-6.749 24.83-11.322 30.397-1.586-33.697 6.917-53.57 11.354-60.11Z" fill="#CACACA"/><path d="M54.612 76.025c4.888 17.786 7.307 47.184-3.757 87.191h-8.449c-2.103-8.161-3.68-15.842-4.825-23.059 11.64 6.499 21.127-29.332 17.03-64.132Z" fill="#DFDFDF"/><path d="M56.586 84.693c2.895 31.935-6.5 62.981-18.299 59.637-.249-1.406-.489-2.799-.706-4.17 11.637 6.499 21.124-29.335 17.027-64.135a102.507 102.507 0 0 1 1.978 8.668Z" fill="#EBEBEB"/><path d="M46.017 158.101c3.356 0 6.412-4.139 8.689-10.896a238.286 238.286 0 0 1-3.85 16.014h-8.45a265.706 265.706 0 0 1-2.321-9.771c1.775 2.97 3.794 4.653 5.932 4.653Z" fill="#E0E0E0"/><path d="M46.633 57.965c6.844 8.478 20.957 44.732 4.223 105.254h-.145c16.122-60.286 2.523-96.4-4.069-104.844-5.923 9.027-19.368 43.54-4.068 104.844h-.164c-15.88-61.547-1.924-96.192 4.223-105.254Z" fill="#E6E6E6"/><path d="M49.348 162.157h.842v1.318h-1.403l.56-1.318ZM44.067 162.157h-.841v1.318h1.402l-.56-1.318ZM47.206 162.157h.883l.277 1.425h-1.44l.28-1.425ZM45.308 162.157h.882l.28 1.425h-1.443l.28-1.425Z" fill="#232730"/><path d="M35.73 95.693c.01-.101.02-.202.032-.303 4.831-1.043 17.813-.791 22.323.123l.028.303c-4.308-.902-17.756-1.157-22.383-.123Z" fill="#4D3C5E"/><path d="M49.304 158.557c3.037-23.463 3.936-38.179 3.93-63.498h-.322c.006 25.31-.893 40.013-3.93 63.463l.322.035Z" fill="#4D3C5E"/><path d="M41.242 158.491h10.871l-.075.293H41.31c-.025-.097-.047-.195-.07-.293Z" fill="#4D3C5E"/><path d="M39.428 77.516c.395-1.75 1-3.114 1.35-3.048.35.066.312 1.538-.082 3.284-.394 1.75-1 3.115-1.35 3.048-.353-.066-.315-1.538.082-3.284Z" fill="#E6E6E6"/><path d="M39.58 77.541c.343-1.525.838-2.723 1.103-2.676.265.05.202 1.327-.142 2.856-.344 1.528-.838 2.726-1.103 2.676-.265-.05-.202-1.327.142-2.856Z" fill="#fff"/><path d="M46.631 57.07c3.725 4.614 9.598 18.344 11.487 38.834a89.047 89.047 0 0 0-14.174-1.122c-2.769 0-5.494.126-8.165.369 1.955-19.967 7.538-33.193 10.852-38.081ZM18.45 157.249h-7.824l.066 9.771h7.692l.066-9.771Z" fill="#33303D"/><path d="M17.854 167.02h.53l.066-9.771H10.63l.066 9.771h.53c.104-6.67 6.522-6.67 6.63 0Z" fill="#232730"/><path d="M25.683 103.865c5.292 21.342.256 57.598.256 57.598h-9.046l8.79-57.598Z" fill="#232730"/><path d="M2.928 103.865c-5.292 21.342-.256 57.598-.256 57.598h9.045l-8.79-57.598Z" fill="#E6E6E6"/><path d="m25.683 103.865-8.569 56.161c5.17-3.048 9.313-12.8 10.915-25.42.269-10.367-.145-21.846-2.346-30.741Z" fill="#33303D"/><path d="M.98 143.56c2.327 9.119 6.162 15.564 10.615 17.106L2.93 103.865C.062 115.433.226 131.378.979 143.56Z" fill="#F5F5F5"/><path d="M14.573 57.965C7.73 66.443-6.384 102.697 10.35 163.219h8.45c15.876-61.547 1.92-96.192-4.227-105.254Z" fill="#fff"/><path opacity=".4" d="M14.574 57.965c-.108.132-.215.27-.328.419-1.666 6.903-1.672 17.566.36 29.294 2.333 13.458 6.748 24.83 11.321 30.397 1.587-33.697-6.916-53.57-11.353-60.11Z" fill="#CACACA"/><path d="M6.595 76.025C1.706 93.81-.713 123.209 10.35 163.216h8.45c2.103-8.161 3.68-15.842 4.825-23.059-11.641 6.499-21.128-29.332-17.031-64.132Z" fill="#DFDFDF"/><path d="M4.62 84.693c-2.896 31.935 6.5 62.981 18.298 59.637.25-1.406.489-2.799.707-4.17C11.987 146.659 2.5 110.825 6.597 76.025a102.531 102.531 0 0 0-1.977 8.668Z" fill="#EBEBEB"/><path d="M15.19 158.101c-3.36 0-6.412-4.139-8.69-10.896a238.248 238.248 0 0 0 3.852 16.014H18.8c.86-3.337 1.627-6.59 2.321-9.771-1.776 2.97-3.794 4.653-5.932 4.653Z" fill="#E0E0E0"/><path d="M14.573 57.965C7.73 66.443-6.384 102.697 10.35 163.219h.146c-16.123-60.286-2.523-96.4 4.068-104.844 5.923 9.027 19.368 43.54 4.069 104.844h.164c15.88-61.547 1.923-96.192-4.224-105.254Z" fill="#E6E6E6"/><path d="M11.858 162.157h-.839v1.318h1.403l-.564-1.318ZM17.14 162.157h.842v1.318H16.58l.56-1.318ZM14 162.157h-.88l-.28 1.425h1.44l-.28-1.425ZM15.898 162.157h-.882l-.28 1.425h1.443l-.28-1.425Z" fill="#232730"/><path d="M25.477 95.693c-.01-.101-.019-.202-.031-.303-4.832-1.043-17.813-.791-22.323.123l-.029.303c4.309-.902 17.757-1.157 22.383-.123Z" fill="#4D3C5E"/><path d="M11.903 158.557c-3.037-23.463-3.936-38.179-3.93-63.498h.322c-.006 25.31.893 40.013 3.93 63.463l-.322.035Z" fill="#4D3C5E"/><path d="M19.968 158.491H9.096l.076.293h10.726c.022-.097.044-.195.07-.293Z" fill="#4D3C5E"/><path d="M21.78 77.516c-.393-1.75-.999-3.114-1.349-3.048-.35.066-.312 1.538.082 3.284.394 1.75 1 3.115 1.35 3.048.35-.066.312-1.538-.082-3.284Z" fill="#E6E6E6"/><path d="M21.626 77.541c-.344-1.525-.838-2.723-1.103-2.676-.265.05-.202 1.327.142 2.856.343 1.528.838 2.726 1.103 2.676.264-.05.201-1.327-.142-2.856Z" fill="#fff"/><path d="M14.575 57.07C10.85 61.684 4.978 75.414 3.089 95.904a89.048 89.048 0 0 1 14.173-1.122c2.77 0 5.494.126 8.165.369-1.955-19.967-7.537-33.193-10.852-38.081Z" fill="#33303D"/><path opacity=".5" d="M49.508 98.983c0-.012 0-.025-.003-.034l-.085-1.23c0-.018-.003-.034-.003-.053-.06-.813-.13-1.623-.202-2.43l-.01-.085-.113-1.17-.01-.104a135.319 135.319 0 0 0-.277-2.449c-.047-.375-.094-.747-.145-1.119l-.019-.132c-.1-.753-.211-1.497-.325-2.238-.006-.05-.016-.098-.022-.148-.057-.356-.113-.712-.173-1.065-.01-.05-.016-.101-.026-.152a86.511 86.511 0 0 0-.394-2.143c-.01-.054-.022-.104-.031-.158l-.208-1.014c-.013-.054-.023-.108-.035-.161a74.173 74.173 0 0 0-.467-2.033c-.013-.047-.022-.095-.035-.142l-.037-1.053a170.961 170.961 0 0 0-.29-5.465c-.111-1.582-.24-3.133-.389-4.65-.006-.078-.015-.16-.022-.239-.05-.498-.1-.99-.154-1.481-.006-.066-.016-.136-.022-.202-.167-1.5-.35-2.969-.552-4.4-.013-.094-.029-.192-.041-.287a147.422 147.422 0 0 0-.666-4.233c-.006-.044-.015-.085-.022-.129a80.365 80.365 0 0 0-.283-1.563 134.744 134.744 0 0 0-.767-3.833c-.019-.095-.04-.19-.06-.284-.088-.4-.176-.8-.265-1.191-.01-.044-.022-.088-.031-.132-.186-.82-.379-1.627-.577-2.418l-.023-.088c-.091-.372-.186-.738-.28-1.103l-.085-.322a119.69 119.69 0 0 0-.896-3.227l-.095-.325c-.094-.322-.192-.64-.287-.955a132.702 132.702 0 0 0-.703-2.213c-.016-.044-.028-.091-.044-.135-.095-.287-.193-.574-.287-.854l-.142-.416-.284-.814-.113-.321c-.174-.489-.35-.968-.527-1.437-.054-.145-.107-.29-.161-.432-.091-.237-.18-.47-.271-.703-.06-.158-.12-.309-.183-.463-.136-.347-.274-.688-.41-1.025l-.237-.58c-.085-.202-.167-.4-.252-.599l-.211-.491-.246-.565a96.299 96.299 0 0 0-.246-.551l-.35-.77c-.092-.195-.18-.39-.272-.582-.072-.158-.148-.312-.22-.467a42.81 42.81 0 0 0-.256-.53c-.07-.138-.135-.28-.205-.418a33.757 33.757 0 0 0-.42-.832c-.06-.117-.12-.23-.176-.344-.098-.186-.192-.372-.29-.552-.063-.12-.126-.236-.19-.353-.106-.198-.214-.397-.321-.59a9.053 9.053 0 0 1-.13-.239c-.144-.258-.286-.51-.428-.76-.05-.09-.104-.179-.155-.267-.104-.18-.205-.353-.309-.526a9.86 9.86 0 0 1-.145-.246c-.142-.237-.284-.467-.422-.694l-.083-.129c-.12-.19-.236-.375-.353-.555l-.132-.205c-.11-.17-.221-.337-.331-.498-.032-.044-.06-.091-.092-.135a36.326 36.326 0 0 0-.501-.725c-.104-.148-.208-.29-.31-.429-.037-.05-.075-.1-.11-.151-.129-.173-.255-.344-.381-.504-.158.17-.316.346-.477.532-4.28 4.958-10.237 16.028-13.886 32.884a118.776 118.776 0 0 0-.28 1.324c-.004.019-.01.04-.013.06-.158.766-.31 1.544-.458 2.332-.018.107-.04.215-.06.322-.072.39-.141.784-.21 1.178-.017.098-.036.199-.051.297a168.676 168.676 0 0 0-.603 3.791c-.028.196-.053.391-.082.587-.088.62-.17 1.251-.252 1.885l-.095.743c-.044.356-.085.713-.126 1.072-.038.315-.07.637-.104.955-.01.1-.022.202-.034.303v.01c-.045.418-.086.84-.13 1.266-.031.309-.06.618-.088.93-.032.337-.063.674-.092 1.018-.04.489-.082.98-.12 1.475-.028.375-.053.75-.078 1.129-.025.368-.05.737-.073 1.109l-.057.964c-.034.596-.063 1.195-.091 1.797-.013.296-.025.593-.035.889-.015.422-.031.845-.044 1.27-.006.211-.016.42-.022.634-.047.189-.091.378-.136.567l-.028.126c-.1.435-.202.876-.296 1.32l-.029.133c-.094.448-.189.898-.277 1.355-.007.038-.016.073-.022.11a87.866 87.866 0 0 0-.278 1.482 98.702 98.702 0 0 0-.492 3.06c0 .013-.003.023-.003.035-.073.505-.142 1.009-.208 1.52l-.01.078a114.11 114.11 0 0 0-.186 1.507l-.01.079c-.06.51-.116 1.027-.166 1.544 0 .016-.004.028-.004.044-2.7 26.407 2.36 58.298 2.36 58.298h10.08l-1.136 6.789.444.057 1.533-5.485c.092.293.18.583.275.876h.694l-.798 4.848h12.416l-.798-4.848h.799c.103-.356.201-.706.305-1.062l1.864 5.611.445-.076-1.464-6.714h9.257c-.025.01 4.425-28.01 2.756-53.27Z" fill="#654A91"/><path d="m37.795 153.896-.388.082-3.709-14.124.549-6.524 3.548 20.566ZM22.754 153.978l.39.063 3.158-14.291-.805-6.493-2.743 20.721ZM34.455 146.221h-8.768l-1.053 8.085h10.874l-1.053-8.085Z" fill="#33303D"/><path d="M34.758 154.306h.75l-1.053-8.085h-8.767l-1.05 8.085h.75c.145-5.516 9.222-5.516 9.37 0Z" fill="#232730"/><path d="M44.291 65.173c6.752 30.123.328 81.294.328 81.294H33.073L44.29 65.173ZM15.251 65.173c-6.752 30.123-.328 81.294-.328 81.294H26.47L15.251 65.173Z" fill="#E6E6E6"/><path d="m44.29 65.173-10.937 79.264c6.598-4.299 11.89-18.064 13.934-35.875.343-14.634-.183-30.838-2.996-43.39ZM12.762 121.198c2.971 12.872 7.866 21.965 13.55 24.143L15.246 65.173C11.59 81.5 11.8 104.004 12.763 121.198Z" fill="#F5F5F5"/><path d="M30.114.386c-8.736 11.968-26.75 63.136-5.39 148.555h10.783C55.774 62.078 37.964 13.18 30.114.386Z" fill="#fff"/><path opacity=".4" d="M30.116.386c-.136.186-.275.385-.417.59-2.125 9.742-2.135 24.792.46 41.343 2.981 18.996 8.617 35.046 14.455 42.904C46.632 37.667 35.78 9.618 30.116.386Z" fill="#CACACA"/><path d="M19.931 25.878c-6.238 25.102-9.326 66.597 4.794 123.063h10.783c2.687-11.517 4.7-22.36 6.16-32.543-14.855 9.169-26.966-41.404-21.737-90.52Z" fill="#DFDFDF"/><path d="M17.411 38.112C13.715 83.184 25.71 127 40.766 122.283c.318-1.983.621-3.949.898-5.888-14.854 9.172-26.962-41.4-21.733-90.519a161.322 161.322 0 0 0-2.52 12.236Z" fill="#EBEBEB"/><path d="M30.9 141.72c-4.286 0-8.184-5.84-11.089-15.381a367.946 367.946 0 0 0 4.914 22.602h10.783a409.086 409.086 0 0 0 2.961-13.789c-2.26 4.192-4.838 6.568-7.569 6.568Z" fill="#E0E0E0"/><path d="M30.114.386c-8.736 11.968-26.75 63.136-5.39 148.555h.183C4.331 63.853 21.687 12.883 30.102.963c7.56 12.743 24.72 61.453 5.194 147.978h.211C55.774 62.078 37.964 13.18 30.114.386Z" fill="#E6E6E6"/><path d="M26.651 147.447h-1.075v1.857h1.791l-.716-1.857ZM33.392 147.447h1.075v1.857h-1.791l.715-1.857ZM29.383 147.447h-1.125l-.357 2.011h1.842l-.36-2.011ZM31.81 147.447h-1.127l-.359 2.011h1.842l-.357-2.011Z" fill="#232730"/><path d="m44.032 53.634-.038-.429c-6.166-1.472-22.736-1.116-28.492.174l-.037.425c5.497-1.267 22.663-1.626 28.567-.17Z" fill="#4D3C5E"/><path d="M26.706 142.364c-3.876-33.114-5.024-53.885-5.018-89.621h.41c-.006 35.72 1.139 56.475 5.015 89.573l-.407.048Z" fill="#4D3C5E"/><path d="M37 142.272H23.123l.094.413h13.691c.032-.139.063-.274.092-.413Z" fill="#4D3C5E"/><path d="M39.31 27.981c-.505-2.468-1.274-4.394-1.722-4.302-.448.091-.4 2.168.107 4.636.505 2.468 1.274 4.394 1.722 4.303.448-.092.4-2.169-.107-4.637Z" fill="#E6E6E6"/><path d="M39.116 28.019c-.441-2.156-1.072-3.846-1.41-3.776-.34.072-.258 1.875.18 4.031.442 2.156 1.07 3.845 1.41 3.776.34-.072.262-1.875-.18-4.031Z" fill="#fff"/><circle cx="30" cy="41" r="10" fill="#262626"/><path d="M22.609 35.348c2.43-3.24 6.087-3.913 9.565-3.478-3.478.435-5.217 1.304-7.826 4.348-2.087 2.434-2.609 5.217-2.609 7.826-.58-1.16-1.464-5.585.87-8.696Z" fill="#fff"/><path d="M37.391 46.652c-2.43 3.24-6.087 3.913-9.565 3.478 3.478-.435 5.217-1.304 7.826-4.348 2.087-2.434 2.609-5.217 2.609-7.826.58 1.16 1.464 5.585-.87 8.696Z" fill="#000"/></svg>