<svg width="163" height="347" fill="none" xmlns="http://www.w3.org/2000/svg"><path d="M96.066 156.863h7.825l-.066 9.771h-7.692l-.067-9.771Z" fill="#33303D"/><path d="M96.662 166.634h-.53l-.066-9.771h7.822l-.066 9.771h-.53c-.101-6.669-6.522-6.669-6.63 0Z" fill="#232730"/><path d="M88.838 103.479c-5.292 21.342-.255 57.598-.255 57.598h9.045l-8.79-57.598Z" fill="#232730"/><path d="M111.591 103.479c5.292 21.342.255 57.598.255 57.598h-9.045l8.79-57.598Z" fill="#E6E6E6"/><path d="m88.839 103.479 8.569 56.161c-5.17-3.048-9.313-12.8-10.915-25.42-.272-10.367.142-21.846 2.346-30.741Z" fill="#33303D"/><path d="M113.54 143.174c-2.328 9.119-6.163 15.564-10.616 17.106l8.667-56.801c2.866 11.568 2.702 27.513 1.949 39.695Z" fill="#F5F5F5"/><path d="M99.944 57.578c6.843 8.479 20.957 44.732 4.223 105.254h-8.45c-15.876-61.547-1.92-96.192 4.227-105.254Z" fill="#fff"/><path opacity=".4" d="M99.944 57.578c.107.133.214.271.328.42 1.665 6.902 1.671 17.565-.36 29.293-2.333 13.459-6.749 24.831-11.322 30.397-1.586-33.697 6.916-53.57 11.354-60.11Z" fill="#CACACA"/><path d="M107.922 75.639c4.889 17.786 7.308 47.184-3.756 87.191h-8.449c-2.104-8.161-3.68-15.842-4.825-23.06 11.64 6.499 21.127-29.331 17.03-64.131Z" fill="#DFDFDF"/><path d="M109.897 84.306c2.895 31.935-6.5 62.982-18.299 59.637a234.04 234.04 0 0 1-.706-4.17c11.637 6.5 21.124-29.334 17.027-64.134a102.617 102.617 0 0 1 1.978 8.667Z" fill="#EBEBEB"/><path d="M99.328 157.714c3.356 0 6.412-4.138 8.689-10.896a238.044 238.044 0 0 1-3.851 16.015h-8.45a266.186 266.186 0 0 1-2.32-9.771c1.775 2.969 3.794 4.652 5.932 4.652Z" fill="#E0E0E0"/><path d="M99.944 57.578c6.843 8.479 20.957 44.732 4.223 105.254h-.145c16.122-60.286 2.523-96.4-4.069-104.844-5.923 9.027-19.368 43.54-4.068 104.844h-.164c-15.88-61.547-1.924-96.192 4.223-105.254Z" fill="#E6E6E6"/><path d="M102.659 161.771h.841v1.318h-1.402l.561-1.318ZM97.378 161.771h-.842v1.317h1.403l-.561-1.317ZM100.517 161.771h.882l.278 1.425h-1.441l.281-1.425ZM98.618 161.771h.883l.28 1.425h-1.443l.28-1.425Z" fill="#232730"/><path d="M89.041 95.306c.01-.1.019-.202.032-.303 4.831-1.043 17.812-.79 22.322.123l.029.303c-4.308-.901-17.756-1.157-22.383-.123Z" fill="#4D3C5E"/><path d="M102.615 158.171c3.037-23.463 3.936-38.179 3.929-63.498h-.321c.006 25.31-.893 40.013-3.93 63.463l.322.035Z" fill="#4D3C5E"/><path d="M94.553 158.105h10.871l-.076.294H94.622a10.082 10.082 0 0 1-.07-.294Z" fill="#4D3C5E"/><path d="M92.74 77.13c.394-1.749 1-3.114 1.35-3.048.35.067.311 1.539-.083 3.285-.394 1.749-1 3.114-1.35 3.047-.353-.066-.315-1.538.082-3.284Z" fill="#E6E6E6"/><path d="M92.89 77.155c.344-1.526.839-2.723 1.104-2.676.264.05.201 1.327-.142 2.856-.344 1.528-.839 2.726-1.103 2.675-.265-.05-.202-1.327.141-2.855Z" fill="#fff"/><path d="M99.942 56.684c3.725 4.614 9.597 18.344 11.487 38.834a89.054 89.054 0 0 0-14.174-1.122c-2.769 0-5.494.126-8.165.369 1.955-19.968 7.537-33.193 10.852-38.081ZM71.761 156.863h-7.824l.066 9.771h7.692l.066-9.771Z" fill="#33303D"/><path d="M71.165 166.634h.53l.066-9.771H63.94l.066 9.771h.53c.104-6.669 6.522-6.669 6.629 0Z" fill="#232730"/><path d="M78.994 103.479c5.292 21.342.255 57.598.255 57.598h-9.045l8.79-57.598Z" fill="#232730"/><path d="M56.239 103.479c-5.293 21.342-.256 57.598-.256 57.598h9.045l-8.79-57.598Z" fill="#E6E6E6"/><path d="m78.994 103.479-8.57 56.161c5.17-3.048 9.314-12.8 10.916-25.42.268-10.367-.145-21.846-2.346-30.741Z" fill="#33303D"/><path d="M54.29 143.174c2.328 9.119 6.163 15.564 10.616 17.106l-8.667-56.801c-2.866 11.568-2.703 27.513-1.949 39.695Z" fill="#F5F5F5"/><path d="M67.884 57.578c-6.843 8.479-20.957 44.732-4.223 105.254h8.45c15.876-61.547 1.92-96.192-4.227-105.254Z" fill="#fff"/><path opacity=".4" d="M67.884 57.58c-.107.132-.214.27-.328.418-1.665 6.903-1.671 17.566.36 29.294 2.334 13.459 6.749 24.831 11.322 30.397 1.586-33.697-6.916-53.57-11.354-60.11Z" fill="#CACACA"/><path d="M59.906 75.639c-4.889 17.786-7.308 47.184 3.756 87.191h8.449c2.104-8.161 3.68-15.842 4.825-23.06-11.64 6.499-21.127-29.331-17.03-64.131Z" fill="#DFDFDF"/><path d="M57.93 84.306c-2.895 31.935 6.5 62.982 18.299 59.637.25-1.405.489-2.799.706-4.17-11.637 6.5-21.124-29.334-17.027-64.134a102.507 102.507 0 0 0-1.978 8.667Z" fill="#EBEBEB"/><path d="M68.5 157.714c-3.359 0-6.411-4.138-8.688-10.896a238.102 238.102 0 0 0 3.85 16.015h8.45c.86-3.338 1.627-6.59 2.32-9.771-1.775 2.969-3.793 4.652-5.932 4.652Z" fill="#E0E0E0"/><path d="M67.884 57.578c-6.843 8.479-20.957 44.732-4.223 105.254h.145c-16.122-60.286-2.523-96.4 4.069-104.844 5.923 9.027 19.368 43.54 4.068 104.844h.164c15.88-61.547 1.924-96.192-4.223-105.254Z" fill="#E6E6E6"/><path d="M65.168 161.771h-.838v1.317h1.403l-.565-1.317ZM70.452 161.771h.841v1.318h-1.402l.56-1.318ZM67.31 161.771h-.88l-.28 1.425h1.44l-.28-1.425ZM69.209 161.771h-.883l-.28 1.425h1.444l-.281-1.425Z" fill="#232730"/><path d="M78.788 95.306c-.01-.1-.019-.202-.031-.303-4.832-1.043-17.813-.79-22.323.123l-.029.303c4.308-.901 17.756-1.157 22.383-.123Z" fill="#4D3C5E"/><path d="M65.214 158.171c-3.037-23.463-3.936-38.179-3.93-63.498h.322c-.006 25.31.892 40.013 3.93 63.463l-.322.035Z" fill="#4D3C5E"/><path d="M73.278 158.105h-10.87l.075.294h10.726c.022-.098.044-.196.07-.294Z" fill="#4D3C5E"/><path d="M75.092 77.13c-.394-1.749-1-3.114-1.35-3.048-.35.067-.312 1.539.082 3.285.394 1.749 1 3.114 1.35 3.047.35-.066.312-1.538-.082-3.284Z" fill="#E6E6E6"/><path d="M74.937 77.155c-.344-1.526-.839-2.723-1.103-2.676-.265.05-.202 1.327.141 2.856.344 1.528.839 2.726 1.104 2.675.264-.05.201-1.327-.142-2.855Z" fill="#fff"/><path d="M67.886 56.684c-3.725 4.614-9.597 18.344-11.487 38.834a89.049 89.049 0 0 1 14.174-1.122c2.769 0 5.494.126 8.165.369-1.955-19.968-7.538-33.193-10.852-38.081Z" fill="#33303D"/><path opacity=".5" d="M102.819 98.597c0-.012 0-.025-.003-.035l-.085-1.229c0-.019-.003-.034-.003-.053a158.708 158.708 0 0 0-.212-2.516 353.058 353.058 0 0 0-.123-1.273c-.082-.782-.167-1.56-.261-2.332-.003-.038-.01-.08-.016-.117-.047-.375-.095-.747-.145-1.119l-.019-.132c-.101-.754-.211-1.498-.325-2.238-.006-.05-.016-.098-.022-.148-.057-.356-.114-.713-.173-1.066-.01-.05-.016-.1-.026-.15a85.141 85.141 0 0 0-.394-2.144c-.009-.054-.022-.104-.031-.158l-.209-1.015-.034-.16a76.943 76.943 0 0 0-.467-2.034c-.013-.047-.022-.094-.035-.141l-.038-1.053c-.003-.063-.006-.126-.006-.192a169.209 169.209 0 0 0-.284-5.273c-.11-1.583-.24-3.133-.388-4.65-.006-.078-.016-.16-.022-.239-.05-.498-.1-.99-.154-1.481-.007-.067-.016-.136-.022-.202-.168-1.5-.35-2.97-.552-4.4-.013-.095-.029-.192-.041-.287a147.533 147.533 0 0 0-.666-4.233c-.006-.044-.016-.085-.022-.13a81.055 81.055 0 0 0-.284-1.563 135.095 135.095 0 0 0-.766-3.832c-.019-.095-.041-.19-.06-.284l-.265-1.191c-.01-.044-.022-.089-.031-.133-.187-.82-.379-1.626-.578-2.417-.006-.029-.015-.06-.022-.088-.091-.372-.186-.738-.28-1.104l-.086-.321c-.29-1.106-.59-2.181-.895-3.228l-.095-.324c-.094-.322-.192-.64-.287-.955a133.133 133.133 0 0 0-.703-2.213c-.016-.044-.029-.091-.044-.136-.095-.286-.193-.573-.287-.854l-.142-.416-.284-.813-.114-.321c-.173-.489-.35-.968-.526-1.438l-.161-.431c-.092-.237-.18-.47-.271-.703-.06-.158-.12-.31-.183-.464-.136-.346-.275-.687-.41-1.024l-.237-.58c-.085-.202-.167-.4-.252-.599l-.212-.492c-.082-.189-.163-.378-.246-.564-.081-.186-.163-.368-.245-.551l-.35-.77c-.092-.195-.18-.39-.272-.582-.072-.158-.148-.313-.22-.467-.086-.18-.17-.356-.256-.53-.07-.138-.136-.28-.205-.419a34.478 34.478 0 0 0-.42-.832c-.06-.116-.12-.23-.176-.343-.098-.186-.192-.372-.29-.552a48.386 48.386 0 0 0-.51-.942 9.058 9.058 0 0 1-.13-.24 138.2 138.2 0 0 0-.43-.76c-.05-.09-.103-.18-.154-.267a38.92 38.92 0 0 0-.309-.527 9.86 9.86 0 0 1-.145-.246c-.142-.236-.284-.466-.423-.693l-.082-.13c-.12-.188-.236-.374-.353-.554a22.663 22.663 0 0 0-.464-.703c-.031-.044-.06-.091-.091-.135a37.43 37.43 0 0 0-.502-.725c-.104-.148-.208-.29-.309-.429-.037-.05-.075-.1-.11-.151-.13-.174-.255-.344-.382-.505-.157.17-.315.347-.476.533-4.28 4.958-10.237 16.027-13.886 32.884a121.446 121.446 0 0 0-.28 1.324l-.014.06c-.157.765-.309 1.544-.457 2.332l-.06.321c-.072.391-.142.785-.211 1.18-.016.097-.035.198-.05.295-.12.7-.237 1.41-.35 2.128l-.086.539c-.056.372-.113.747-.167 1.125-.028.196-.053.391-.082.587-.088.62-.17 1.25-.252 1.884l-.095.744c-.044.356-.085.712-.126 1.072-.038.315-.07.636-.104.955-.01.1-.022.201-.035.302v.01c-.044.42-.085.841-.129 1.267-.032.309-.06.618-.088.93-.032.337-.063.674-.092 1.018-.04.488-.082.98-.12 1.475-.028.375-.053.75-.078 1.128-.026.369-.05.738-.073 1.11l-.057.964c-.034.596-.063 1.195-.091 1.797-.013.296-.026.592-.035.889-.016.422-.032.844-.044 1.27-.006.211-.016.419-.022.633-.047.19-.092.379-.136.568-.01.04-.019.085-.028.126a74.216 74.216 0 0 0-.603 2.808c-.006.038-.015.073-.022.11a88.081 88.081 0 0 0-.77 4.542l-.002.035c-.073.504-.142 1.009-.209 1.52l-.009.078c-.066.501-.126 1.002-.186 1.507l-.01.078c-.06.511-.116 1.028-.167 1.545 0 .016-.003.028-.003.044-2.7 26.407 2.36 58.297 2.36 58.297h10.079l-1.135 6.79.444.056 1.533-5.484c.091.293.18.583.274.876h.694l-.798 4.848H89.655l-.798-4.848h.798c.104-.356.202-.706.306-1.062l1.864 5.61.445-.075-1.464-6.714h9.257c-.025.01 4.425-28.011 2.756-53.27Z" fill="#654A91"/><path d="m91.106 153.509-.388.082-3.71-14.123.55-6.525 3.548 20.566ZM76.064 153.592l.392.063 3.156-14.291-.804-6.493-2.744 20.721ZM87.765 145.835h-8.767l-1.054 8.085H88.82l-1.054-8.085Z" fill="#33303D"/><path d="M88.069 153.92h.75l-1.053-8.085H79l-1.05 8.085h.75c.145-5.516 9.222-5.516 9.37 0Z" fill="#232730"/><path d="M97.602 64.787c6.752 30.123.328 81.294.328 81.294H86.384l11.218-81.294ZM68.562 64.787c-6.752 30.123-.328 81.294-.328 81.294H79.78L68.562 64.787Z" fill="#E6E6E6"/><path d="m97.602 64.787-10.938 79.264c6.598-4.299 11.89-18.064 13.934-35.875.344-14.634-.183-30.838-2.996-43.389ZM66.073 120.812c2.971 12.872 7.866 21.966 13.55 24.144L68.557 64.787c-3.658 16.327-3.447 38.831-2.485 56.025Z" fill="#F5F5F5"/><path d="M83.425 0c-8.736 11.968-26.751 63.136-5.39 148.555h10.783C109.084 61.692 91.275 12.793 83.425 0Z" fill="#fff"/><path opacity=".4" d="M83.426 0a30.1 30.1 0 0 0-.416.59c-2.126 9.742-2.135 24.792.46 41.343 2.981 18.996 8.617 35.046 14.455 42.903C99.943 37.281 89.09 9.232 83.426 0Z" fill="#CACACA"/><path d="M73.242 25.492c-6.238 25.102-9.326 66.597 4.794 123.063h10.783c2.687-11.517 4.7-22.36 6.16-32.544-14.855 9.169-26.966-41.403-21.737-90.519Z" fill="#DFDFDF"/><path d="M70.722 37.725c-3.696 45.072 8.298 88.89 23.354 84.171.319-1.982.622-3.949.9-5.887-14.855 9.172-26.963-41.4-21.734-90.52a161.302 161.302 0 0 0-2.52 12.236Z" fill="#EBEBEB"/><path d="M84.211 141.334c-4.286 0-8.184-5.84-11.089-15.381a367.872 367.872 0 0 0 4.914 22.602h10.783a409.086 409.086 0 0 0 2.961-13.789c-2.261 4.192-4.838 6.568-7.569 6.568Z" fill="#E0E0E0"/><path d="M83.425 0c-8.736 11.968-26.751 63.136-5.39 148.555h.183C57.642 63.466 74.998 12.497 83.412.577c7.56 12.743 24.72 61.452 5.194 147.978h.212C109.084 61.692 91.275 12.793 83.425 0Z" fill="#E6E6E6"/><path d="M79.962 147.061h-1.075v1.856h1.791l-.716-1.856ZM86.702 147.062h1.076v1.856h-1.792l.716-1.856ZM82.694 147.061h-1.126l-.356 2.01h1.842l-.36-2.01ZM85.12 147.061h-1.126l-.36 2.01h1.843l-.357-2.01Z" fill="#232730"/><path d="m97.343 53.248-.038-.428c-6.166-1.473-22.736-1.116-28.492.173l-.038.425c5.497-1.267 22.664-1.626 28.568-.17Z" fill="#4D3C5E"/><path d="M80.017 141.977c-3.876-33.113-5.024-53.884-5.018-89.62h.41c-.006 35.72 1.139 56.475 5.015 89.573l-.407.047Z" fill="#4D3C5E"/><path d="M90.31 141.886H76.434l.094.413H90.22c.032-.139.063-.275.092-.413Z" fill="#4D3C5E"/><path d="M92.62 27.595c-.504-2.468-1.273-4.394-1.721-4.303-.448.092-.4 2.169.107 4.637.505 2.468 1.274 4.393 1.722 4.302.448-.091.4-2.169-.107-4.637Z" fill="#E6E6E6"/><path d="M92.427 27.633c-.442-2.156-1.073-3.846-1.41-3.776-.34.072-.258 1.875.18 4.03.441 2.157 1.069 3.846 1.41 3.777.34-.073.261-1.876-.18-4.032Z" fill="#fff"/><circle cx="83.311" cy="40.613" r="10" fill="#262626"/><path d="M75.92 34.961c2.43-3.24 6.086-3.913 9.564-3.478-3.478.435-5.217 1.305-7.825 4.348-2.088 2.435-2.61 5.217-2.61 7.826-.579-1.16-1.463-5.585.87-8.696Z" fill="#fff"/><path d="M90.702 46.265c-2.43 3.241-6.087 3.913-9.565 3.479 3.478-.435 5.217-1.305 7.826-4.348 2.087-2.435 2.608-5.218 2.608-7.826.58 1.16 1.464 5.584-.869 8.695Z" fill="#000"/></svg>