<svg width="455" height="247" viewBox="0 0 455 247" fill="none" xmlns="http://www.w3.org/2000/svg">
<g opacity="0.01">
<path d="M97.6135 115.869C127.997 107.404 158.174 98.5422 188.241 89.4685C203.299 84.9816 218.295 80.3736 233.285 75.7566L255.773 68.8371L278.198 61.7965C308.139 52.4867 337.901 42.8319 367.717 33.28C382.617 28.4905 397.383 23.4436 411.919 17.9609C426.455 12.4751 440.838 6.70186 454.737 -0.000658078C441.379 7.72795 428.504 16.3858 415.782 25.3312C403.063 34.2796 390.568 43.6639 378.211 53.3054C353.511 72.6158 328.754 91.8232 304.179 111.376L285.716 125.98L267.319 140.709C255.051 150.523 242.789 160.346 230.59 170.291C206.137 190.079 181.802 210.083 157.67 230.477C129.535 254.255 87.6256 250.867 64.0582 222.917C40.4909 194.963 44.1964 153.03 72.328 129.252C79.8665 122.886 88.7151 118.391 97.6135 115.869Z" fill="#008CFF"/>
</g>
<g opacity="0.01">
<path d="M98.472 117.511C128.766 108.873 158.859 99.8536 188.845 90.6286C203.862 86.063 218.819 81.3824 233.771 76.6897L256.202 69.6582L278.57 62.5086C308.434 53.0505 338.124 43.2625 367.868 33.5714C382.732 28.7122 397.465 23.6017 411.977 18.0706C426.486 12.5364 440.852 6.72072 454.742 0.00305382C441.375 7.71655 428.479 16.3351 415.73 25.229C402.984 34.129 390.46 43.4498 378.063 53.0217C353.288 72.1929 328.463 91.2642 303.81 110.668L285.29 125.164L266.833 139.781C254.526 149.519 242.226 159.27 229.985 169.135C205.455 188.77 181.032 208.616 156.81 228.84C129.378 251.746 88.7413 248.219 66.041 220.961C43.3407 193.703 47.1797 153.041 74.6089 130.135C81.7509 124.182 90.0951 119.941 98.472 117.511Z" fill="#008CFF"/>
</g>
<g opacity="0.01">
<path d="M99.3307 119.152C129.535 110.345 159.548 101.168 189.453 91.7885C204.431 87.1442 219.35 82.391 234.262 77.6226L256.634 70.4821L278.945 63.2235C308.734 53.6201 338.353 43.6929 368.022 33.8625C382.851 28.9337 397.551 23.7627 412.036 18.1831C426.518 12.5974 440.863 6.74241 454.744 0.0126148C441.368 7.71099 428.452 16.2872 415.679 25.1327C402.906 33.9843 390.348 43.2445 377.919 52.7469C353.072 71.7789 328.175 90.714 303.444 109.973L284.871 124.363L266.357 138.868C254.011 148.533 241.671 158.208 229.388 167.995C204.778 187.478 180.272 207.161 155.96 227.216C129.236 249.259 89.8659 245.603 68.0236 219.047C46.1813 192.491 50.1355 153.095 76.8593 131.052C83.5989 125.486 91.46 121.488 99.3307 119.152Z" fill="#008CFF"/>
</g>
<g opacity="0.01">
<path d="M100.189 120.793C130.303 111.816 160.233 102.479 190.058 92.9456C204.994 88.2226 219.873 83.3937 234.747 78.5526L257.062 71.3001L279.317 63.9356C309.028 54.1869 338.575 44.1234 368.17 34.1538C382.957 29.1493 397.639 23.9389 412.079 18.2776C426.556 12.6768 440.861 6.75519 454.74 0.0162986C441.36 7.70864 428.411 16.2182 415.626 25.0487C402.811 33.8186 390.233 43.0395 377.761 52.4662C352.84 71.359 327.871 90.158 303.066 109.269L284.435 123.55L265.862 137.942C253.477 147.533 241.098 157.135 228.777 166.843C204.085 186.172 179.496 205.697 155.097 225.583C129.088 246.777 90.9837 243.006 69.9842 217.158C48.9847 191.31 53.0451 153.179 79.0545 131.984C85.4191 126.797 92.8062 123.032 100.189 120.793Z" fill="#008CFF"/>
</g>
<g opacity="0.01">
<path d="M101.047 122.435C131.075 113.285 160.918 103.791 190.662 94.1058C205.557 89.3072 220.398 84.4025 235.232 79.4858L257.488 72.1213L279.686 64.6478C309.32 54.7508 338.798 44.5541 368.318 34.4421C383.069 29.368 397.716 24.0941 412.135 18.3843C426.584 12.7321 440.869 6.77108 454.742 0.0170396C441.353 7.69427 428.383 16.1645 415.574 24.9435C402.733 33.662 390.124 42.8224 377.617 52.1795C352.624 70.9332 327.583 89.596 302.7 108.561L284.013 122.733L265.382 137.014C252.959 146.532 240.541 156.058 228.178 165.688C203.405 184.865 178.735 204.23 154.244 223.944C128.958 244.299 92.1079 240.427 71.942 215.296C51.7761 190.165 55.9277 153.287 81.2137 132.932C87.2337 128.09 94.1014 124.574 101.047 122.435Z" fill="#008CFF"/>
</g>
<g opacity="0.01">
<path d="M101.906 124.076C131.844 114.757 161.604 105.102 191.27 95.2629C206.126 90.3855 220.925 85.4052 235.721 80.4189L257.919 72.9424L280.061 65.3599C309.62 55.3176 339.024 44.9816 368.472 34.7334C383.188 29.5897 397.801 24.2552 412.194 18.494C426.616 12.7902 440.88 6.78988 454.744 0.0206908C441.35 7.68281 428.355 16.1138 415.52 24.8413C402.654 33.5114 390.009 42.6082 377.466 51.8958C352.398 70.5072 327.286 89.0339 302.328 107.854L283.584 121.92L264.894 136.089C252.431 145.531 239.975 154.985 227.569 164.536C202.717 183.559 177.962 202.767 153.381 222.31C128.822 241.839 93.2289 237.881 73.8816 213.467C54.5372 189.056 58.7648 153.432 83.3275 133.903C88.9847 129.416 95.4178 126.121 101.906 124.076Z" fill="#008CFF"/>
</g>
<g opacity="0.0116">
<path d="M102.767 125.718C132.616 116.229 162.292 106.414 191.878 96.4229C206.692 91.4668 221.455 86.4139 236.212 81.3518L258.351 73.7633L280.436 66.0749C309.917 55.8872 339.249 45.415 368.626 35.0246C375.969 32.4255 383.279 29.7598 390.556 27.0396C397.797 24.2437 405.074 21.5204 412.252 18.6065C426.648 12.8544 440.891 6.8116 454.749 0.0272598C441.345 7.67426 428.333 16.0659 415.468 24.742C409.018 29.0453 402.665 33.5362 396.278 37.9575C389.927 42.4515 383.607 46.9999 377.322 51.618C352.182 70.0902 326.997 88.4807 301.962 107.156L283.161 121.113L264.414 135.173C251.913 144.542 239.417 153.917 226.97 163.396C202.036 182.267 177.198 201.315 152.531 220.686C128.703 239.4 94.3585 235.369 75.8235 211.684C57.2885 187.999 61.5801 153.625 85.4104 134.911C90.7021 130.748 96.7219 127.662 102.767 125.718Z" fill="#008CFF"/>
</g>
<g opacity="0.0116">
<path d="M103.625 127.359C118.519 122.557 133.319 117.574 148.124 112.603L170.337 105.156L192.485 97.583C207.257 92.5482 221.981 87.4225 236.7 82.2848L258.782 74.5843L280.81 66.7869C310.217 56.4509 339.477 45.8425 368.78 35.3158C376.104 32.6834 383.396 29.9843 390.658 27.2308C397.885 24.4077 405.147 21.6512 412.313 18.7161C426.682 12.9124 440.907 6.83031 454.753 0.0308204C441.344 7.66271 428.308 16.012 415.418 24.6397C408.954 28.9188 402.588 33.3794 396.183 37.7705C389.818 42.2342 383.479 46.7493 377.176 51.3341C351.962 69.6672 326.708 87.9215 301.595 106.448L282.737 120.296L263.93 134.244C251.39 143.538 238.856 152.841 226.37 162.24L207.629 176.316L188.953 190.515C176.5 199.975 164.04 209.423 151.677 219.05C128.614 237.012 95.4957 232.986 77.7092 210.061C59.9198 187.136 64.1967 153.987 87.2588 136.028C92.2549 132.128 97.9345 129.215 103.625 127.359Z" fill="#008CFF"/>
</g>
<g opacity="0.0145">
<path d="M104.483 129.001C119.333 124.111 134.091 119.049 148.854 113.996L171.005 106.429L193.09 98.7401C207.823 93.6296 222.506 88.4253 237.185 83.2149L259.208 75.4024L281.179 67.496C310.508 57.0147 339.697 46.2701 368.928 35.6011C376.235 32.9323 383.509 30.203 390.756 27.4193C397.967 24.5689 405.211 21.7821 412.366 18.8227C426.708 12.9676 440.909 6.84615 454.752 0.0315038C441.334 7.64828 428.277 15.9582 415.36 24.5345C408.884 28.7894 402.5 33.2198 396.084 37.5836C389.7 42.017 383.346 46.5019 377.023 51.0474C351.736 69.2412 326.408 87.3594 301.22 105.741L282.306 119.483L263.439 133.319C250.86 142.54 238.284 151.767 225.759 161.088L206.958 175.045L188.219 189.124C175.724 198.502 163.223 207.872 150.811 217.413C128.49 234.579 96.6162 230.504 79.6179 208.314C62.6195 186.124 66.9362 154.22 89.2571 137.054C93.9239 133.473 99.2085 130.76 104.483 129.001Z" fill="#008CFF"/>
</g>
<g opacity="0.0145">
<path d="M105.342 130.641C120.147 125.667 134.859 120.523 149.581 115.391L171.666 107.703L193.691 99.8963C208.383 94.7071 223.027 89.4302 237.667 84.1441L259.63 76.2195L281.545 68.2042C310.796 57.5775 339.917 46.6936 369.073 35.8884C376.362 33.1864 383.588 30.3602 390.847 27.6037C398.049 24.7321 405.276 21.912 412.418 18.9284C426.733 13.0249 440.917 6.86099 454.748 0.0312006C441.32 7.63286 428.242 15.9035 415.302 24.4283C408.814 28.662 402.412 33.0561 395.984 37.3988C389.615 41.8564 383.211 46.2475 376.869 50.7627C351.511 68.8174 326.111 86.7994 300.845 105.036L281.874 118.669L262.95 132.393C250.332 141.539 237.717 150.693 225.15 159.935L206.289 173.777L187.488 187.735C174.951 197.034 162.408 206.322 149.951 215.779C128.378 232.16 97.7423 228.051 81.526 206.602C65.3066 185.153 69.648 154.488 91.2215 138.11C95.5593 134.822 100.464 132.303 105.342 130.641Z" fill="#008CFF"/>
</g>
<g opacity="0.0174">
<path d="M106.2 132.281C120.957 127.222 135.631 121.997 150.31 116.786L172.333 108.977L194.298 101.055C208.948 95.7875 223.556 90.4378 238.158 85.076C252.775 79.7476 267.359 74.3495 281.922 68.9182C311.099 58.1432 340.145 47.1261 369.229 36.1786C376.5 33.4432 383.709 30.5868 390.953 27.7969C398.14 24.8981 405.349 22.0447 412.479 19.04C426.771 13.0849 440.93 6.88169 454.753 0.0367404C441.319 7.62631 428.22 15.8515 415.249 24.328C408.749 28.5375 402.33 32.9013 395.886 37.2167C389.5 41.6411 383.08 46.0019 376.721 50.4808C351.288 68.3963 325.816 86.2422 300.476 104.33C287.783 113.33 275.105 122.367 262.464 131.467C249.807 140.536 237.153 149.618 224.544 158.782L205.621 172.509L186.757 186.345C174.178 195.563 161.593 204.772 149.091 214.145C128.274 229.75 98.8709 225.622 83.4214 204.924C67.9719 184.225 72.3228 154.792 93.1401 139.187C97.1671 136.178 101.704 133.843 106.2 132.281Z" fill="#008CFF"/>
</g>
<g opacity="0.0174">
<path d="M107.058 133.92C121.771 128.773 136.403 123.469 151.04 118.177L173 110.246L194.903 102.21C209.514 96.8629 224.08 91.4375 238.644 86.0031C253.222 80.599 267.767 75.1283 282.294 69.6273C311.394 58.707 340.371 47.5506 369.381 36.4669C376.634 33.6952 383.827 30.8115 391.054 27.9883C398.226 25.0623 405.419 22.1786 412.538 19.1466C426.803 13.1401 440.942 6.89749 454.758 0.0373873C441.315 7.61184 428.195 15.7977 415.201 24.2228C408.689 28.408 402.254 32.7416 395.796 37.0298C389.391 41.4239 382.957 45.7545 376.579 50.1971C351.074 67.9734 325.531 85.6831 300.113 103.626C287.381 112.556 274.668 121.517 261.987 130.545C249.292 139.542 236.599 148.548 223.951 157.633L204.968 171.242L186.041 184.96C173.42 194.1 160.793 203.227 148.247 212.511C128.189 227.357 100.018 223.222 85.3232 203.277C70.6285 183.332 74.9768 155.131 95.0349 140.285C98.7421 137.543 102.93 135.388 107.058 133.92Z" fill="#008CFF"/>
</g>
<g opacity="0.0203">
<path d="M107.916 135.562C122.584 130.33 137.174 124.947 151.77 119.573C166.375 114.22 180.969 108.843 195.511 103.37L239.132 86.9363C253.671 81.4564 268.178 75.913 282.666 70.3394C311.688 59.2738 340.593 47.9812 369.532 36.7551C376.767 33.9502 383.945 31.0332 391.154 28.1767C398.311 25.2204 405.49 22.3064 412.594 19.2532C426.831 13.1983 440.949 6.91327 454.757 0.0380162C441.308 7.59736 428.164 15.7439 415.143 24.1175C408.619 28.2786 402.166 32.5819 395.693 36.8429C389.273 41.2037 382.821 45.504 376.425 49.9133C350.846 67.5504 325.233 85.1209 299.738 102.918C286.967 111.776 274.215 120.668 261.495 129.616L223.34 156.478C210.623 165.435 197.957 174.49 185.304 183.569C172.641 192.63 159.972 201.678 147.381 210.875C128.091 224.969 101.144 220.843 87.1944 201.66C73.2452 182.477 77.5759 155.5 96.8657 141.406C100.287 138.915 104.137 136.932 107.916 135.562Z" fill="#008CFF"/>
</g>
<g opacity="0.0203">
<path d="M108.775 137.203C123.398 131.883 137.946 126.422 152.5 120.969C167.064 115.535 181.615 110.079 196.118 104.529L239.62 87.869C254.121 82.3135 268.588 76.6974 283.041 71.0541C311.985 59.8402 340.819 48.4144 369.686 37.0491C376.903 34.2078 384.063 31.2635 391.257 28.3738C398.4 25.3902 405.56 22.4459 412.655 19.3685C426.866 13.2621 440.963 6.93773 454.764 0.0503541C441.307 7.59458 428.145 15.6988 415.097 24.024C408.56 28.1608 402.093 32.4339 395.605 36.6646C389.167 40.9922 382.7 45.2622 376.286 49.6382C350.635 67.1361 324.948 84.5705 299.377 102.223C286.571 111.011 273.78 119.827 261.021 128.703L222.746 155.337C209.991 164.219 197.283 173.195 184.584 182.189C171.88 191.168 159.169 200.138 146.533 209.25C128.015 222.605 102.29 218.502 89.0743 200.085C75.8585 181.668 80.1564 155.913 98.6751 142.559C101.801 140.295 105.329 138.479 108.775 137.203Z" fill="#008CFF"/>
</g>
<g opacity="0.0232">
<path d="M109.635 138.844C124.214 133.44 138.72 127.897 153.233 122.365L175.005 114.074L196.708 105.65L240.093 88.7688L261.781 80.3205L283.415 71.7663C312.285 60.407 341.047 48.8419 369.839 37.3373L391.36 28.5651C398.488 25.5543 405.633 22.5798 412.713 19.4751C426.897 13.3172 440.973 6.95349 454.766 0.0509575C441.299 7.58007 428.116 15.645 415.041 23.9217C408.49 28.0344 402.008 32.2772 395.505 36.4807L376.135 49.3544C350.409 66.7132 324.653 84.0114 299.005 101.515L279.749 114.607L260.55 127.805L222.158 154.218L202.971 167.443L183.853 180.798C171.106 189.698 158.354 198.587 145.673 207.611C127.932 220.239 103.424 216.171 90.9295 198.526C78.435 180.883 82.6881 156.343 100.43 143.715C103.284 141.685 106.502 140.027 109.635 138.844Z" fill="#008CFF"/>
</g>
<g opacity="0.0232">
<path d="M110.494 140.485C125.028 134.993 139.492 129.371 153.963 123.757L175.672 115.345L197.316 106.809L240.584 89.7008L262.213 81.1404L283.79 72.4772C312.583 60.9726 341.273 49.2713 369.993 37.6274L391.46 28.7584C398.573 25.7172 405.704 22.7155 412.772 19.5866C426.929 13.3802 440.985 6.97411 454.771 0.0564294C441.298 7.57043 428.092 15.596 414.992 23.8213C408.429 27.9098 401.932 32.1223 395.414 36.2986L375.994 49.0755C350.196 66.2951 324.365 83.4571 298.642 100.816L279.329 113.802L260.071 126.887L221.559 153.074L202.312 166.184L183.131 179.418C170.343 188.236 157.548 197.046 144.82 205.986C127.864 217.895 104.567 213.882 92.782 197.017C80.9966 180.152 85.1898 156.826 102.145 144.913C104.738 143.083 107.664 141.573 110.494 140.485Z" fill="#008CFF"/>
</g>
<g opacity="0.0261">
<path d="M111.352 142.126C125.841 136.549 140.264 130.846 154.69 125.154L176.336 116.621L197.92 107.97L241.069 90.6339L262.641 81.9585L284.162 73.1893C312.879 61.5364 341.495 49.6988 370.144 37.9157L391.56 28.9467C398.658 25.8783 405.774 22.8433 412.827 19.6932C426.961 13.4353 440.992 6.98985 454.77 0.0570101C441.288 7.5559 428.06 15.5421 414.934 23.716C408.359 27.7803 401.844 31.9626 395.314 36.1086L375.843 48.7887C349.97 65.869 324.07 82.8949 298.269 100.105L278.9 112.982L259.581 125.956L220.953 151.916L201.647 164.91L182.403 178.023C169.572 186.763 156.736 195.491 143.963 204.346C127.796 215.553 105.707 211.602 94.6218 195.521C83.5364 179.44 87.6545 157.322 103.821 146.115C106.161 144.491 108.808 143.124 111.352 142.126Z" fill="#008CFF"/>
</g>
<g opacity="0.0261">
<path d="M112.21 143.768C126.654 138.103 141.035 132.323 155.419 126.55L177 117.896L198.524 109.13L241.554 91.5668L263.066 82.7794L284.53 73.9012C313.17 62.1029 341.717 50.1291 370.291 38.2067L391.657 29.1409C398.74 26.0422 405.838 22.9799 412.882 19.8056C426.989 13.4963 440.999 7.01142 454.771 0.0634316C441.28 7.54721 428.034 15.4911 414.878 23.6166C408.291 27.6566 401.761 31.8087 395.213 35.9274L375.688 48.5047C349.744 65.4458 323.772 82.3355 297.891 99.4008L278.464 112.169L259.086 125.027L220.338 150.76L200.971 163.643L181.665 176.638C168.79 185.296 155.915 193.945 143.096 202.716C127.728 213.228 106.84 209.359 96.4427 194.071C86.0451 178.783 90.0731 157.866 105.441 147.353C107.553 145.908 109.935 144.677 112.21 143.768Z" fill="#008CFF"/>
</g>
<g opacity="0.029">
<path d="M113.068 145.409C127.465 139.66 141.807 133.799 156.149 127.943L177.668 119.168L199.132 110.287L242.043 92.4969L263.495 83.5945L284.885 74.574L370.44 38.4889L391.758 29.3322C398.826 26.2063 405.909 23.1107 412.938 19.9121C427.018 13.5544 441.007 7.02713 454.77 0.0639847C441.273 7.53264 428.004 15.4372 414.824 23.5113C408.222 27.5271 401.677 31.6489 395.114 35.7404L375.541 48.2299L297.54 98.7357L278.039 111.361L258.6 124.105L219.733 149.611L200.307 162.379L180.937 175.253C168.02 183.832 155.1 192.403 142.24 201.082C127.673 210.913 107.983 207.137 98.2615 192.645C88.5396 178.152 92.4654 158.435 107.032 148.604C108.919 147.331 111.046 146.231 113.068 145.409Z" fill="#008CFF"/>
</g>
<g opacity="0.029">
<path d="M113.926 147.05C128.277 141.213 142.575 135.272 156.879 129.339C171.188 123.423 185.489 117.483 199.739 111.449L242.53 93.432L263.923 84.4145L285.256 75.288L370.59 38.7791L391.857 29.5225C398.911 26.3693 405.979 23.2434 412.996 20.0206C427.049 13.6114 441.018 7.04478 454.774 0.0664788C441.269 7.52003 427.978 15.3853 414.771 23.4079C408.157 27.3995 401.597 31.4911 395.019 35.5523L375.395 47.945L297.173 98.0241L277.618 110.544L258.12 123.176L219.133 148.454C206.123 156.852 193.161 165.344 180.211 173.86C167.252 182.358 154.29 190.85 141.385 199.445C127.628 208.606 109.131 204.938 100.073 191.251C91.0145 177.563 94.8229 159.042 108.58 149.878C110.25 148.769 112.143 147.789 113.926 147.05Z" fill="#008CFF"/>
</g>
<g opacity="0.0319">
<path d="M114.784 148.691C129.091 142.769 143.347 136.747 157.608 130.735C171.876 124.737 186.135 118.718 200.343 112.612L243.018 94.3678L264.351 85.2383L285.63 76.0059L370.744 39.0731L391.961 29.7195C398.999 26.5361 406.052 23.3829 413.054 20.1359C427.098 13.7085 441.001 7.01477 454.776 0.0757951C441.291 7.56872 427.935 15.3068 414.719 23.3113C408.093 27.2788 401.515 31.34 394.922 35.3741L375.247 47.6669L296.8 97.3224L277.189 109.736L257.631 122.256L218.524 147.308C205.475 155.633 192.471 164.046 179.48 172.478C166.479 180.897 153.475 189.307 140.525 197.817C127.581 206.321 110.276 202.773 101.869 189.894C93.4624 177.015 97.1414 159.684 110.085 151.18C111.555 150.213 113.223 149.349 114.784 148.691Z" fill="#008CFF"/>
</g>
<g opacity="0.0319">
<path d="M115.645 150.333L158.341 132.131C172.567 126.052 186.781 119.954 200.953 113.772L243.509 95.3011L264.782 86.0596L286.005 76.7211L370.895 39.3614L392.057 29.908C399.081 26.6973 406.116 23.5108 413.109 20.2396C427.126 13.7607 441.009 7.0306 454.775 0.073449C441.281 7.54823 427.903 15.25 414.66 23.2031C408.023 27.1463 401.43 31.1773 394.822 35.1841L375.096 47.3801L296.428 96.612L276.762 108.92L257.147 121.325L217.924 146.15C204.836 154.399 191.791 162.734 178.757 171.086L139.671 196.178C127.519 203.979 111.419 200.5 103.712 188.41C96.002 176.318 99.6029 160.192 111.751 152.394C112.968 151.612 114.36 150.891 115.645 150.333Z" fill="#008CFF"/>
</g>
<g opacity="0.0348">
<path d="M116.503 151.973L159.071 133.523C173.255 127.362 187.427 121.186 201.561 114.928L243.997 96.2302L265.21 86.8736L286.376 77.4292L371.045 39.6456L392.157 30.0952C399.166 26.8573 406.186 23.6406 413.165 20.3451C427.152 13.8148 441.019 7.0483 454.776 0.0729679C441.273 7.52961 427.878 15.1951 414.608 23.0967C407.958 27.0188 401.347 31.0196 394.727 34.9961L374.951 47.0952L296.061 95.9035L276.339 108.106L256.664 120.398L217.321 144.996C204.195 153.173 191.107 161.426 178.032 169.697L138.817 194.543C127.496 201.717 112.576 198.398 105.487 187.132C98.3977 175.865 101.83 160.92 113.151 153.747C114.194 153.086 115.4 152.458 116.503 151.973Z" fill="#008CFF"/>
</g>
<g opacity="0.0348">
<path d="M117.361 153.615L159.797 134.919C173.937 128.677 188.07 122.419 202.165 116.091C230.357 103.439 258.63 90.9414 286.751 78.147L371.199 39.9395L392.26 30.2923L413.226 20.4604C427.186 13.8755 441.036 7.07576 454.781 0.0822393C441.266 7.52074 427.856 15.153 414.556 23.0001L394.63 34.8148L374.8 46.811L295.686 95.1957C269.284 111.265 243.037 127.629 216.709 143.844C203.544 151.945 190.414 160.119 177.297 168.311L137.953 192.912C127.47 199.468 113.72 196.324 107.243 185.89C100.766 175.456 104.014 161.683 114.498 155.127C115.392 154.57 116.425 154.033 117.361 153.615Z" fill="#008CFF"/>
</g>
<g opacity="0.0377">
<path d="M118.219 155.256L160.527 136.316L202.772 117.251C230.887 104.451 259.076 91.7928 287.122 78.8621L371.347 40.2307C385.37 33.7669 399.366 27.2486 413.272 20.5578L434.104 10.4686C440.996 7.00966 447.936 3.63549 454.78 0.082714C447.995 3.74749 441.301 7.58784 434.564 11.3465L414.504 22.9068C401.15 30.6481 387.886 38.5619 374.649 46.5301L295.313 94.4911C268.839 110.425 242.509 126.628 216.103 142.691L176.565 166.923L137.093 191.279C127.453 197.228 114.873 194.271 108.996 184.676C103.119 175.08 106.171 162.479 115.812 156.529C116.563 156.066 117.438 155.611 118.219 155.256Z" fill="#008CFF"/>
</g>
<g opacity="0.0377">
<path d="M119.077 156.894C147.174 144.057 175.346 131.362 203.38 118.408C231.417 105.459 259.523 92.6371 287.497 79.5702L371.501 40.5149C385.488 33.9815 399.452 27.4026 413.334 20.6633L434.13 10.5075C441.016 7.0334 447.941 3.63803 454.785 0.0822187C447.997 3.74095 441.294 7.56315 434.548 11.3036L414.455 22.7974C401.074 30.4903 387.777 38.3435 374.504 46.2422L294.944 93.7796C268.398 109.577 241.984 125.619 215.501 141.535C189.015 157.444 162.666 173.614 136.239 189.641C127.439 194.979 116.03 192.205 110.755 183.442C105.484 174.682 108.344 163.253 117.147 157.912C117.746 157.555 118.457 157.185 119.077 156.894Z" fill="#008CFF"/>
</g>
<g opacity="0.0406">
<path d="M119.935 158.534C147.949 145.537 176.028 132.67 203.984 119.567C231.944 106.469 259.966 93.4873 287.869 80.2841L371.649 40.8049C399.504 27.5049 427.386 14.2533 454.783 0.0875539C427.664 14.7861 401.022 30.3988 374.353 45.9631L294.572 93.0768C267.954 108.738 241.453 124.62 214.895 140.387C188.331 156.148 161.889 172.146 135.382 188.013C127.436 192.768 117.186 190.212 112.49 182.303C107.794 174.393 110.427 164.123 118.373 159.368C118.878 159.062 119.413 158.78 119.935 158.534Z" fill="#008CFF"/>
</g>
<g opacity="0.0406">
<path d="M120.793 160.176C148.723 147.018 176.712 133.978 204.591 120.727L288.243 80.9991L371.802 41.096C399.592 27.6688 427.402 14.287 454.785 0.0909232C427.647 14.7592 400.937 30.2419 374.205 45.6791L294.202 92.3691L214.289 139.235C187.647 154.848 161.116 170.672 134.522 186.379C127.437 190.565 118.341 188.238 114.209 181.185C110.076 174.132 112.471 165.019 119.556 160.834C119.957 160.594 120.383 160.37 120.793 160.176Z" fill="#008CFF"/>
</g>
<g opacity="0.0435">
<path d="M121.654 161.816L205.202 121.886L288.621 81.7101L371.959 41.383C399.677 27.8317 427.419 14.3197 454.787 0.0933081C427.634 14.7314 400.855 30.0839 374.054 45.394L293.827 91.6605L213.68 138.078L133.665 184.741C127.447 188.366 119.503 186.288 115.922 180.097C112.34 173.907 114.482 165.948 120.7 162.32C121.007 162.144 121.341 161.968 121.654 161.816Z" fill="#008CFF"/>
</g>
<g opacity="0.0435">
<path d="M122.512 163.458C150.268 149.973 178.094 136.615 205.794 123.025L288.95 82.3493L372.107 41.674C399.765 28.0015 427.438 14.3533 454.791 0.0995946C427.623 14.7105 400.772 29.9268 373.912 45.1189L293.498 91.0313L213.088 136.947C186.267 152.218 159.571 167.728 132.807 183.107C127.459 186.181 120.661 184.356 117.631 179.031C114.597 173.706 116.474 166.895 121.822 163.822C122.041 163.697 122.287 163.567 122.512 163.458Z" fill="#008CFF"/>
</g>
<g opacity="0.0465">
<path d="M123.369 165.099L206.404 124.187L289.33 83.0727L372.257 41.9582C399.85 28.1586 427.454 14.3801 454.792 0.0960987C427.609 14.6768 400.689 29.763 373.76 44.828L293.123 90.3077L212.482 135.79L131.949 181.473C127.48 184.01 121.825 182.457 119.325 178.004C116.821 173.551 118.417 167.887 122.889 165.353C123.038 165.268 123.214 165.174 123.369 165.099Z" fill="#008CFF"/>
</g>
<path d="M124.225 166.736L207.01 125.351L289.708 83.8034L372.407 42.2556C399.937 28.3296 427.47 14.4218 454.794 0.108412C427.596 14.6579 400.606 29.6131 373.611 44.5501L292.742 89.5912L211.872 134.632L131.089 179.834C127.502 181.84 122.986 180.574 121.007 176.999C119.027 173.427 120.327 168.903 123.918 166.896C124.009 166.845 124.13 166.784 124.225 166.736Z" fill="#008CFF"/>
<path d="M125.205 168.61L290.142 84.6336L372.581 42.5862L413.723 21.4126L434.289 10.8182L454.796 0.111868L434.409 11.0513L414.084 22.1058L373.442 44.2268L292.312 88.7686L130.109 177.967C127.537 179.383 124.318 178.452 122.922 175.891C121.526 173.33 122.481 170.105 125.053 168.689C125.098 168.668 125.162 168.635 125.205 168.61Z" fill="#229BFF"/>
<path d="M126.185 170.484L290.564 85.4387L372.752 42.9157L413.796 21.5544L454.797 0.114335L414.014 21.9691L373.272 43.9026L291.891 87.9694L129.129 176.1C127.578 176.939 125.653 176.368 124.825 174.824C123.997 173.281 124.583 171.351 126.133 170.512C126.145 170.506 126.173 170.494 126.185 170.484Z" fill="#44ABFF"/>
<path d="M127.165 172.363L454.799 0.117768L128.148 174.233C127.629 174.509 126.988 174.316 126.716 173.798C126.444 173.283 126.642 172.638 127.162 172.363L127.165 172.363Z" fill="#66BAFF"/>
<g style="mix-blend-mode:plus-lighter">
<path d="M289.309 99.0131C302.08 127.712 248.132 179.931 168.812 215.652C89.4882 251.373 14.8328 257.066 2.06151 228.367C-10.7098 199.671 43.2377 147.449 122.558 111.728C201.879 76.0077 276.534 70.3172 289.309 99.0131Z" fill="url(#paint0_radial_739_29766)"/>
</g>
<defs>
<radialGradient id="paint0_radial_739_29766" cx="0" cy="0" r="1" gradientUnits="userSpaceOnUse" gradientTransform="translate(145.684 163.691) rotate(-24.2441) scale(157.509 56.8766)">
<stop offset="0.0539" stop-color="white"/>
<stop offset="0.1111" stop-color="#BABABA"/>
<stop offset="0.16" stop-color="#858585"/>
<stop offset="0.1838" stop-color="#707070"/>
<stop offset="0.218" stop-color="#606060"/>
<stop offset="0.2927" stop-color="#424242"/>
<stop offset="0.3757" stop-color="#2A2A2A"/>
<stop offset="0.469" stop-color="#171717"/>
<stop offset="0.5784" stop-color="#0A0A0A"/>
<stop offset="0.7189" stop-color="#020202"/>
<stop offset="1"/>
</radialGradient>
</defs>
</svg>
