<svg width="0" height="0" class="hidden">
  <symbol fill="none" xmlns="http://www.w3.org/2000/svg" viewBox="0 0 12 7" id="ic_arr_ver">
    <path fill-rule="evenodd" clip-rule="evenodd" d="M6.54493 6.69708C6.34606 6.89128 6.07913 7 5.80117 7C5.52322 7 5.25628 6.89128 5.05742 6.69708L0.311027 2.0614C0.113249 1.86323 0.00150156 1.59513 -1.09471e-05 1.31515C-0.0015225 1.03518 0.107322 0.765885 0.302949 0.565593C0.498575 0.3653 0.765232 0.250137 1.04516 0.24505C1.32509 0.239962 1.59576 0.345358 1.79853 0.538411L5.80117 4.44737L9.80382 0.538411C9.90338 0.438653 10.0218 0.35966 10.1521 0.306012C10.2824 0.252364 10.4221 0.22513 10.563 0.225891C10.704 0.226652 10.8434 0.255392 10.9731 0.310445C11.1029 0.365498 11.2204 0.445766 11.3189 0.546594C11.4173 0.647422 11.4948 0.766801 11.5468 0.897806C11.5988 1.02881 11.6242 1.16883 11.6217 1.30975C11.6191 1.45067 11.5886 1.58967 11.5319 1.7187C11.4752 1.84773 11.3934 1.96422 11.2913 2.0614L6.54493 6.69708Z" fill="currentColor"></path>
  </symbol>
  <symbol fill="none" xmlns="http://www.w3.org/2000/svg" viewBox="0 0 24 24" id="ic_arrow_hor">
    <path d="M20 12C20 11.4477 19.5523 11 19 11H7.83L12.71 6.12C13.1017 5.72829 13.1006 5.09284 12.7075 4.70251C12.3164 4.31412 11.6848 4.31524 11.295 4.705L5.13137 10.8686C4.73535 11.2646 4.53735 11.4627 4.46316 11.691C4.3979 11.8918 4.3979 12.1082 4.46316 12.309C4.53735 12.5373 4.73535 12.7354 5.13137 13.1314L11.2947 19.2947C11.6842 19.6842 12.3158 19.6842 12.7053 19.2947C13.0946 18.9054 13.0949 18.2743 12.7059 17.8847L7.83 13H19C19.5523 13 20 12.5523 20 12Z" fill="currentColor"></path>
  </symbol>
  <symbol fill="none" xmlns="http://www.w3.org/2000/svg" viewBox="0 0 29 28" id="ic_biometric_face">
    <path d="M7.27778 1H4.38889C3.62271 1 2.88791 1.30436 2.34614 1.84614C1.80436 2.38791 1.5 3.12271 1.5 3.88889V6.77778M21.7222 1H24.6111C25.3773 1 26.1121 1.30436 26.6539 1.84614C27.1956 2.38791 27.5 3.12271 27.5 3.88889V6.77778M20.2778 8.22222V11.1111M8.72222 8.22222V11.1111M10.1667 19.7778C10.1667 19.7778 11.6111 21.2222 14.5 21.2222C17.3889 21.2222 18.8333 19.7778 18.8333 19.7778M14.5 8.22222V15.4444H13.0556M7.27778 27H4.38889C3.62271 27 2.88791 26.6956 2.34614 26.1539C1.80436 25.6121 1.5 24.8773 1.5 24.1111V21.2222M21.7222 27H24.6111C25.3773 27 26.1121 26.6956 26.6539 26.1539C27.1956 25.6121 27.5 24.8773 27.5 24.1111V21.2222" stroke="currentColor" stroke-width="2" stroke-linecap="round" stroke-linejoin="round"></path>
  </symbol>
  <symbol fill="none" xmlns="http://www.w3.org/2000/svg" viewBox="0 0 28 28" id="ic_biometric_finger">
    <path fill-rule="evenodd" clip-rule="evenodd" d="M13.9999 5.25002C12.2709 5.25002 10.6609 5.75052 9.30641 6.61502C9.16094 6.70763 8.99865 6.77069 8.82881 6.80058C8.65897 6.83048 8.4849 6.82663 8.31655 6.78925C8.14819 6.75188 7.98885 6.68171 7.84762 6.58275C7.70638 6.48379 7.58602 6.35799 7.49341 6.21252C7.40079 6.06704 7.33774 5.90476 7.30784 5.73492C7.27795 5.56507 7.2818 5.39101 7.31917 5.22266C7.39466 4.88265 7.60211 4.58656 7.89591 4.39952C9.6158 3.30578 11.598 2.69426 13.6351 2.6289C15.6723 2.56354 17.6896 3.04674 19.4761 4.02797C21.2625 5.00921 22.7525 6.45242 23.7902 8.20669C24.828 9.96095 25.3753 11.9618 25.3749 14C25.3749 16.9138 24.7922 19.6945 23.7369 22.232C23.603 22.5534 23.3469 22.8085 23.025 22.9411C22.703 23.0737 22.3416 23.0729 22.0202 22.939C21.6987 22.8051 21.4437 22.549 21.3111 22.2271C21.1785 21.9051 21.1793 21.5437 21.3132 21.2223C22.2389 18.9998 22.7499 16.562 22.7499 14C22.7499 11.6794 21.828 9.45378 20.1871 7.81283C18.5461 6.17189 16.3206 5.25002 13.9999 5.25002ZM6.21241 7.49352C6.35795 7.58607 6.48382 7.7064 6.58283 7.84763C6.68184 7.98886 6.75204 8.14822 6.78942 8.31659C6.82681 8.48497 6.83063 8.65907 6.80069 8.82892C6.77074 8.99878 6.70761 9.16107 6.61491 9.30652C5.7206 10.7084 5.24689 12.3372 5.24991 14C5.24991 14.3481 5.11163 14.682 4.86548 14.9281C4.61934 15.1742 4.2855 15.3125 3.93741 15.3125C3.58931 15.3125 3.25547 15.1742 3.00933 14.9281C2.76319 14.682 2.62491 14.3481 2.62491 14C2.62491 11.7565 3.27591 9.66002 4.39941 7.89602C4.49196 7.75047 4.61229 7.6246 4.75352 7.52559C4.89475 7.42658 5.05411 7.35638 5.22248 7.319C5.39086 7.28162 5.56496 7.27779 5.73481 7.30774C5.90467 7.33768 6.06696 7.40081 6.21241 7.49352ZM13.9999 10.2813C13.0136 10.2813 12.0678 10.6731 11.3704 11.3705C10.673 12.0679 10.2812 13.0137 10.2812 14C10.2812 15.6825 9.6128 17.296 8.42312 18.4857C7.23343 19.6754 5.61987 20.3438 3.93741 20.3438H3.87266C3.7003 20.3428 3.52981 20.308 3.37092 20.2412C3.21203 20.1744 3.06786 20.0769 2.94663 19.9544C2.8254 19.8319 2.7295 19.6867 2.66439 19.5271C2.59928 19.3675 2.56624 19.1966 2.56716 19.0243C2.56808 18.8519 2.60294 18.6814 2.66974 18.5225C2.73655 18.3636 2.834 18.2195 2.95653 18.0982C3.07906 17.977 3.22426 17.8811 3.38385 17.816C3.54344 17.7509 3.7143 17.7178 3.88666 17.7188H3.93916C4.42751 17.7188 4.91108 17.6226 5.36226 17.4357C5.81344 17.2488 6.22339 16.9749 6.56871 16.6296C6.91403 16.2843 7.18795 15.8743 7.37483 15.4231C7.56172 14.9719 7.65791 14.4884 7.65791 14C7.65791 12.3175 8.32626 10.704 9.51595 9.51431C10.7056 8.32462 12.3192 7.65627 14.0017 7.65627C15.6841 7.65627 17.2977 8.32462 18.4874 9.51431C19.677 10.704 20.3454 12.3175 20.3454 14C20.3454 14.1365 20.3437 14.2724 20.3402 14.4078C20.336 14.5801 20.298 14.75 20.2282 14.9076C20.1584 15.0653 20.0583 15.2077 19.9335 15.3266C19.8087 15.4456 19.6616 15.5388 19.5008 15.6009C19.34 15.6631 19.1685 15.6929 18.9962 15.6888C18.8238 15.6846 18.6539 15.6466 18.4963 15.5768C18.3386 15.507 18.1963 15.4069 18.0773 15.2821C17.9584 15.1573 17.8651 15.0103 17.803 14.8494C17.7409 14.6886 17.711 14.5171 17.7152 14.3448C17.7187 14.2304 17.7204 14.1155 17.7204 14C17.7204 13.5115 17.6242 13.0278 17.4372 12.5765C17.2502 12.1252 16.9761 11.7152 16.6306 11.3698C16.2851 11.0245 15.8749 10.7506 15.4235 10.5638C14.9722 10.3771 14.4884 10.281 13.9999 10.2813ZM13.9912 12.6875C14.3393 12.6875 14.6731 12.8258 14.9192 13.0719C15.1654 13.3181 15.3037 13.6519 15.3037 14C15.3045 16.3561 14.5737 18.6542 13.2123 20.5771C11.8509 22.5 9.92594 23.9527 7.70341 24.7345C7.5407 24.7917 7.36831 24.8164 7.19609 24.807C7.02387 24.7976 6.85519 24.7543 6.69967 24.6797C6.54416 24.6052 6.40486 24.5007 6.28973 24.3722C6.17459 24.2438 6.08588 24.094 6.02866 23.9313C5.97143 23.7686 5.94682 23.5962 5.95622 23.424C5.96561 23.2517 6.00884 23.083 6.08343 22.9275C6.15802 22.772 6.26251 22.6327 6.39093 22.5176C6.51936 22.4025 6.6692 22.3137 6.83191 22.2565C8.5415 21.6552 10.0222 20.5379 11.0695 19.0589C12.1168 17.58 12.6791 15.8123 12.6787 14C12.6787 13.6519 12.8169 13.3181 13.0631 13.0719C13.3092 12.8258 13.6431 12.6875 13.9912 12.6875ZM18.6304 17.71C18.7934 17.7665 18.9437 17.8545 19.0726 17.969C19.2016 18.0836 19.3067 18.2225 19.382 18.3777C19.4572 18.5329 19.5011 18.7014 19.5112 18.8736C19.5213 19.0458 19.4973 19.2183 19.4407 19.3813C18.4213 22.3066 16.5966 24.8847 14.1767 26.8188C13.9037 27.022 13.5625 27.1112 13.225 27.0677C12.8875 27.0241 12.5802 26.8512 12.3677 26.5854C12.1552 26.3196 12.0543 25.9817 12.0862 25.6429C12.1181 25.3041 12.2803 24.991 12.5387 24.7695C14.5713 23.1447 16.1042 20.9792 16.9609 18.522C17.0749 18.1932 17.3148 17.9232 17.6279 17.7712C17.941 17.6193 18.3016 17.5979 18.6304 17.7118" fill="currentColor"></path>
  </symbol>
  <symbol fill="none" xmlns="http://www.w3.org/2000/svg" viewBox="0 0 13 10" id="ic_check">
    <path d="M1.39539 3.90649L5.35996 7.87106L11.6237 1.60727" stroke="currentColor" stroke-width="2" stroke-linecap="round"></path>
  </symbol>
  <symbol fill="none" xmlns="http://www.w3.org/2000/svg" viewBox="0 0 24 24" id="ic_close">
    <path d="M18.295 7.115C18.6844 6.72564 18.6844 6.09436 18.295 5.705C17.9056 5.31564 17.2744 5.31564 16.885 5.705L12 10.59L7.115 5.705C6.72564 5.31564 6.09436 5.31564 5.705 5.705C5.31564 6.09436 5.31564 6.72564 5.705 7.115L10.59 12L5.705 16.885C5.31564 17.2744 5.31564 17.9056 5.705 18.295C6.09436 18.6844 6.72564 18.6844 7.115 18.295L12 13.41L16.885 18.295C17.2744 18.6844 17.9056 18.6844 18.295 18.295C18.6844 17.9056 18.6844 17.2744 18.295 16.885L13.41 12L18.295 7.115Z" fill="currentColor"></path>
  </symbol>
  <symbol fill="none" xmlns="http://www.w3.org/2000/svg" viewBox="0 0 24 24" id="ic_copy">
    <path d="M18.2222 3C18.6937 3 19.1459 3.18964 19.4793 3.52721C19.8127 3.86477 20 4.32261 20 4.8V15.6C20 16.0774 19.8127 16.5352 19.4793 16.8728C19.1459 17.2104 18.6937 17.4 18.2222 17.4H16.4444V19.2C16.4444 19.6774 16.2571 20.1352 15.9237 20.4728C15.5903 20.8104 15.1382 21 14.6667 21H5.77778C5.30628 21 4.8541 20.8104 4.5207 20.4728C4.1873 20.1352 4 19.6774 4 19.2V8.4C4 7.92261 4.1873 7.46477 4.5207 7.12721C4.8541 6.78964 5.30628 6.6 5.77778 6.6H7.55556V4.8C7.55556 4.32261 7.74286 3.86477 8.07625 3.52721C8.40965 3.18964 8.86184 3 9.33333 3H18.2222ZM14.6667 8.4H5.77778V19.2H14.6667V8.4ZM10.2222 14.7C10.458 14.7 10.6841 14.7948 10.8508 14.9636C11.0175 15.1324 11.1111 15.3613 11.1111 15.6C11.1111 15.8387 11.0175 16.0676 10.8508 16.2364C10.6841 16.4052 10.458 16.5 10.2222 16.5H8.44444C8.2087 16.5 7.9826 16.4052 7.81591 16.2364C7.64921 16.0676 7.55556 15.8387 7.55556 15.6C7.55556 15.3613 7.64921 15.1324 7.81591 14.9636C7.9826 14.7948 8.2087 14.7 8.44444 14.7H10.2222ZM18.2222 4.8H9.33333V6.6H14.6667C15.1382 6.6 15.5903 6.78964 15.9237 7.12721C16.2571 7.46477 16.4444 7.92261 16.4444 8.4V15.6H18.2222V4.8ZM12 11.1C12.2266 11.1003 12.4445 11.1881 12.6092 11.3456C12.774 11.503 12.8731 11.7183 12.8864 11.9473C12.8997 12.1763 12.8261 12.4017 12.6807 12.5776C12.5352 12.7536 12.329 12.8666 12.104 12.8937L12 12.9H8.44444C8.21789 12.8997 7.99997 12.8119 7.83523 12.6544C7.67048 12.497 7.57135 12.2817 7.55807 12.0527C7.54479 11.8237 7.61838 11.5983 7.76379 11.4224C7.9092 11.2464 8.11547 11.1334 8.34044 11.1063L8.44444 11.1H12Z" fill="currentColor"></path>
  </symbol>
  <symbol fill="none" xmlns="http://www.w3.org/2000/svg" viewBox="0 0 14 14" id="ic_copy2">
    <path d="M10.8889 1.5C11.1836 1.5 11.4662 1.61589 11.6746 1.82218C11.8829 2.02847 12 2.30826 12 2.6V9.2C12 9.49174 11.8829 9.77153 11.6746 9.97782C11.4662 10.1841 11.1836 10.3 10.8889 10.3H9.77778V11.4C9.77778 11.6917 9.66071 11.9715 9.45234 12.1778C9.24397 12.3841 8.96135 12.5 8.66667 12.5H3.11111C2.81643 12.5 2.53381 12.3841 2.32544 12.1778C2.11706 11.9715 2 11.6917 2 11.4V4.8C2 4.50826 2.11706 4.22847 2.32544 4.02218C2.53381 3.81589 2.81643 3.7 3.11111 3.7H4.22222V2.6C4.22222 2.30826 4.33929 2.02847 4.54766 1.82218C4.75603 1.61589 5.03865 1.5 5.33333 1.5H10.8889ZM8.66667 4.8H3.11111V11.4H8.66667V4.8ZM10.8889 2.6H5.33333V3.7H8.66667C8.96135 3.7 9.24397 3.81589 9.45234 4.02218C9.66071 4.22847 9.77778 4.50826 9.77778 4.8V9.2H10.8889V2.6Z" fill="currentColor"></path>
  </symbol>
  <symbol fill="none" xmlns="http://www.w3.org/2000/svg" viewBox="0 0 22 22" id="ic_receive">
    <path fill-rule="evenodd" clip-rule="evenodd" d="M1.06404 15.253C1.34638 15.253 1.61714 15.3651 1.81678 15.5648C2.01642 15.7644 2.12858 16.0352 2.12858 16.3175V19.5154C2.12858 19.7113 2.28755 19.8702 2.48342 19.8702H19.5159C19.61 19.8702 19.7003 19.8328 19.7668 19.7663C19.8334 19.6997 19.8708 19.6095 19.8708 19.5154V16.3175C19.8708 16.0352 19.9829 15.7644 20.1826 15.5648C20.3822 15.3651 20.653 15.253 20.9353 15.253C21.2176 15.253 21.4884 15.3651 21.688 15.5648C21.8877 15.7644 21.9998 16.0352 21.9998 16.3175V19.5154C21.9998 20.1742 21.7381 20.8059 21.2723 21.2718C20.8065 21.7376 20.1747 21.9993 19.5159 21.9993H2.48342C1.82465 21.9993 1.19285 21.7376 0.727032 21.2718C0.261209 20.8059 -0.000488281 20.1742 -0.000488281 19.5154V16.3175C-0.000488281 16.0352 0.111667 15.7644 0.311306 15.5648C0.510944 15.3651 0.781712 15.253 1.06404 15.253Z" fill="currentColor"></path>
    <path fill-rule="evenodd" clip-rule="evenodd" d="M11.2665 13.6059C10.9842 13.6059 10.7134 13.4937 10.5138 13.2941C10.3141 13.0945 10.202 12.8237 10.202 12.5414L10.202 1.06429C10.202 0.781956 10.3141 0.511187 10.5138 0.311549C10.7134 0.111911 10.9842 -0.000245212 11.2665 -0.000245187C11.5489 -0.000245163 11.8196 0.111911 12.0193 0.311549C12.2189 0.511188 12.3311 0.781956 12.3311 1.06429L12.3311 12.5399C12.3311 12.8223 12.2189 13.093 12.0193 13.2927C11.8196 13.4923 11.5489 13.6059 11.2665 13.6059Z" fill="currentColor"></path>
    <path fill-rule="evenodd" clip-rule="evenodd" d="M12.0105 15.1899C11.8116 15.3841 11.5447 15.4929 11.2668 15.4929C10.9888 15.4929 10.7219 15.3841 10.523 15.1899L5.7766 10.5543C5.57883 10.3561 5.46708 10.088 5.46557 9.80801C5.46405 9.52804 5.5729 9.25874 5.76852 9.05845C5.96415 8.85816 6.23081 8.743 6.51074 8.73791C6.79067 8.73282 7.06133 8.83822 7.26411 9.03127L11.2668 12.9402L15.2694 9.03127C15.369 8.93151 15.4873 8.85252 15.6177 8.79887C15.748 8.74522 15.8877 8.71799 16.0286 8.71875C16.1696 8.71951 16.3089 8.74825 16.4387 8.8033C16.5684 8.85836 16.686 8.93863 16.7844 9.03945C16.8829 9.14028 16.9604 9.25966 17.0124 9.39067C17.0643 9.52167 17.0898 9.66169 17.0872 9.80261C17.0847 9.94353 17.0541 10.0825 16.9974 10.2116C16.9407 10.3406 16.859 10.4571 16.7569 10.5543L12.0105 15.1899Z" fill="currentColor"></path>
  </symbol>
  <symbol fill="none" xmlns="http://www.w3.org/2000/svg" viewBox="0 0 14 14" id="ic_scaner">
    <path fill-rule="evenodd" clip-rule="evenodd" d="M0.676941 9.70645C0.856607 9.70645 1.02891 9.77782 1.15596 9.90487C1.283 10.0319 1.35437 10.2042 1.35437 10.3839V12.4189C1.35437 12.5435 1.45553 12.6447 1.58018 12.6447H12.4191C12.4789 12.6447 12.5364 12.6209 12.5787 12.5786C12.6211 12.5362 12.6449 12.4788 12.6449 12.4189V10.3839C12.6449 10.2042 12.7162 10.0319 12.8433 9.90487C12.9703 9.77782 13.1426 9.70645 13.3223 9.70645C13.502 9.70645 13.6743 9.77782 13.8013 9.90487C13.9284 10.0319 13.9997 10.2042 13.9997 10.3839V12.4189C13.9997 12.8381 13.8332 13.2401 13.5368 13.5366C13.2403 13.833 12.8383 13.9995 12.4191 13.9995H1.58018C1.16096 13.9995 0.758912 13.833 0.462479 13.5366C0.166046 13.2401 -0.000488281 12.8381 -0.000488281 12.4189V10.3839C-0.000488281 10.2042 0.0708835 10.0319 0.197926 9.90487C0.324969 9.77782 0.497276 9.70645 0.676941 9.70645Z" fill="currentColor"></path>
    <path fill-rule="evenodd" clip-rule="evenodd" d="M0.67743 4.29312C0.857095 4.29312 1.0294 4.22175 1.15644 4.09471C1.28349 3.96766 1.35486 3.79536 1.35486 3.61569V1.58069C1.35486 1.45605 1.45602 1.35488 1.58067 1.35488H12.4195C12.4794 1.35488 12.5369 1.37867 12.5792 1.42102C12.6216 1.46337 12.6454 1.5208 12.6454 1.58069V3.61569C12.6454 3.79536 12.7167 3.96766 12.8438 4.09471C12.9708 4.22175 13.1431 4.29312 13.3228 4.29312C13.5024 4.29312 13.6748 4.22175 13.8018 4.09471C13.9288 3.96766 14.0002 3.79536 14.0002 3.61569V1.58069C14.0002 1.16147 13.8337 0.759424 13.5372 0.462991C13.2408 0.166558 12.8388 2.3365e-05 12.4195 2.3365e-05H1.58067C1.16145 2.3365e-05 0.7594 0.166558 0.462967 0.462991C0.166534 0.759424 0 1.16147 0 1.58069V3.61569C0 3.79536 0.0713718 3.96766 0.198414 4.09471C0.325457 4.22175 0.497764 4.29312 0.67743 4.29312Z" fill="currentColor"></path>
    <path fill-rule="evenodd" clip-rule="evenodd" d="M2.54541 6.95892C2.54541 6.77926 2.61678 6.60695 2.74382 6.47991C2.87087 6.35286 3.04317 6.28149 3.22284 6.28149L10.5264 6.28149C10.7061 6.28149 10.8784 6.35286 11.0055 6.47991C11.1325 6.60695 11.2039 6.77926 11.2039 6.95892C11.2039 7.13859 11.1325 7.31089 11.0055 7.43794C10.8784 7.56498 10.7061 7.63635 10.5264 7.63635L3.22374 7.63635C3.04408 7.63635 2.87177 7.56498 2.74473 7.43794C2.61769 7.31089 2.54541 7.13859 2.54541 6.95892Z" fill="currentColor"></path>
  </symbol>
  <symbol fill="none" xmlns="http://www.w3.org/2000/svg" viewBox="0 0 16 16" id="ic_search">
    <path fill-rule="evenodd" clip-rule="evenodd" d="M9.61761 11.0317C8.73155 11.6424 7.65754 12 6.5 12C3.46243 12 1 9.53757 1 6.5C1 3.46243 3.46243 1 6.5 1C9.53757 1 12 3.46243 12 6.5C12 7.65746 11.6425 8.73141 11.0318 9.61744L15.0011 13.5868L13.5869 15.001L9.61761 11.0317ZM10 6.5C10 8.433 8.433 10 6.5 10C4.567 10 3 8.433 3 6.5C3 4.567 4.567 3 6.5 3C8.433 3 10 4.567 10 6.5Z" fill="currentColor"></path>
  </symbol>
  <symbol fill="none" xmlns="http://www.w3.org/2000/svg" viewBox="0 0 22 22" id="ic_send">
    <path fill-rule="evenodd" clip-rule="evenodd" d="M1.06404 15.253C1.34638 15.253 1.61714 15.3651 1.81678 15.5648C2.01642 15.7644 2.12858 16.0352 2.12858 16.3175V19.5154C2.12858 19.7113 2.28755 19.8702 2.48342 19.8702H19.5159C19.61 19.8702 19.7003 19.8328 19.7668 19.7663C19.8334 19.6997 19.8708 19.6095 19.8708 19.5154V16.3175C19.8708 16.0352 19.9829 15.7644 20.1826 15.5648C20.3822 15.3651 20.653 15.253 20.9353 15.253C21.2176 15.253 21.4884 15.3651 21.688 15.5648C21.8877 15.7644 21.9998 16.0352 21.9998 16.3175V19.5154C21.9998 20.1742 21.7381 20.8059 21.2723 21.2718C20.8065 21.7376 20.1747 21.9993 19.5159 21.9993H2.48342C1.82465 21.9993 1.19285 21.7376 0.727032 21.2718C0.261209 20.8059 -0.000488281 20.1742 -0.000488281 19.5154V16.3175C-0.000488281 16.0352 0.111667 15.7644 0.311306 15.5648C0.510944 15.3651 0.781712 15.253 1.06404 15.253Z" fill="currentColor"></path>
    <path fill-rule="evenodd" clip-rule="evenodd" d="M11.2867 1.88672C11.569 1.88672 11.8398 1.99887 12.0394 2.19851C12.2391 2.39815 12.3512 2.66892 12.3512 2.95125V14.4283C12.3512 14.7107 12.2391 14.9814 12.0394 15.1811C11.8398 15.3807 11.569 15.4929 11.2867 15.4929C11.0044 15.4929 10.7336 15.3807 10.534 15.1811C10.3343 14.9814 10.2222 14.7107 10.2222 14.4283V2.95267C10.2222 2.67034 10.3343 2.39957 10.534 2.19993C10.7336 2.00029 11.0044 1.88672 11.2867 1.88672Z" fill="currentColor"></path>
    <path fill-rule="evenodd" clip-rule="evenodd" d="M10.5427 0.302672C10.7416 0.108472 11.0085 -0.000244141 11.2865 -0.000244141C11.5644 -0.000244141 11.8314 0.108472 12.0302 0.302672L16.7766 4.93835C16.9744 5.13652 17.0861 5.40463 17.0877 5.6846C17.0892 5.96457 16.9803 6.23387 16.7847 6.43416C16.5891 6.63446 16.3224 6.74962 16.0425 6.75471C15.7626 6.75979 15.4919 6.6544 15.2891 6.46134L11.2865 2.55238L7.28383 6.46134C7.18427 6.5611 7.06589 6.6401 6.93556 6.69374C6.80523 6.74739 6.66554 6.77463 6.5246 6.77386C6.38367 6.7731 6.24428 6.74436 6.11454 6.68931C5.98479 6.63426 5.86727 6.55399 5.76879 6.45316C5.67032 6.35233 5.59284 6.23295 5.54086 6.10195C5.48888 5.97094 5.46344 5.83092 5.466 5.69C5.46856 5.54909 5.49908 5.41008 5.55578 5.28105C5.61249 5.15202 5.69425 5.03554 5.79632 4.93835L10.5427 0.302672Z" fill="currentColor"></path>
  </symbol>
</svg>