<svg width="0" height="0" class="hidden">
  <symbol fill="none" xmlns="http://www.w3.org/2000/svg" viewBox="0 0 12 7" id="ic_arr_ver">
    <path fill-rule="evenodd" clip-rule="evenodd" d="M6.54493 6.69708C6.34606 6.89128 6.07913 7 5.80117 7C5.52322 7 5.25628 6.89128 5.05742 6.69708L0.311027 2.0614C0.113249 1.86323 0.00150156 1.59513 -1.09471e-05 1.31515C-0.0015225 1.03518 0.107322 0.765885 0.302949 0.565593C0.498575 0.3653 0.765232 0.250137 1.04516 0.24505C1.32509 0.239962 1.59576 0.345358 1.79853 0.538411L5.80117 4.44737L9.80382 0.538411C9.90338 0.438653 10.0218 0.35966 10.1521 0.306012C10.2824 0.252364 10.4221 0.22513 10.563 0.225891C10.704 0.226652 10.8434 0.255392 10.9731 0.310445C11.1029 0.365498 11.2204 0.445766 11.3189 0.546594C11.4173 0.647422 11.4948 0.766801 11.5468 0.897806C11.5988 1.02881 11.6242 1.16883 11.6217 1.30975C11.6191 1.45067 11.5886 1.58967 11.5319 1.7187C11.4752 1.84773 11.3934 1.96422 11.2913 2.0614L6.54493 6.69708Z" fill="currentColor"></path>
  </symbol>
  <symbol fill="none" xmlns="http://www.w3.org/2000/svg" viewBox="0 0 28 28" id="ic_arr_ver2">
    <path d="M21 11L14 18L7 11" stroke="currentColor" stroke-width="1.5" stroke-linecap="round"></path>
  </symbol>
  <symbol fill="none" xmlns="http://www.w3.org/2000/svg" viewBox="0 0 24 24" id="ic_arrow_hor">
    <path d="M20 12C20 11.4477 19.5523 11 19 11H7.83L12.71 6.12C13.1017 5.72829 13.1006 5.09284 12.7075 4.70251C12.3164 4.31412 11.6848 4.31524 11.295 4.705L5.13137 10.8686C4.73535 11.2646 4.53735 11.4627 4.46316 11.691C4.3979 11.8918 4.3979 12.1082 4.46316 12.309C4.53735 12.5373 4.73535 12.7354 5.13137 13.1314L11.2947 19.2947C11.6842 19.6842 12.3158 19.6842 12.7053 19.2947C13.0946 18.9054 13.0949 18.2743 12.7059 17.8847L7.83 13H19C19.5523 13 20 12.5523 20 12Z" fill="currentColor"></path>
  </symbol>
  <symbol fill="none" xmlns="http://www.w3.org/2000/svg" viewBox="0 0 12 20" id="ic_arrow_ver">
    <path d="M0.351563 12.8663C0.576737 12.6319 0.882098 12.5003 1.20049 12.5003C1.51889 12.5003 1.82425 12.6319 2.04942 12.8663L4.80275 15.7325L4.80274 1.25002C4.80274 0.918505 4.92925 0.600561 5.15444 0.36614C5.37962 0.131719 5.68504 2.4547e-05 6.0035 2.45331e-05C6.32195 2.45192e-05 6.62737 0.131719 6.85256 0.36614C7.07774 0.600561 7.20425 0.918504 7.20425 1.25002L7.20425 15.7325L9.95757 12.8663C10.184 12.6386 10.4873 12.5126 10.8022 12.5154C11.117 12.5183 11.4182 12.6497 11.6408 12.8815C11.8634 13.1133 11.9897 13.4268 11.9925 13.7545C11.9952 14.0823 11.8742 14.398 11.6554 14.6338L6.85243 19.6338C6.62725 19.8681 6.32189 19.9998 6.0035 19.9998C5.6851 19.9998 5.37974 19.8681 5.15457 19.6338L0.351563 14.6338C0.126457 14.3994 -2.58696e-07 14.0815 -2.73184e-07 13.75C-2.87673e-07 13.4186 0.126457 13.1007 0.351563 12.8663Z" fill="currentColor"></path>
  </symbol>
  <symbol fill="none" xmlns="http://www.w3.org/2000/svg" viewBox="0 0 13 10" id="ic_check">
    <path d="M1.39539 3.90649L5.35996 7.87106L11.6237 1.60727" stroke="currentColor" stroke-width="2" stroke-linecap="round"></path>
  </symbol>
  <symbol fill="none" xmlns="http://www.w3.org/2000/svg" viewBox="0 0 24 24" id="ic_close">
    <path d="M18.295 7.115C18.6844 6.72564 18.6844 6.09436 18.295 5.705C17.9056 5.31564 17.2744 5.31564 16.885 5.705L12 10.59L7.115 5.705C6.72564 5.31564 6.09436 5.31564 5.705 5.705C5.31564 6.09436 5.31564 6.72564 5.705 7.115L10.59 12L5.705 16.885C5.31564 17.2744 5.31564 17.9056 5.705 18.295C6.09436 18.6844 6.72564 18.6844 7.115 18.295L12 13.41L16.885 18.295C17.2744 18.6844 17.9056 18.6844 18.295 18.295C18.6844 17.9056 18.6844 17.2744 18.295 16.885L13.41 12L18.295 7.115Z" fill="currentColor"></path>
  </symbol>
  <symbol fill="none" xmlns="http://www.w3.org/2000/svg" viewBox="0 0 29 28" id="ic_biometric_face">
    <path d="M7.27778 1H4.38889C3.62271 1 2.88791 1.30436 2.34614 1.84614C1.80436 2.38791 1.5 3.12271 1.5 3.88889V6.77778M21.7222 1H24.6111C25.3773 1 26.1121 1.30436 26.6539 1.84614C27.1956 2.38791 27.5 3.12271 27.5 3.88889V6.77778M20.2778 8.22222V11.1111M8.72222 8.22222V11.1111M10.1667 19.7778C10.1667 19.7778 11.6111 21.2222 14.5 21.2222C17.3889 21.2222 18.8333 19.7778 18.8333 19.7778M14.5 8.22222V15.4444H13.0556M7.27778 27H4.38889C3.62271 27 2.88791 26.6956 2.34614 26.1539C1.80436 25.6121 1.5 24.8773 1.5 24.1111V21.2222M21.7222 27H24.6111C25.3773 27 26.1121 26.6956 26.6539 26.1539C27.1956 25.6121 27.5 24.8773 27.5 24.1111V21.2222" stroke="currentColor" stroke-width="2" stroke-linecap="round" stroke-linejoin="round"></path>
  </symbol>
  <symbol fill="none" xmlns="http://www.w3.org/2000/svg" viewBox="0 0 24 24" id="ic_copy3">
    <path d="M19.2857 15.4375H11.1429C10.7696 15.4375 10.4643 15.1281 10.4643 14.75V3.75C10.4643 3.37188 10.7696 3.0625 11.1429 3.0625H17.0846L19.9643 5.98008V14.75C19.9643 15.1281 19.6589 15.4375 19.2857 15.4375ZM11.1429 17.5H19.2857C20.7828 17.5 22 16.2668 22 14.75V5.98008C22 5.43438 21.7837 4.91016 21.402 4.52344L18.5266 1.60586C18.1449 1.21914 17.6275 1 17.0888 1H11.1429C9.64576 1 8.42857 2.2332 8.42857 3.75V14.75C8.42857 16.2668 9.64576 17.5 11.1429 17.5ZM5.71429 6.5C4.21719 6.5 3 7.7332 3 9.25V20.25C3 21.7668 4.21719 23 5.71429 23H13.8571C15.3542 23 16.5714 21.7668 16.5714 20.25V18.875H14.5357V20.25C14.5357 20.6281 14.2304 20.9375 13.8571 20.9375H5.71429C5.34107 20.9375 5.03571 20.6281 5.03571 20.25V9.25C5.03571 8.87187 5.34107 8.5625 5.71429 8.5625H7.07143V6.5H5.71429Z" fill="currentColor"></path>
  </symbol>
  <symbol fill="none" xmlns="http://www.w3.org/2000/svg" viewBox="0 0 28 28" id="ic_biometric_finger">
    <path fill-rule="evenodd" clip-rule="evenodd" d="M13.9999 5.25002C12.2709 5.25002 10.6609 5.75052 9.30641 6.61502C9.16094 6.70763 8.99865 6.77069 8.82881 6.80058C8.65897 6.83048 8.4849 6.82663 8.31655 6.78925C8.14819 6.75188 7.98885 6.68171 7.84762 6.58275C7.70638 6.48379 7.58602 6.35799 7.49341 6.21252C7.40079 6.06704 7.33774 5.90476 7.30784 5.73492C7.27795 5.56507 7.2818 5.39101 7.31917 5.22266C7.39466 4.88265 7.60211 4.58656 7.89591 4.39952C9.6158 3.30578 11.598 2.69426 13.6351 2.6289C15.6723 2.56354 17.6896 3.04674 19.4761 4.02797C21.2625 5.00921 22.7525 6.45242 23.7902 8.20669C24.828 9.96095 25.3753 11.9618 25.3749 14C25.3749 16.9138 24.7922 19.6945 23.7369 22.232C23.603 22.5534 23.3469 22.8085 23.025 22.9411C22.703 23.0737 22.3416 23.0729 22.0202 22.939C21.6987 22.8051 21.4437 22.549 21.3111 22.2271C21.1785 21.9051 21.1793 21.5437 21.3132 21.2223C22.2389 18.9998 22.7499 16.562 22.7499 14C22.7499 11.6794 21.828 9.45378 20.1871 7.81283C18.5461 6.17189 16.3206 5.25002 13.9999 5.25002ZM6.21241 7.49352C6.35795 7.58607 6.48382 7.7064 6.58283 7.84763C6.68184 7.98886 6.75204 8.14822 6.78942 8.31659C6.82681 8.48497 6.83063 8.65907 6.80069 8.82892C6.77074 8.99878 6.70761 9.16107 6.61491 9.30652C5.7206 10.7084 5.24689 12.3372 5.24991 14C5.24991 14.3481 5.11163 14.682 4.86548 14.9281C4.61934 15.1742 4.2855 15.3125 3.93741 15.3125C3.58931 15.3125 3.25547 15.1742 3.00933 14.9281C2.76319 14.682 2.62491 14.3481 2.62491 14C2.62491 11.7565 3.27591 9.66002 4.39941 7.89602C4.49196 7.75047 4.61229 7.6246 4.75352 7.52559C4.89475 7.42658 5.05411 7.35638 5.22248 7.319C5.39086 7.28162 5.56496 7.27779 5.73481 7.30774C5.90467 7.33768 6.06696 7.40081 6.21241 7.49352ZM13.9999 10.2813C13.0136 10.2813 12.0678 10.6731 11.3704 11.3705C10.673 12.0679 10.2812 13.0137 10.2812 14C10.2812 15.6825 9.6128 17.296 8.42312 18.4857C7.23343 19.6754 5.61987 20.3438 3.93741 20.3438H3.87266C3.7003 20.3428 3.52981 20.308 3.37092 20.2412C3.21203 20.1744 3.06786 20.0769 2.94663 19.9544C2.8254 19.8319 2.7295 19.6867 2.66439 19.5271C2.59928 19.3675 2.56624 19.1966 2.56716 19.0243C2.56808 18.8519 2.60294 18.6814 2.66974 18.5225C2.73655 18.3636 2.834 18.2195 2.95653 18.0982C3.07906 17.977 3.22426 17.8811 3.38385 17.816C3.54344 17.7509 3.7143 17.7178 3.88666 17.7188H3.93916C4.42751 17.7188 4.91108 17.6226 5.36226 17.4357C5.81344 17.2488 6.22339 16.9749 6.56871 16.6296C6.91403 16.2843 7.18795 15.8743 7.37483 15.4231C7.56172 14.9719 7.65791 14.4884 7.65791 14C7.65791 12.3175 8.32626 10.704 9.51595 9.51431C10.7056 8.32462 12.3192 7.65627 14.0017 7.65627C15.6841 7.65627 17.2977 8.32462 18.4874 9.51431C19.677 10.704 20.3454 12.3175 20.3454 14C20.3454 14.1365 20.3437 14.2724 20.3402 14.4078C20.336 14.5801 20.298 14.75 20.2282 14.9076C20.1584 15.0653 20.0583 15.2077 19.9335 15.3266C19.8087 15.4456 19.6616 15.5388 19.5008 15.6009C19.34 15.6631 19.1685 15.6929 18.9962 15.6888C18.8238 15.6846 18.6539 15.6466 18.4963 15.5768C18.3386 15.507 18.1963 15.4069 18.0773 15.2821C17.9584 15.1573 17.8651 15.0103 17.803 14.8494C17.7409 14.6886 17.711 14.5171 17.7152 14.3448C17.7187 14.2304 17.7204 14.1155 17.7204 14C17.7204 13.5115 17.6242 13.0278 17.4372 12.5765C17.2502 12.1252 16.9761 11.7152 16.6306 11.3698C16.2851 11.0245 15.8749 10.7506 15.4235 10.5638C14.9722 10.3771 14.4884 10.281 13.9999 10.2813ZM13.9912 12.6875C14.3393 12.6875 14.6731 12.8258 14.9192 13.0719C15.1654 13.3181 15.3037 13.6519 15.3037 14C15.3045 16.3561 14.5737 18.6542 13.2123 20.5771C11.8509 22.5 9.92594 23.9527 7.70341 24.7345C7.5407 24.7917 7.36831 24.8164 7.19609 24.807C7.02387 24.7976 6.85519 24.7543 6.69967 24.6797C6.54416 24.6052 6.40486 24.5007 6.28973 24.3722C6.17459 24.2438 6.08588 24.094 6.02866 23.9313C5.97143 23.7686 5.94682 23.5962 5.95622 23.424C5.96561 23.2517 6.00884 23.083 6.08343 22.9275C6.15802 22.772 6.26251 22.6327 6.39093 22.5176C6.51936 22.4025 6.6692 22.3137 6.83191 22.2565C8.5415 21.6552 10.0222 20.5379 11.0695 19.0589C12.1168 17.58 12.6791 15.8123 12.6787 14C12.6787 13.6519 12.8169 13.3181 13.0631 13.0719C13.3092 12.8258 13.6431 12.6875 13.9912 12.6875ZM18.6304 17.71C18.7934 17.7665 18.9437 17.8545 19.0726 17.969C19.2016 18.0836 19.3067 18.2225 19.382 18.3777C19.4572 18.5329 19.5011 18.7014 19.5112 18.8736C19.5213 19.0458 19.4973 19.2183 19.4407 19.3813C18.4213 22.3066 16.5966 24.8847 14.1767 26.8188C13.9037 27.022 13.5625 27.1112 13.225 27.0677C12.8875 27.0241 12.5802 26.8512 12.3677 26.5854C12.1552 26.3196 12.0543 25.9817 12.0862 25.6429C12.1181 25.3041 12.2803 24.991 12.5387 24.7695C14.5713 23.1447 16.1042 20.9792 16.9609 18.522C17.0749 18.1932 17.3148 17.9232 17.6279 17.7712C17.941 17.6193 18.3016 17.5979 18.6304 17.7118" fill="currentColor"></path>
  </symbol>
  <symbol fill="none" xmlns="http://www.w3.org/2000/svg" viewBox="0 0 18 18" id="ic_notification_success">
    <path fill-rule="evenodd" clip-rule="evenodd" d="M9 18C13.9706 18 18 13.9706 18 9C18 4.02944 13.9706 0 9 0C4.02944 0 0 4.02944 0 9C0 13.9706 4.02944 18 9 18ZM13.8716 7.50166C14.2621 7.11114 14.2621 6.47797 13.8716 6.08745C13.4811 5.69692 12.8479 5.69692 12.4574 6.08745L8.66218 9.88264L6.49342 7.71388C6.1029 7.32336 5.46974 7.32336 5.07921 7.71388C4.68869 8.10441 4.68869 8.73757 5.07921 9.12809L7.95508 12.004L8.66218 12.7111L9.36929 12.004L13.8716 7.50166Z" fill="currentColor"></path>
  </symbol>
  <symbol fill="none" xmlns="http://www.w3.org/2000/svg" viewBox="0 0 24 24" id="ic_copy">
    <path d="M18.2222 3C18.6937 3 19.1459 3.18964 19.4793 3.52721C19.8127 3.86477 20 4.32261 20 4.8V15.6C20 16.0774 19.8127 16.5352 19.4793 16.8728C19.1459 17.2104 18.6937 17.4 18.2222 17.4H16.4444V19.2C16.4444 19.6774 16.2571 20.1352 15.9237 20.4728C15.5903 20.8104 15.1382 21 14.6667 21H5.77778C5.30628 21 4.8541 20.8104 4.5207 20.4728C4.1873 20.1352 4 19.6774 4 19.2V8.4C4 7.92261 4.1873 7.46477 4.5207 7.12721C4.8541 6.78964 5.30628 6.6 5.77778 6.6H7.55556V4.8C7.55556 4.32261 7.74286 3.86477 8.07625 3.52721C8.40965 3.18964 8.86184 3 9.33333 3H18.2222ZM14.6667 8.4H5.77778V19.2H14.6667V8.4ZM10.2222 14.7C10.458 14.7 10.6841 14.7948 10.8508 14.9636C11.0175 15.1324 11.1111 15.3613 11.1111 15.6C11.1111 15.8387 11.0175 16.0676 10.8508 16.2364C10.6841 16.4052 10.458 16.5 10.2222 16.5H8.44444C8.2087 16.5 7.9826 16.4052 7.81591 16.2364C7.64921 16.0676 7.55556 15.8387 7.55556 15.6C7.55556 15.3613 7.64921 15.1324 7.81591 14.9636C7.9826 14.7948 8.2087 14.7 8.44444 14.7H10.2222ZM18.2222 4.8H9.33333V6.6H14.6667C15.1382 6.6 15.5903 6.78964 15.9237 7.12721C16.2571 7.46477 16.4444 7.92261 16.4444 8.4V15.6H18.2222V4.8ZM12 11.1C12.2266 11.1003 12.4445 11.1881 12.6092 11.3456C12.774 11.503 12.8731 11.7183 12.8864 11.9473C12.8997 12.1763 12.8261 12.4017 12.6807 12.5776C12.5352 12.7536 12.329 12.8666 12.104 12.8937L12 12.9H8.44444C8.21789 12.8997 7.99997 12.8119 7.83523 12.6544C7.67048 12.497 7.57135 12.2817 7.55807 12.0527C7.54479 11.8237 7.61838 11.5983 7.76379 11.4224C7.9092 11.2464 8.11547 11.1334 8.34044 11.1063L8.44444 11.1H12Z" fill="currentColor"></path>
  </symbol>
  <symbol fill="none" xmlns="http://www.w3.org/2000/svg" viewBox="0 0 14 14" id="ic_copy2">
    <path d="M10.8889 1.5C11.1836 1.5 11.4662 1.61589 11.6746 1.82218C11.8829 2.02847 12 2.30826 12 2.6V9.2C12 9.49174 11.8829 9.77153 11.6746 9.97782C11.4662 10.1841 11.1836 10.3 10.8889 10.3H9.77778V11.4C9.77778 11.6917 9.66071 11.9715 9.45234 12.1778C9.24397 12.3841 8.96135 12.5 8.66667 12.5H3.11111C2.81643 12.5 2.53381 12.3841 2.32544 12.1778C2.11706 11.9715 2 11.6917 2 11.4V4.8C2 4.50826 2.11706 4.22847 2.32544 4.02218C2.53381 3.81589 2.81643 3.7 3.11111 3.7H4.22222V2.6C4.22222 2.30826 4.33929 2.02847 4.54766 1.82218C4.75603 1.61589 5.03865 1.5 5.33333 1.5H10.8889ZM8.66667 4.8H3.11111V11.4H8.66667V4.8ZM10.8889 2.6H5.33333V3.7H8.66667C8.96135 3.7 9.24397 3.81589 9.45234 4.02218C9.66071 4.22847 9.77778 4.50826 9.77778 4.8V9.2H10.8889V2.6Z" fill="currentColor"></path>
  </symbol>
  <symbol fill="none" xmlns="http://www.w3.org/2000/svg" viewBox="0 0 18 18" id="ic_notification_copied">
    <path d="M14.1429 11.5H8.57143C8.31607 11.5 8.10714 11.275 8.10714 11V3C8.10714 2.725 8.31607 2.5 8.57143 2.5H12.6368L14.6071 4.62188V11C14.6071 11.275 14.3982 11.5 14.1429 11.5ZM8.57143 13H14.1429C15.1672 13 16 12.1031 16 11V4.62188C16 4.225 15.852 3.84375 15.5908 3.5625L13.6234 1.44063C13.3623 1.15938 13.0083 1 12.6397 1H8.57143C7.5471 1 6.71429 1.89688 6.71429 3V11C6.71429 12.1031 7.5471 13 8.57143 13ZM4.85714 5C3.83281 5 3 5.89687 3 7V15C3 16.1031 3.83281 17 4.85714 17H10.4286C11.4529 17 12.2857 16.1031 12.2857 15V14H10.8929V15C10.8929 15.275 10.6839 15.5 10.4286 15.5H4.85714C4.60179 15.5 4.39286 15.275 4.39286 15V7C4.39286 6.725 4.60179 6.5 4.85714 6.5H5.78571V5H4.85714Z" fill="currentColor"></path>
  </symbol>
  <symbol fill="none" xmlns="http://www.w3.org/2000/svg" viewBox="0 0 18 19" id="ic_notification_error">
    <path fill-rule="evenodd" clip-rule="evenodd" d="M9 18.5C13.9706 18.5 18 14.4706 18 9.5C18 4.52944 13.9706 0.5 9 0.5C4.02944 0.5 0 4.52944 0 9.5C0 14.4706 4.02944 18.5 9 18.5ZM12.5355 5.96446C12.9261 6.35499 12.9261 6.98815 12.5355 7.37868L10.4142 9.50001L12.5355 11.6213C12.9261 12.0119 12.9261 12.645 12.5355 13.0356C12.145 13.4261 11.5118 13.4261 11.1213 13.0356L8.99999 10.9142L6.87868 13.0355C6.48816 13.4261 5.85499 13.4261 5.46447 13.0355C5.07394 12.645 5.07394 12.0118 5.46447 11.6213L7.58577 9.50001L5.46447 7.37871C5.07394 6.98818 5.07394 6.35502 5.46447 5.96449C5.85499 5.57397 6.48816 5.57397 6.87868 5.96449L8.99999 8.0858L11.1213 5.96446C11.5118 5.57394 12.145 5.57394 12.5355 5.96446Z" fill="currentColor"></path>
  </symbol>
  <symbol fill="none" xmlns="http://www.w3.org/2000/svg" viewBox="0 0 22 22" id="ic_receive">
    <path fill-rule="evenodd" clip-rule="evenodd" d="M1.06404 15.253C1.34638 15.253 1.61714 15.3651 1.81678 15.5648C2.01642 15.7644 2.12858 16.0352 2.12858 16.3175V19.5154C2.12858 19.7113 2.28755 19.8702 2.48342 19.8702H19.5159C19.61 19.8702 19.7003 19.8328 19.7668 19.7663C19.8334 19.6997 19.8708 19.6095 19.8708 19.5154V16.3175C19.8708 16.0352 19.9829 15.7644 20.1826 15.5648C20.3822 15.3651 20.653 15.253 20.9353 15.253C21.2176 15.253 21.4884 15.3651 21.688 15.5648C21.8877 15.7644 21.9998 16.0352 21.9998 16.3175V19.5154C21.9998 20.1742 21.7381 20.8059 21.2723 21.2718C20.8065 21.7376 20.1747 21.9993 19.5159 21.9993H2.48342C1.82465 21.9993 1.19285 21.7376 0.727032 21.2718C0.261209 20.8059 -0.000488281 20.1742 -0.000488281 19.5154V16.3175C-0.000488281 16.0352 0.111667 15.7644 0.311306 15.5648C0.510944 15.3651 0.781712 15.253 1.06404 15.253Z" fill="currentColor"></path>
    <path fill-rule="evenodd" clip-rule="evenodd" d="M11.2665 13.6059C10.9842 13.6059 10.7134 13.4937 10.5138 13.2941C10.3141 13.0945 10.202 12.8237 10.202 12.5414L10.202 1.06429C10.202 0.781956 10.3141 0.511187 10.5138 0.311549C10.7134 0.111911 10.9842 -0.000245212 11.2665 -0.000245187C11.5489 -0.000245163 11.8196 0.111911 12.0193 0.311549C12.2189 0.511188 12.3311 0.781956 12.3311 1.06429L12.3311 12.5399C12.3311 12.8223 12.2189 13.093 12.0193 13.2927C11.8196 13.4923 11.5489 13.6059 11.2665 13.6059Z" fill="currentColor"></path>
    <path fill-rule="evenodd" clip-rule="evenodd" d="M12.0105 15.1899C11.8116 15.3841 11.5447 15.4929 11.2668 15.4929C10.9888 15.4929 10.7219 15.3841 10.523 15.1899L5.7766 10.5543C5.57883 10.3561 5.46708 10.088 5.46557 9.80801C5.46405 9.52804 5.5729 9.25874 5.76852 9.05845C5.96415 8.85816 6.23081 8.743 6.51074 8.73791C6.79067 8.73282 7.06133 8.83822 7.26411 9.03127L11.2668 12.9402L15.2694 9.03127C15.369 8.93151 15.4873 8.85252 15.6177 8.79887C15.748 8.74522 15.8877 8.71799 16.0286 8.71875C16.1696 8.71951 16.3089 8.74825 16.4387 8.8033C16.5684 8.85836 16.686 8.93863 16.7844 9.03945C16.8829 9.14028 16.9604 9.25966 17.0124 9.39067C17.0643 9.52167 17.0898 9.66169 17.0872 9.80261C17.0847 9.94353 17.0541 10.0825 16.9974 10.2116C16.9407 10.3406 16.859 10.4571 16.7569 10.5543L12.0105 15.1899Z" fill="currentColor"></path>
  </symbol>
  <symbol fill="none" xmlns="http://www.w3.org/2000/svg" viewBox="0 0 22 22" id="ic_redelegate">
    <path d="M21.3881 5.06603C20.4345 4.58522 19.4771 4.11067 18.5216 3.63298C18.4397 3.59171 18.3596 3.54607 18.2495 3.4873C18.2495 3.4873 18.2501 3.4873 18.2501 3.48667L17.1088 2.9152C16.7909 2.75577 16.3717 2.54631 15.8917 2.30622C15.9036 2.30997 15.9155 2.31309 15.928 2.31622C15.9236 2.31435 15.9199 2.31184 15.9155 2.30934C15.8773 2.29934 15.8398 2.28558 15.8085 2.27058C14.4063 1.57281 13.0034 0.875039 11.6093 0.160387C11.1976 -0.0509447 10.824 -0.0546962 10.4104 0.156636C9.00879 0.874413 7.59842 1.57468 6.18804 2.27496C6.15988 2.28871 6.12672 2.30059 6.09168 2.30934C5.61425 2.54819 5.19752 2.75639 4.88091 2.9152L3.75273 3.48042C3.75586 3.48167 3.75899 3.48292 3.76211 3.4848C3.66951 3.53482 3.60255 3.57233 3.53435 3.60672C2.57136 4.08816 1.60963 4.57084 0.645392 5.04915C0.341917 5.19921 0.122914 5.41617 0.044699 5.75255C-0.0685567 6.23899 0.141686 6.67103 0.618486 6.91237C1.28926 7.25188 1.96254 7.58764 2.63456 7.92402L4.43289 7.02304C4.55991 6.95927 4.70383 6.88736 4.86088 6.80858C4.86401 6.81046 4.86776 6.81171 4.87089 6.81359C4.87465 6.81234 4.8784 6.81108 4.88216 6.80983C4.88654 6.81171 4.89029 6.81421 4.89467 6.81609C6.40642 6.05954 8.48694 5.01852 9.9017 4.30949C9.9017 4.30449 10.2315 4.13693 10.5343 3.98437C10.849 3.8787 11.1932 3.84681 11.5129 3.98061C13.0503 4.75404 15.5201 6.00327 17.1288 6.80858C17.2858 6.88736 17.4298 6.95927 17.5568 7.02304L19.3632 7.92777C20.0321 7.59264 20.7004 7.25813 21.3699 6.92613C21.6734 6.77607 21.8918 6.55911 21.9694 6.22148C22.0814 5.73879 21.8693 5.30863 21.3881 5.06603Z" fill="currentColor"></path>
    <path d="M21.9724 15.7677C21.9724 15.767 21.9718 15.7664 21.9718 15.7658C21.9674 15.7464 21.9624 15.727 21.9561 15.7076C21.9499 15.687 21.9436 15.667 21.9361 15.6476C21.9361 15.6476 21.9361 15.647 21.9355 15.647C21.8391 15.3863 21.6326 15.1931 21.3473 15.0586C21.3354 15.053 21.3241 15.0474 21.3129 15.0418C20.669 14.716 20.0233 14.394 19.3781 14.0714L19.3756 14.0726L17.5798 14.9724C17.4528 15.0361 17.3089 15.108 17.1518 15.1868C17.1487 15.1849 17.1449 15.1837 17.1418 15.1818C17.1406 15.1812 17.1387 15.1806 17.1374 15.1793C17.1349 15.1812 17.1324 15.1831 17.1293 15.1849C17.1255 15.1831 17.1218 15.1812 17.118 15.1793C15.6063 15.9358 13.5258 16.9769 12.111 17.6859C12.111 17.6909 11.7812 17.8585 11.4784 18.011C11.1637 18.1167 10.8195 18.1486 10.4998 18.0148C8.96299 17.2414 6.49389 15.9927 4.88516 15.1874C4.88579 15.1868 4.88704 15.1868 4.88766 15.1862C4.88766 15.1856 4.88704 15.1856 4.88704 15.1849C4.88579 15.1856 4.88516 15.1862 4.88391 15.1862C4.72685 15.1074 4.58294 15.0355 4.45591 14.9717L2.65321 14.0689C2.65321 14.0689 2.65321 14.0689 2.65258 14.0689L2.65008 14.0676C1.98118 14.4028 1.31291 14.7373 0.64339 15.0693C0.356809 15.2112 0.147818 15.4138 0.0595911 15.7201C0.0545853 15.7364 0.0489538 15.7514 0.0451995 15.7683C0.0445738 15.7695 0.0445738 15.7714 0.0445738 15.7727C0.0445738 15.7733 0.0445738 15.7733 0.043948 15.7739C0.0426966 15.7789 0.0420709 15.7845 0.0408194 15.7895C-0.0161213 16.0465 0.017042 16.281 0.135303 16.4842C0.229162 16.6493 0.376206 16.7918 0.572683 16.9012C0.607098 16.9212 0.642764 16.9412 0.680307 16.96C1.66144 17.4508 2.64195 17.9416 3.62308 18.4324C3.66563 18.4556 3.7113 18.4806 3.76387 18.5087C3.76387 18.5087 3.76324 18.5087 3.76324 18.5093L4.90456 19.0808C5.22242 19.2403 5.64166 19.4497 6.12159 19.6898C6.1097 19.6861 6.09781 19.6829 6.08529 19.6798C6.08967 19.6817 6.09343 19.6842 6.09781 19.6867C6.13598 19.6967 6.17352 19.7104 6.20481 19.7254C6.24861 19.7473 6.29241 19.7692 6.33621 19.7911C7.46126 20.3544 8.5863 20.9184 9.71135 21.483C9.94224 21.6005 10.1738 21.7175 10.404 21.8356C10.5117 21.8913 10.6168 21.9319 10.7213 21.9582C10.959 22.0232 11.1906 22.0107 11.4302 21.915C11.4872 21.8938 11.5447 21.8688 11.6035 21.8388C12.0153 21.6281 12.4276 21.4192 12.8406 21.211C13.1109 21.0766 13.3818 20.9428 13.6515 20.8071C14.1859 20.5395 14.7196 20.2719 15.254 20.0049C15.4448 19.9099 15.6351 19.8155 15.8259 19.7204C15.8541 19.7067 15.8872 19.6948 15.9223 19.686C16.3997 19.4472 16.8164 19.239 17.133 19.0802L18.2612 18.515C18.2581 18.5137 18.255 18.5125 18.2518 18.5106C18.3144 18.4768 18.3651 18.4487 18.4126 18.4237C19.3293 17.9648 20.2466 17.5058 21.1639 17.0482C21.2321 17.0144 21.3004 16.98 21.3686 16.9462C21.5312 16.8656 21.6689 16.7649 21.7746 16.6374C21.9067 16.4823 21.9855 16.2935 21.9968 16.0634C21.9968 16.0621 21.9968 16.0609 21.9968 16.0596C21.9974 16.0415 21.9987 16.024 21.9987 16.0059C21.9987 16.004 21.9987 16.0028 21.9987 16.0009C21.9987 15.9208 21.9899 15.8427 21.9724 15.7677Z" fill="currentColor"></path>
    <path d="M15.9387 14.6804C15.933 14.6817 15.9274 14.6829 15.9218 14.6842C15.9199 14.6854 15.9174 14.686 15.9155 14.6873C15.923 14.6848 15.9312 14.6823 15.9387 14.6804Z" fill="currentColor"></path>
    <path d="M10.9863 16.9601C10.8349 16.9601 10.6835 16.9257 10.5439 16.8569L6.70012 14.965C6.20393 14.7205 5.99994 14.1209 6.2446 13.6257C6.48926 13.1305 7.08932 12.926 7.5849 13.1705L10.9844 14.8437L16.7248 11.9944H12.8635C12.3103 11.9944 11.8623 11.5468 11.8623 10.994C11.8623 10.4413 12.3103 9.99365 12.8635 9.99365H20.9904C21.4553 9.99365 21.8589 10.3132 21.9652 10.7652C22.0716 11.2173 21.852 11.6831 21.4359 11.89L11.4318 16.8557C11.291 16.9251 11.1384 16.9601 10.9863 16.9601Z" fill="currentColor"></path>
    <path d="M9.129 12.0063H1.0015C0.536587 12.0063 0.132996 11.6868 0.0266234 11.2348C-0.0797493 10.7827 0.139879 10.3169 0.555984 10.11L10.56 5.14429C10.8397 5.00549 11.1676 5.00486 11.4479 5.14304L15.2917 7.03502C15.7879 7.27949 15.9919 7.8791 15.7473 8.37429C15.5026 8.87011 14.9025 9.07393 14.407 8.82947L11.0074 7.15632L5.26705 10.0055H9.12838C9.68151 10.0055 10.1295 10.4532 10.1295 11.0059C10.1295 11.5586 9.68151 12.0063 9.129 12.0063Z" fill="currentColor"></path>
  </symbol>
  <symbol fill="none" xmlns="http://www.w3.org/2000/svg" viewBox="0 0 19 19" id="ic_reset">
    <path fill-rule="evenodd" clip-rule="evenodd" d="M9.5 18.5C14.4706 18.5 18.5 14.4706 18.5 9.5C18.5 4.52944 14.4706 0.5 9.5 0.5C4.52944 0.5 0.5 4.52944 0.5 9.5C0.5 14.4706 4.52944 18.5 9.5 18.5ZM13.0355 5.96446C13.4261 6.35499 13.4261 6.98815 13.0355 7.37868L10.9142 9.50001L13.0355 11.6213C13.4261 12.0119 13.4261 12.645 13.0355 13.0356C12.645 13.4261 12.0118 13.4261 11.6213 13.0356L9.49999 10.9142L7.37868 13.0355C6.98816 13.4261 6.35499 13.4261 5.96447 13.0355C5.57394 12.645 5.57394 12.0118 5.96447 11.6213L8.08577 9.50001L5.96447 7.37871C5.57394 6.98818 5.57394 6.35502 5.96447 5.96449C6.35499 5.57397 6.98816 5.57397 7.37868 5.96449L9.49999 8.0858L11.6213 5.96446C12.0118 5.57394 12.645 5.57394 13.0355 5.96446Z" fill="currentColor"></path>
  </symbol>
  <symbol fill="none" xmlns="http://www.w3.org/2000/svg" viewBox="0 0 14 14" id="ic_scaner">
    <path fill-rule="evenodd" clip-rule="evenodd" d="M0.676941 9.70645C0.856607 9.70645 1.02891 9.77782 1.15596 9.90487C1.283 10.0319 1.35437 10.2042 1.35437 10.3839V12.4189C1.35437 12.5435 1.45553 12.6447 1.58018 12.6447H12.4191C12.4789 12.6447 12.5364 12.6209 12.5787 12.5786C12.6211 12.5362 12.6449 12.4788 12.6449 12.4189V10.3839C12.6449 10.2042 12.7162 10.0319 12.8433 9.90487C12.9703 9.77782 13.1426 9.70645 13.3223 9.70645C13.502 9.70645 13.6743 9.77782 13.8013 9.90487C13.9284 10.0319 13.9997 10.2042 13.9997 10.3839V12.4189C13.9997 12.8381 13.8332 13.2401 13.5368 13.5366C13.2403 13.833 12.8383 13.9995 12.4191 13.9995H1.58018C1.16096 13.9995 0.758912 13.833 0.462479 13.5366C0.166046 13.2401 -0.000488281 12.8381 -0.000488281 12.4189V10.3839C-0.000488281 10.2042 0.0708835 10.0319 0.197926 9.90487C0.324969 9.77782 0.497276 9.70645 0.676941 9.70645Z" fill="currentColor"></path>
    <path fill-rule="evenodd" clip-rule="evenodd" d="M0.67743 4.29312C0.857095 4.29312 1.0294 4.22175 1.15644 4.09471C1.28349 3.96766 1.35486 3.79536 1.35486 3.61569V1.58069C1.35486 1.45605 1.45602 1.35488 1.58067 1.35488H12.4195C12.4794 1.35488 12.5369 1.37867 12.5792 1.42102C12.6216 1.46337 12.6454 1.5208 12.6454 1.58069V3.61569C12.6454 3.79536 12.7167 3.96766 12.8438 4.09471C12.9708 4.22175 13.1431 4.29312 13.3228 4.29312C13.5024 4.29312 13.6748 4.22175 13.8018 4.09471C13.9288 3.96766 14.0002 3.79536 14.0002 3.61569V1.58069C14.0002 1.16147 13.8337 0.759424 13.5372 0.462991C13.2408 0.166558 12.8388 2.3365e-05 12.4195 2.3365e-05H1.58067C1.16145 2.3365e-05 0.7594 0.166558 0.462967 0.462991C0.166534 0.759424 0 1.16147 0 1.58069V3.61569C0 3.79536 0.0713718 3.96766 0.198414 4.09471C0.325457 4.22175 0.497764 4.29312 0.67743 4.29312Z" fill="currentColor"></path>
    <path fill-rule="evenodd" clip-rule="evenodd" d="M2.54541 6.95892C2.54541 6.77926 2.61678 6.60695 2.74382 6.47991C2.87087 6.35286 3.04317 6.28149 3.22284 6.28149L10.5264 6.28149C10.7061 6.28149 10.8784 6.35286 11.0055 6.47991C11.1325 6.60695 11.2039 6.77926 11.2039 6.95892C11.2039 7.13859 11.1325 7.31089 11.0055 7.43794C10.8784 7.56498 10.7061 7.63635 10.5264 7.63635L3.22374 7.63635C3.04408 7.63635 2.87177 7.56498 2.74473 7.43794C2.61769 7.31089 2.54541 7.13859 2.54541 6.95892Z" fill="currentColor"></path>
  </symbol>
  <symbol fill="none" xmlns="http://www.w3.org/2000/svg" viewBox="0 0 16 16" id="ic_search">
    <path fill-rule="evenodd" clip-rule="evenodd" d="M9.61761 11.0317C8.73155 11.6424 7.65754 12 6.5 12C3.46243 12 1 9.53757 1 6.5C1 3.46243 3.46243 1 6.5 1C9.53757 1 12 3.46243 12 6.5C12 7.65746 11.6425 8.73141 11.0318 9.61744L15.0011 13.5868L13.5869 15.001L9.61761 11.0317ZM10 6.5C10 8.433 8.433 10 6.5 10C4.567 10 3 8.433 3 6.5C3 4.567 4.567 3 6.5 3C8.433 3 10 4.567 10 6.5Z" fill="currentColor"></path>
  </symbol>
  <symbol fill="none" xmlns="http://www.w3.org/2000/svg" viewBox="0 0 22 22" id="ic_send">
    <path fill-rule="evenodd" clip-rule="evenodd" d="M1.06404 15.253C1.34638 15.253 1.61714 15.3651 1.81678 15.5648C2.01642 15.7644 2.12858 16.0352 2.12858 16.3175V19.5154C2.12858 19.7113 2.28755 19.8702 2.48342 19.8702H19.5159C19.61 19.8702 19.7003 19.8328 19.7668 19.7663C19.8334 19.6997 19.8708 19.6095 19.8708 19.5154V16.3175C19.8708 16.0352 19.9829 15.7644 20.1826 15.5648C20.3822 15.3651 20.653 15.253 20.9353 15.253C21.2176 15.253 21.4884 15.3651 21.688 15.5648C21.8877 15.7644 21.9998 16.0352 21.9998 16.3175V19.5154C21.9998 20.1742 21.7381 20.8059 21.2723 21.2718C20.8065 21.7376 20.1747 21.9993 19.5159 21.9993H2.48342C1.82465 21.9993 1.19285 21.7376 0.727032 21.2718C0.261209 20.8059 -0.000488281 20.1742 -0.000488281 19.5154V16.3175C-0.000488281 16.0352 0.111667 15.7644 0.311306 15.5648C0.510944 15.3651 0.781712 15.253 1.06404 15.253Z" fill="currentColor"></path>
    <path fill-rule="evenodd" clip-rule="evenodd" d="M11.2867 1.88672C11.569 1.88672 11.8398 1.99887 12.0394 2.19851C12.2391 2.39815 12.3512 2.66892 12.3512 2.95125V14.4283C12.3512 14.7107 12.2391 14.9814 12.0394 15.1811C11.8398 15.3807 11.569 15.4929 11.2867 15.4929C11.0044 15.4929 10.7336 15.3807 10.534 15.1811C10.3343 14.9814 10.2222 14.7107 10.2222 14.4283V2.95267C10.2222 2.67034 10.3343 2.39957 10.534 2.19993C10.7336 2.00029 11.0044 1.88672 11.2867 1.88672Z" fill="currentColor"></path>
    <path fill-rule="evenodd" clip-rule="evenodd" d="M10.5427 0.302672C10.7416 0.108472 11.0085 -0.000244141 11.2865 -0.000244141C11.5644 -0.000244141 11.8314 0.108472 12.0302 0.302672L16.7766 4.93835C16.9744 5.13652 17.0861 5.40463 17.0877 5.6846C17.0892 5.96457 16.9803 6.23387 16.7847 6.43416C16.5891 6.63446 16.3224 6.74962 16.0425 6.75471C15.7626 6.75979 15.4919 6.6544 15.2891 6.46134L11.2865 2.55238L7.28383 6.46134C7.18427 6.5611 7.06589 6.6401 6.93556 6.69374C6.80523 6.74739 6.66554 6.77463 6.5246 6.77386C6.38367 6.7731 6.24428 6.74436 6.11454 6.68931C5.98479 6.63426 5.86727 6.55399 5.76879 6.45316C5.67032 6.35233 5.59284 6.23295 5.54086 6.10195C5.48888 5.97094 5.46344 5.83092 5.466 5.69C5.46856 5.54909 5.49908 5.41008 5.55578 5.28105C5.61249 5.15202 5.69425 5.03554 5.79632 4.93835L10.5427 0.302672Z" fill="currentColor"></path>
  </symbol>
  <symbol fill="none" xmlns="http://www.w3.org/2000/svg" viewBox="0 0 24 24" id="ic_share">
    <path d="M19.3333 24C18.3148 24 17.4491 23.65 16.7361 22.95C16.0231 22.25 15.6667 21.4 15.6667 20.4C15.6667 20.26 15.6769 20.1148 15.6972 19.9644C15.7176 19.814 15.7481 19.6792 15.7889 19.56L7.17222 14.64C6.82593 14.94 6.43889 15.1752 6.01111 15.3456C5.58333 15.516 5.13519 15.6008 4.66667 15.6C3.64815 15.6 2.78241 15.25 2.06944 14.55C1.35648 13.85 1 13 1 12C1 11 1.35648 10.15 2.06944 9.45C2.78241 8.75 3.64815 8.4 4.66667 8.4C5.13519 8.4 5.58333 8.4852 6.01111 8.6556C6.43889 8.826 6.82593 9.0608 7.17222 9.36L15.7889 4.44C15.7481 4.32 15.7176 4.1852 15.6972 4.0356C15.6769 3.886 15.6667 3.7408 15.6667 3.6C15.6667 2.6 16.0231 1.75 16.7361 1.05C17.4491 0.35 18.3148 0 19.3333 0C20.3519 0 21.2176 0.35 21.9306 1.05C22.6435 1.75 23 2.6 23 3.6C23 4.6 22.6435 5.45 21.9306 6.15C21.2176 6.85 20.3519 7.2 19.3333 7.2C18.8648 7.2 18.4167 7.1152 17.9889 6.9456C17.5611 6.776 17.1741 6.5408 16.8278 6.24L8.21111 11.16C8.25185 11.28 8.28241 11.4152 8.30278 11.5656C8.32315 11.716 8.33333 11.8608 8.33333 12C8.33333 12.1392 8.32315 12.2844 8.30278 12.4356C8.28241 12.5868 8.25185 12.7216 8.21111 12.84L16.8278 17.76C17.1741 17.46 17.5611 17.2252 17.9889 17.0556C18.4167 16.886 18.8648 16.8008 19.3333 16.8C20.3519 16.8 21.2176 17.15 21.9306 17.85C22.6435 18.55 23 19.4 23 20.4C23 21.4 22.6435 22.25 21.9306 22.95C21.2176 23.65 20.3519 24 19.3333 24ZM19.3333 4.8C19.6796 4.8 19.9701 4.6852 20.2048 4.4556C20.4394 4.226 20.5564 3.9408 20.5556 3.6C20.5547 3.2592 20.4374 2.9744 20.2036 2.7456C19.9697 2.5168 19.6796 2.4016 19.3333 2.4C18.987 2.3984 18.697 2.5136 18.4631 2.7456C18.2293 2.9776 18.1119 3.2624 18.1111 3.6C18.1103 3.9376 18.2276 4.2228 18.4631 4.4556C18.6986 4.6884 18.9887 4.8032 19.3333 4.8ZM4.66667 13.2C5.01296 13.2 5.30344 13.0848 5.53811 12.8544C5.77278 12.624 5.8897 12.3392 5.88889 12C5.88807 11.6608 5.77074 11.376 5.53689 11.1456C5.30304 10.9152 5.01296 10.8 4.66667 10.8C4.32037 10.8 4.0303 10.9152 3.79644 11.1456C3.56259 11.376 3.44526 11.6608 3.44444 12C3.44363 12.3392 3.56096 12.6244 3.79644 12.8556C4.03193 13.0868 4.322 13.2016 4.66667 13.2ZM19.3333 21.6C19.6796 21.6 19.9701 21.4848 20.2048 21.2544C20.4394 21.024 20.5564 20.7392 20.5556 20.4C20.5547 20.0608 20.4374 19.776 20.2036 19.5456C19.9697 19.3152 19.6796 19.2 19.3333 19.2C18.987 19.2 18.697 19.3152 18.4631 19.5456C18.2293 19.776 18.1119 20.0608 18.1111 20.4C18.1103 20.7392 18.2276 21.0244 18.4631 21.2556C18.6986 21.4868 18.9887 21.6016 19.3333 21.6Z" fill="currentColor"></path>
  </symbol>
  <symbol fill="none" xmlns="http://www.w3.org/2000/svg" viewBox="0 0 22 22" id="ic_stake">
    <path d="M0.617616 6.92855C1.52667 7.37815 2.43322 7.83275 3.34103 8.28609C3.47 8.34988 3.59772 8.41678 3.75424 8.49682C3.75236 8.49807 3.74985 8.49932 3.74797 8.49995L4.89431 9.07398C5.21236 9.23343 5.63182 9.44291 6.11202 9.68303C6.11265 9.68366 6.11327 9.68365 6.1139 9.68365C6.14019 9.69241 6.16461 9.70304 6.18652 9.71367C7.50441 10.3696 8.82354 11.0212 10.1327 11.694C10.204 11.7303 10.2754 11.7672 10.3468 11.8041C10.385 11.8241 10.4232 11.8422 10.4607 11.8585C10.7875 12.001 11.0924 12.0173 11.4142 11.9079C11.4148 11.9079 11.4161 11.9072 11.4167 11.9066C11.4944 11.8804 11.5732 11.846 11.654 11.8047C13.0332 11.0943 14.4244 10.4065 15.8143 9.71805C15.8462 9.70241 15.885 9.68928 15.9251 9.68115C15.9276 9.6799 15.9301 9.67865 15.9326 9.6774C15.9257 9.67928 15.9182 9.68115 15.9113 9.68303C16.3915 9.44291 16.811 9.23343 17.129 9.07398L18.2678 8.5037C18.2622 8.50058 18.2559 8.49682 18.2497 8.4937C19.1043 8.06724 19.9363 7.65016 20.7646 7.23746C20.9706 7.13491 21.1766 7.03236 21.3825 6.93043C21.7676 6.73971 21.9942 6.43769 21.9973 6.00873C22.0005 5.58039 21.7807 5.27212 21.3957 5.08015C18.095 3.42871 14.7944 1.77603 11.4937 0.123343C11.1638 -0.0417374 10.8364 -0.0411121 10.5052 0.125219C7.20577 1.7779 3.90637 3.43059 0.606346 5.08077C0.22006 5.27399 0.000934914 5.57914 0.0034392 6.00748C0.00531742 6.43706 0.231955 6.73846 0.617616 6.92855Z" fill="currentColor"></path>
    <path d="M0.61242 11.9255C1.56655 12.4064 2.52444 12.881 3.48045 13.3587C3.56247 13.4 3.64261 13.4456 3.7528 13.5044C3.7528 13.5044 3.75217 13.5044 3.75217 13.505L4.89412 14.0766C5.21217 14.236 5.63164 14.4455 6.11183 14.6856C6.09994 14.6819 6.08804 14.6787 6.07552 14.6756C6.0799 14.6775 6.08366 14.68 6.08804 14.6825C6.12623 14.6925 6.1638 14.7062 6.1951 14.7212C7.59813 15.4191 9.00178 16.1169 10.3967 16.8317C10.8086 17.043 11.1824 17.0468 11.5962 16.8354C12.9986 16.1176 14.4098 15.4172 15.821 14.7169C15.8491 14.7031 15.8823 14.6912 15.9174 14.6825C16.3951 14.4436 16.812 14.2354 17.1288 14.0766L18.2576 13.5113C18.2545 13.51 18.2514 13.5088 18.2482 13.5069C18.3409 13.4569 18.4079 13.4194 18.4761 13.385C19.4396 12.9035 20.4019 12.4207 21.3667 11.9424C21.6703 11.7923 21.8895 11.5753 21.9677 11.2389C22.081 10.7524 21.8707 10.3203 21.3936 10.079C20.7225 9.73943 20.0488 9.40364 19.3764 9.06723L17.5771 9.9683C17.45 10.0321 17.306 10.104 17.1489 10.1828C17.1457 10.1809 17.142 10.1796 17.1388 10.1778C17.1351 10.179 17.1313 10.1803 17.1276 10.1815C17.1232 10.1796 17.1194 10.1771 17.115 10.1753C15.6025 10.9319 13.5208 11.973 12.1052 12.6821C12.1052 12.6871 11.7753 12.8547 11.4723 13.0073C11.1573 13.113 10.813 13.1449 10.4931 13.011C8.95483 12.2375 6.48372 10.9882 4.87409 10.1828C4.71695 10.104 4.57295 10.0321 4.44586 9.9683L2.63839 9.06348C1.96912 9.39864 1.30047 9.73318 0.630576 10.0652C0.326932 10.2153 0.108433 10.4323 0.0307998 10.7699C-0.081267 11.2527 0.130971 11.6829 0.61242 11.9255Z" fill="currentColor"></path>
    <path d="M21.9716 15.7668C21.9716 15.7661 21.971 15.7655 21.971 15.7649C21.9666 15.7455 21.9616 15.7261 21.9553 15.7067C21.9491 15.6861 21.9428 15.6661 21.9353 15.6467C21.9353 15.6467 21.9353 15.6461 21.9347 15.6461C21.8382 15.3853 21.6316 15.1921 21.3462 15.0577C21.3343 15.052 21.323 15.0464 21.3117 15.0408C20.6675 14.715 20.0214 14.393 19.3759 14.0703L19.3734 14.0715L17.5766 14.9714C17.4495 15.0351 17.3055 15.1071 17.1483 15.1858C17.1452 15.184 17.1415 15.1827 17.1383 15.1808C17.1371 15.1802 17.1352 15.1796 17.1339 15.1783C17.1314 15.1802 17.1289 15.1821 17.1258 15.184C17.122 15.1821 17.1183 15.1802 17.1145 15.1783C15.6019 15.935 13.5203 16.9761 12.1047 17.6852C12.1047 17.6902 11.7748 17.8578 11.4718 18.0104C11.1568 18.116 10.8125 18.1479 10.4926 18.0141C8.95494 17.2406 6.48447 15.9919 4.87484 15.1865C4.87546 15.1858 4.87671 15.1858 4.87734 15.1852C4.87734 15.1846 4.87671 15.1846 4.87671 15.184C4.87546 15.1846 4.87484 15.1852 4.87358 15.1852C4.71644 15.1064 4.57244 15.0345 4.44535 14.9707L2.64101 14.0672C2.64101 14.0672 2.64101 14.0672 2.64039 14.0672L2.63788 14.0659C1.96861 14.4011 1.29997 14.7356 0.63007 15.0677C0.343329 15.2096 0.134221 15.4122 0.0459449 15.7186C0.0409363 15.7349 0.0353017 15.7499 0.0315452 15.7668C0.0309192 15.768 0.0309192 15.7699 0.0309192 15.7711C0.0309192 15.7718 0.0309192 15.7718 0.0302931 15.7724C0.0290409 15.7774 0.0284149 15.783 0.0271627 15.788C-0.0298098 16.045 0.003372 16.2795 0.1217 16.4827C0.21561 16.6478 0.362737 16.7904 0.559324 16.8998C0.593758 16.9198 0.629444 16.9398 0.667008 16.9586C1.64869 17.4495 2.62974 17.9403 3.61142 18.4312C3.654 18.4543 3.6997 18.4793 3.75229 18.5075C3.75229 18.5075 3.75166 18.5075 3.75166 18.5081L4.89362 19.0796C5.21166 19.2391 5.63113 19.4486 6.11133 19.6887C6.09943 19.6849 6.08754 19.6818 6.07502 19.6787C6.0794 19.6805 6.08315 19.683 6.08754 19.6855C6.12573 19.6956 6.16329 19.7093 6.1946 19.7243C6.23842 19.7462 6.28225 19.7681 6.32607 19.79C7.45175 20.3534 8.57742 20.9174 9.7031 21.4821C9.93412 21.5996 10.1658 21.7165 10.3962 21.8347C10.5038 21.8904 10.609 21.931 10.7136 21.9573C10.9515 22.0223 11.1831 22.0098 11.4229 21.9141C11.4799 21.8929 11.5375 21.8679 11.5963 21.8379C12.0083 21.6271 12.4209 21.4183 12.8341 21.21C13.1045 21.0756 13.3756 20.9418 13.6455 20.8061C14.1801 20.5385 14.7142 20.2708 15.2488 20.0038C15.4398 19.9088 15.6301 19.8144 15.8211 19.7193C15.8492 19.7056 15.8824 19.6937 15.9175 19.6849C16.3952 19.4461 16.8121 19.2378 17.1289 19.079L18.2577 18.5137C18.2546 18.5125 18.2515 18.5112 18.2484 18.5093C18.311 18.4756 18.3617 18.4474 18.4093 18.4224C19.3264 17.9635 20.2443 17.5045 21.1621 17.0468C21.2303 17.013 21.2986 16.9786 21.3668 16.9448C21.5296 16.8642 21.6673 16.7635 21.7731 16.6359C21.9052 16.4809 21.9841 16.292 21.9954 16.0619C21.9954 16.0606 21.9954 16.0594 21.9954 16.0581C21.996 16.04 21.9973 16.0225 21.9973 16.0044C21.9973 16.0025 21.9973 16.0012 21.9973 15.9994C21.9979 15.9193 21.9898 15.8412 21.9716 15.7668Z" fill="currentColor"></path>
    <path d="M15.9343 14.6787C15.9287 14.68 15.923 14.6812 15.9174 14.6825C15.9155 14.6837 15.913 14.6843 15.9111 14.6856C15.9186 14.6831 15.9268 14.6806 15.9343 14.6787Z" fill="currentColor"></path>
  </symbol>
  <symbol fill="none" xmlns="http://www.w3.org/2000/svg" viewBox="0 0 16 16" id="ic_stats">
    <path d="M4 8C4 7.44772 3.55228 7 3 7H1C0.447715 7 0 7.44772 0 8V15C0 15.5523 0.447715 16 1 16H3C3.55228 16 4 15.5523 4 15V8ZM10 1C10 0.447715 9.55229 0 9 0H7C6.44772 0 6 0.447715 6 1V15C6 15.5523 6.44772 16 7 16H9C9.55229 16 10 15.5523 10 15V1ZM16 4C16 3.44772 15.5523 3 15 3H13C12.4477 3 12 3.44772 12 4V15C12 15.5523 12.4477 16 13 16H15C15.5523 16 16 15.5523 16 15V4Z" fill="currentColor"></path>
  </symbol>
  <symbol fill="none" xmlns="http://www.w3.org/2000/svg" viewBox="0 0 22 22" id="ic_unstake">
    <path d="M3.75067 13.5121C3.43489 13.3519 3.15787 13.2111 2.88023 13.0716C2.14047 12.7 1.40322 12.3234 0.659717 11.9605C0.250758 11.7609 -0.00312166 11.4619 0.00125558 10.9958C0.00563281 10.5403 0.258262 10.2519 0.659092 10.0548C1.61208 9.58623 2.55819 9.10325 3.5068 8.62589C3.57558 8.59148 3.64249 8.55457 3.73817 8.50389C3.64124 8.45196 3.57121 8.4113 3.49867 8.37501C2.54318 7.89453 1.58894 7.41029 0.630327 6.93606C0.23575 6.74149 0.00125558 6.44431 4.93824e-06 6.00074C-0.0012457 5.55654 0.235125 5.25874 0.626575 5.06355C3.91513 3.42064 7.20306 1.77523 10.4897 0.128571C10.8299 -0.0416006 11.162 -0.0434775 11.5009 0.126694C14.7957 1.77648 18.0911 3.42627 21.3872 5.07418C21.7711 5.26625 22 5.56718 22 5.99699C22.0006 6.43743 21.7649 6.73961 21.3716 6.93418C20.4136 7.40966 19.46 7.89265 18.5045 8.37313C18.43 8.41067 18.3563 8.45071 18.2537 8.50389C18.5551 8.65717 18.8321 8.79856 19.1098 8.93808C19.8564 9.31346 20.6005 9.69322 21.3509 10.0611C21.753 10.2582 21.9944 10.5585 21.9919 11.0127C21.9894 11.4669 21.7399 11.7603 21.3397 11.9574C20.3798 12.4304 19.4268 12.9165 18.4713 13.3976C18.4094 13.4289 18.3494 13.4633 18.2631 13.5096C18.3544 13.5596 18.4232 13.6003 18.4951 13.6359C19.4368 14.1089 20.3767 14.5856 21.3222 15.0511C21.728 15.2507 21.9919 15.5429 21.9931 16.0096C21.9944 16.4757 21.7336 16.7685 21.3278 16.9712C18.0792 18.5922 14.8326 20.2163 11.5891 21.8473C11.1845 22.0507 10.8137 22.0513 10.4078 21.8467C7.16367 20.2163 3.91763 18.5934 0.669097 16.9731C0.26389 16.771 4.93824e-06 16.4807 4.93824e-06 16.014C-0.000620381 15.5472 0.262014 15.2551 0.668472 15.0549C1.68399 14.555 2.69326 14.0426 3.75067 13.5121ZM3.24791 5.99386C3.29106 6.02201 3.30294 6.03202 3.3167 6.03891C5.83549 7.3008 8.35365 8.56332 10.8756 9.81771C10.9519 9.85588 11.0863 9.83398 11.1701 9.79269C13.0786 8.84486 14.9833 7.88952 16.8893 6.93606C17.5008 6.63013 18.113 6.32419 18.7471 6.00637C18.6695 5.9607 18.6189 5.92567 18.5645 5.89876C16.1082 4.67003 13.6507 3.44316 11.197 2.20942C11.0456 2.13309 10.9325 2.1431 10.7868 2.2163C8.83389 3.19792 6.87789 4.17327 4.92315 5.15114C4.37349 5.42704 3.82383 5.70482 3.24791 5.99386ZM3.24479 16.0083C3.3117 16.0471 3.34421 16.0678 3.37798 16.0853C5.86988 17.3334 8.36053 18.5822 10.8568 19.8216C10.945 19.8653 11.0994 19.8422 11.1957 19.7947C13.3418 18.7298 15.4835 17.6575 17.6259 16.5858C17.9942 16.4019 18.3606 16.2142 18.7583 16.0133C17.8466 15.556 16.9706 15.1131 16.0876 14.6826C16.0182 14.6488 15.8931 14.6889 15.8112 14.7295C14.3911 15.4334 12.9716 16.1372 11.5584 16.8529C11.1688 17.0506 10.8093 17.0438 10.421 16.8467C9.00773 16.1297 7.58826 15.4259 6.16816 14.7227C6.08812 14.6832 5.96305 14.6551 5.89239 14.6895C5.01632 15.1168 4.14587 15.5566 3.24479 16.0083ZM3.24354 11.0045C3.34296 11.0583 3.39049 11.0852 3.43864 11.1096C5.90302 12.3434 8.36803 13.5746 10.8299 14.8134C10.9719 14.8847 11.075 14.8572 11.1989 14.7952C13.6545 13.5634 16.1114 12.3334 18.5682 11.1021C18.6195 11.0765 18.667 11.0427 18.7421 10.9964C17.8404 10.5453 16.9712 10.1061 16.0951 9.68008C16.0251 9.64567 15.8994 9.68008 15.8181 9.72012C14.4117 10.4158 13.0048 11.1096 11.6078 11.8222C11.1863 12.0375 10.8055 12.0362 10.3847 11.8222C8.99335 11.1134 7.59138 10.4265 6.19755 9.72324C6.04747 9.64754 5.93429 9.64942 5.78734 9.72512C5.10011 10.0786 4.40663 10.4196 3.71503 10.7655C3.57246 10.8375 3.42926 10.9107 3.24354 11.0045Z" fill="currentColor"></path>
  </symbol>
  <symbol xmlns="http://www.w3.org/2000/svg" viewBox="0 0 16 16" id="ic_user">
    <path d="M3.33325 13.3332V12.6665C3.33325 11.4288 3.82492 10.2418 4.70009 9.36667C5.57526 8.4915 6.76224 7.99984 7.99992 7.99984V7.99984C9.2376 7.99984 10.4246 8.4915 11.2997 9.36667C12.1749 10.2418 12.6666 11.4288 12.6666 12.6665V13.3332M7.99992 7.99984C8.70716 7.99984 9.38544 7.71889 9.88554 7.21879C10.3856 6.71869 10.6666 6.04041 10.6666 5.33317C10.6666 4.62593 10.3856 3.94765 9.88554 3.44755C9.38544 2.94746 8.70716 2.6665 7.99992 2.6665C7.29267 2.6665 6.6144 2.94746 6.1143 3.44755C5.6142 3.94765 5.33325 4.62593 5.33325 5.33317C5.33325 6.04041 5.6142 6.71869 6.1143 7.21879C6.6144 7.71889 7.29267 7.99984 7.99992 7.99984V7.99984Z" stroke="currentColor" stroke-linecap="round" stroke-linejoin="round" fill="none"></path>
  </symbol>
</svg>