<svg width="584" height="319" viewBox="0 0 584 319" fill="none" xmlns="http://www.w3.org/2000/svg">
<g opacity="0.01">
<path d="M129.062 147.389C167.702 136.623 206.078 125.356 244.309 113.815C263.456 108.108 282.524 102.251 301.585 96.3757L330.18 87.5753L358.692 78.62C396.761 66.7788 434.6 54.5002 472.505 42.3492C491.448 36.2554 510.219 29.8367 528.694 22.862C547.167 15.8812 565.445 8.53588 583.095 0.00585938C566.141 9.84516 549.813 20.8692 533.679 32.2577C517.549 43.6524 501.716 55.5999 486.053 67.8785C454.749 92.4661 423.378 116.926 392.235 141.821L368.841 160.418L345.53 179.173C329.985 191.67 314.447 204.18 298.991 216.841C268.012 242.039 237.176 267.511 206.607 293.484C170.968 323.761 117.534 319.417 87.2564 283.778C56.9791 248.139 61.3231 194.705 96.962 164.428C106.513 156.314 117.743 150.594 129.062 147.389Z" fill="#008CFF"/>
</g>
<g opacity="0.01">
<path d="M130.168 149.477C168.692 138.492 206.962 127.025 245.086 115.29C264.181 109.482 283.201 103.531 302.208 97.5614L330.726 88.6182L359.166 79.5232C397.138 67.4937 434.882 55.0419 472.693 42.7147C491.591 36.5328 510.319 30.0351 528.761 22.9966C547.2 15.9551 565.451 8.55509 583.091 0.00683594C566.125 9.82791 549.77 20.7973 533.606 32.1251C517.442 43.4559 501.567 55.3275 485.859 67.5149C454.46 91.9264 422.995 116.21 391.755 140.919L368.288 159.38L344.901 177.992C329.305 190.392 313.718 202.811 298.207 215.372C267.125 240.376 236.182 265.644 205.495 291.398C170.746 320.563 118.931 316.04 89.7623 281.288C60.5968 246.539 65.12 194.724 99.872 165.556C108.921 157.964 119.517 152.563 130.168 149.477Z" fill="#008CFF"/>
</g>
<g opacity="0.01">
<path d="M131.276 151.563C169.686 140.363 207.846 128.688 245.87 116.759C264.913 110.854 283.881 104.806 302.84 98.7422L331.285 89.6593L359.649 80.4245C397.521 68.2097 435.174 55.5818 472.891 43.0753C491.74 36.8054 510.425 30.2286 528.834 23.1263C547.24 16.021 565.463 8.56941 583.091 0.00292969C566.116 9.80578 549.734 20.7235 533.536 31.9875C517.339 43.2545 501.421 55.0471 485.664 67.1465C454.172 91.3787 422.616 115.489 391.275 140.013L367.735 158.334L344.272 176.804C328.627 189.109 312.989 201.431 297.427 213.895C266.241 238.704 235.189 263.768 204.389 289.307C170.533 317.376 120.334 312.689 92.2655 278.833C64.1966 244.977 68.8838 194.778 102.74 166.709C111.288 159.622 121.267 154.531 131.276 151.563Z" fill="#008CFF"/>
</g>
<g opacity="0.01">
<path d="M132.385 153.65C170.679 142.231 208.733 130.356 246.65 118.229C265.639 112.224 284.559 106.081 303.466 99.9239L331.835 90.6982L360.129 81.3298C397.903 68.9297 435.462 56.1286 473.085 43.4429C491.883 37.0757 510.544 30.4473 528.898 23.2418C547.291 16.1152 565.472 8.58156 583.097 0.00292969C566.116 9.79666 549.691 20.6293 533.482 31.872C517.23 43.0358 501.284 54.7768 485.476 66.7789C453.889 90.8349 422.239 114.769 390.801 139.108L367.186 157.292L343.646 175.619C327.95 187.831 312.263 200.058 296.649 212.421C265.357 237.033 234.199 261.897 203.283 287.217C170.333 314.204 121.741 309.371 94.7534 276.418C67.766 243.467 72.599 194.875 105.553 167.888C113.615 161.29 122.995 156.496 132.385 153.65Z" fill="#008CFF"/>
</g>
<g opacity="0.01">
<path d="M133.491 155.738C171.669 144.103 209.614 132.025 247.431 119.704C266.368 113.598 285.236 107.361 304.094 101.11L332.388 91.7411L360.609 82.2329C398.283 69.6444 435.751 56.6702 473.279 43.8083C492.031 37.3531 510.65 30.6457 528.967 23.3794C547.328 16.189 565.478 8.60369 583.094 0.00683594C566.104 9.7793 549.651 20.5633 533.406 31.7423C517.12 42.8453 501.132 54.5073 485.278 66.4214C453.598 90.2981 421.856 114.063 390.318 138.213L366.636 156.257L343.023 174.441C327.278 186.559 311.54 198.688 295.871 210.952C264.476 235.369 233.211 260.03 202.181 285.134C170.138 311.055 123.153 306.091 97.232 274.052C71.3108 242.01 76.2745 195.025 108.314 169.104C115.939 162.934 124.66 158.459 133.491 155.738Z" fill="#008CFF"/>
</g>
<g opacity="0.01">
<path d="M134.6 157.823C172.663 145.97 210.501 133.689 248.212 121.173C267.097 114.97 285.913 108.636 304.72 102.29L332.938 92.779L361.086 83.1341C398.66 70.3603 436.036 57.2099 473.471 44.1718C492.177 37.6285 510.75 30.8422 529.037 23.512C547.364 16.2548 565.487 8.6179 583.094 0.00585938C566.095 9.7601 549.612 20.4925 533.336 31.6046C517.017 42.6438 500.987 54.2268 485.087 66.0528C453.312 89.7534 421.476 113.342 389.841 137.306L366.08 155.214L342.391 173.258C326.595 185.282 310.808 197.317 295.084 209.481C263.586 233.704 232.212 258.161 201.066 283.046C169.944 307.913 124.554 302.843 99.6866 271.718C74.8195 240.596 79.8895 195.206 111.014 170.339C118.18 164.619 126.352 160.421 134.6 157.823Z" fill="#008CFF"/>
</g>
<g opacity="0.0116">
<path d="M135.708 159.911C173.656 147.842 211.385 135.356 248.995 122.646C267.826 116.343 286.594 109.915 305.352 103.472L333.494 93.818L361.569 84.0364C399.045 71.0743 436.328 57.7537 473.668 44.5365C483.003 41.2314 492.289 37.8382 501.542 34.3752C510.744 30.8179 519.994 27.3519 529.113 23.6458C547.407 16.3248 565.502 8.63624 583.097 0.00292969C566.086 9.73895 549.579 20.4197 533.266 31.468C525.085 36.9481 517.032 42.6652 508.93 48.2942C500.877 54.0173 492.864 59.8073 484.896 65.6884C453.026 89.2097 421.1 112.625 389.364 136.401L365.53 154.172L341.766 172.074C325.921 184.003 310.079 195.941 294.307 208.007C262.705 232.036 231.225 256.289 199.963 280.956C169.768 304.784 125.969 299.623 102.141 269.425C78.3128 239.229 83.474 195.431 113.672 171.603C120.383 166.311 128.023 162.386 135.708 159.911Z" fill="#008CFF"/>
</g>
<g opacity="0.0116">
<path d="M136.814 161.997C155.748 155.888 174.561 149.549 193.383 143.224L221.622 133.749L249.776 124.117C268.556 117.713 287.271 111.191 305.978 104.654L334.044 94.8599L362.046 84.9385C399.422 71.7911 436.613 58.2944 473.859 44.9009C483.17 41.5502 492.435 38.1176 501.667 34.615C510.85 31.0244 520.076 27.5188 529.183 23.7824C547.44 16.3976 565.512 8.6574 583.094 0.00585938C566.074 9.72365 549.539 20.3528 533.19 31.3373C524.994 36.787 516.92 42.4646 508.797 48.0571C500.725 53.7408 492.687 59.4912 484.695 65.3268C452.732 88.672 420.711 111.911 388.878 135.502L364.971 153.136L341.131 170.895C325.234 182.73 309.344 194.574 293.52 206.54L269.765 224.46L246.094 242.54C230.31 254.585 214.517 266.615 198.848 278.875C169.622 301.746 127.388 296.591 104.517 267.365C81.6453 238.139 86.8004 195.905 116.027 173.034C122.373 168.067 129.581 164.361 136.814 161.997Z" fill="#008CFF"/>
</g>
<g opacity="0.0145">
<path d="M137.923 164.084C156.8 157.866 175.558 151.423 194.325 144.998L222.482 135.371L250.557 125.59C269.285 119.089 287.949 112.47 306.607 105.838L334.6 95.9018L362.529 85.8438C399.808 72.5111 436.905 58.8381 474.057 45.2685C483.343 41.8753 492.587 38.4001 501.798 34.8581C510.963 31.231 520.17 27.6859 529.259 23.9191C547.483 16.4705 565.524 8.67866 583.1 0.00585938C566.071 9.70238 549.506 20.2799 533.126 31.2006C524.912 36.6169 516.816 42.2581 508.678 47.8141C500.586 53.4583 492.527 59.1692 484.513 64.9592C452.455 88.1252 420.343 111.194 388.41 134.597L364.43 152.091L340.511 169.707C324.566 181.445 308.624 193.198 292.745 205.064L268.911 222.835L245.159 240.76C229.32 252.705 213.475 264.631 197.745 276.782C169.458 298.639 128.807 293.423 106.95 265.135C85.0933 236.848 90.3091 196.196 118.597 174.34C124.508 169.777 131.219 166.323 137.923 164.084Z" fill="#008CFF"/>
</g>
<g opacity="0.0145">
<path d="M139.031 166.171C157.85 159.844 176.554 153.3 195.266 146.772L223.341 136.991L251.337 127.06C270.01 120.459 288.626 113.746 307.235 107.02L335.152 96.9408L363.005 86.7461C400.184 73.2251 437.19 59.382 474.248 45.6301C483.513 42.1944 492.693 38.5977 501.919 35.089C511.069 31.4377 520.252 27.844 529.326 24.0498C547.516 16.5374 565.53 8.69396 583.094 0.00292969C566.052 9.68123 549.463 20.2071 533.047 31.064C524.818 36.453 516.698 42.0455 508.547 47.5803C500.47 53.2579 492.35 58.8474 484.312 64.5948C452.161 87.5845 419.957 110.477 387.924 133.695L363.871 151.052L339.879 168.526C323.882 180.169 307.891 191.825 291.961 203.593L268.051 221.219L244.217 238.989C228.323 250.831 212.424 262.657 196.636 274.698C169.294 295.556 130.222 290.297 109.365 262.954C88.5074 235.611 93.7657 196.54 121.109 175.683C126.607 171.493 132.831 168.286 139.031 166.171Z" fill="#008CFF"/>
</g>
<g opacity="0.0174">
<path d="M140.141 168.259C158.902 161.822 177.551 155.176 196.209 148.547L224.201 138.611L252.118 128.534C270.74 121.833 289.304 115.025 307.861 108.206C326.44 101.425 344.974 94.5601 363.483 87.6492C400.562 73.9428 437.476 59.9236 474.44 45.9955C483.681 42.5142 492.843 38.881 502.047 35.3299C511.178 31.6421 520.34 28.0119 529.399 24.1874C547.556 16.6112 565.542 8.71609 583.097 0.00683594C566.046 9.66691 549.43 20.1411 532.98 30.9312C524.736 36.2898 516.595 41.8459 508.423 47.3412C500.325 52.9762 492.183 58.5262 484.121 64.2311C451.875 87.0417 419.578 109.761 387.448 132.793C371.354 144.255 355.281 155.756 339.254 167.345C323.205 178.894 307.166 190.456 291.181 202.124L267.192 219.6L243.279 237.219C227.333 248.957 211.376 260.683 195.534 272.612C169.148 292.482 131.647 287.2 111.774 260.814C91.9041 234.425 97.1837 196.926 123.573 177.053C128.664 173.22 134.427 170.249 140.141 168.259Z" fill="#008CFF"/>
</g>
<g opacity="0.0174">
<path d="M141.246 170.345C159.95 163.799 178.544 157.052 197.15 150.317L225.061 140.229L252.899 130.004C271.466 123.202 289.981 116.3 308.487 109.387C327.014 102.509 345.499 95.5495 363.959 88.5505C400.941 74.6558 437.762 60.4634 474.631 46.3591C483.848 42.8323 492.988 39.1627 502.171 35.569C511.285 31.8447 520.425 28.1751 529.466 24.3202C547.586 16.6772 565.548 8.73345 583.091 0.00292969C566.031 9.64174 549.384 20.0673 532.901 30.7936C524.642 36.1219 516.479 41.6384 508.289 47.0973C500.169 52.6898 492.007 58.2033 483.92 63.8627C451.577 86.497 419.192 109.04 386.961 131.887C370.819 143.258 354.697 154.667 338.621 166.159C322.524 177.615 306.433 189.079 290.394 200.65L266.326 217.977L242.331 235.441C226.331 247.079 210.322 258.701 194.419 270.521C168.993 289.422 133.059 284.134 114.158 258.708C95.2574 233.281 100.546 197.348 125.972 178.447C130.681 174.954 135.997 172.21 141.246 170.345Z" fill="#008CFF"/>
</g>
<g opacity="0.0203">
<path d="M142.355 172.432C160.998 165.773 179.543 158.926 198.092 152.091C216.656 145.281 235.201 138.44 253.683 131.474L309.119 110.568C327.594 103.597 346.031 96.5429 364.445 89.4528C401.327 75.3727 438.056 61.0072 474.832 46.7237C484.027 43.1543 493.146 39.4421 502.305 35.809C511.397 32.0482 520.52 28.3422 529.545 24.4538C547.631 16.7471 565.563 8.74864 583.1 0.00292969C566.028 9.62351 549.357 19.9944 532.841 30.66C524.563 35.9578 516.382 41.4349 508.174 46.8604C500.033 52.4103 491.849 57.8874 483.741 63.5012C451.304 85.9563 418.824 108.329 386.497 130.985C370.305 142.264 354.135 153.58 338.008 164.978L289.629 199.177C273.504 210.58 257.447 222.109 241.404 233.667C225.35 245.202 209.286 256.724 193.326 268.434C168.872 286.379 134.499 281.102 116.552 256.645C98.6082 232.191 103.885 197.819 128.342 179.872C132.661 176.7 137.549 174.176 142.355 172.432Z" fill="#008CFF"/>
</g>
<g opacity="0.0203">
<path d="M143.463 174.519C162.048 167.751 180.539 160.8 199.033 153.865C217.542 146.951 236.033 140.01 254.463 132.947L309.744 111.753C328.168 104.684 346.556 97.5392 364.922 90.3579C401.706 76.0926 438.342 61.5509 475.022 47.0911C484.193 43.4762 493.292 39.7276 502.429 36.0519C511.503 32.2547 520.604 28.5092 529.614 24.5935C547.667 16.8229 565.572 8.77283 583.097 0.00585938C566.015 9.60821 549.317 19.9275 532.764 30.5262C524.471 35.7937 516.269 41.2313 508.04 46.6203C499.874 52.1308 491.672 57.5653 483.54 63.1365C451.009 85.4155 418.438 107.612 386.01 130.083C369.77 141.271 353.552 152.495 337.373 163.796L288.838 197.706C272.662 209.016 256.55 220.441 240.453 231.896C224.344 243.327 208.228 254.746 192.207 266.35C168.728 283.353 135.914 278.107 118.909 254.628C101.907 231.152 107.153 198.335 130.632 181.33C134.602 178.456 139.08 176.141 143.463 174.519Z" fill="#008CFF"/>
</g>
<g opacity="0.0232">
<path d="M144.57 176.606C163.097 169.728 181.533 162.678 199.972 155.639L227.64 145.089L255.217 134.372L310.349 112.892L337.911 102.144L365.399 91.2601C402.083 76.8065 438.628 62.0916 475.214 47.4556L502.557 36.2919C511.613 32.4582 520.693 28.6762 529.684 24.7271C547.704 16.8928 565.582 8.79106 583.094 0.00585937C566.004 9.58999 549.275 19.8576 532.689 30.3926C524.38 35.6297 516.157 41.0308 507.91 46.3803L483.343 62.772C450.718 84.8717 418.053 106.895 385.528 129.18L361.11 145.849L336.762 162.654L288.079 196.282L263.75 213.12L239.509 230.125C223.345 241.456 207.175 252.772 191.096 264.264C168.604 280.339 137.337 275.139 121.261 252.647C105.185 230.156 110.386 198.888 132.877 182.812C136.504 180.221 140.593 178.11 144.57 176.606Z" fill="#008CFF"/>
</g>
<g opacity="0.0232">
<path d="M145.678 178.693C164.148 171.706 182.529 164.552 200.914 157.41L228.5 146.708L256 135.845L310.978 114.077L338.463 103.183L365.879 92.1624C402.466 77.5235 438.916 62.6354 475.409 47.8172L502.685 36.5289C511.719 32.6588 520.781 28.8373 529.757 24.8579C547.741 16.9597 565.594 8.80635 583.097 0.00292969C565.998 9.56883 549.241 19.7848 532.622 30.2529C524.295 35.4596 516.054 40.8213 507.785 46.1374L483.152 62.4046C450.432 84.3281 417.676 106.176 385.051 128.275L360.56 144.807L336.137 161.466L287.299 194.805L262.893 211.498L238.57 228.348C222.351 239.576 206.127 250.791 189.993 262.174C168.495 277.338 138.773 272.204 123.609 250.706C108.444 229.208 113.578 199.486 135.076 184.322C138.366 182.001 142.082 180.078 145.678 178.693Z" fill="#008CFF"/>
</g>
<g opacity="0.0261">
<path d="M146.787 180.78C165.199 173.684 183.525 166.43 201.858 159.185L229.362 148.328L256.784 137.319L311.609 115.262L339.016 104.225L366.359 93.0648C402.846 78.2375 439.204 63.1763 475.603 48.1819L502.812 36.769C511.828 32.8625 520.868 29.0015 529.83 24.9916C547.78 17.0297 565.603 8.82469 583.097 0C565.985 9.54464 549.205 19.709 532.549 30.1163C524.207 35.2927 515.944 40.6148 507.657 45.8945L482.96 62.0371C450.146 83.7814 417.296 105.459 384.573 127.37L360.01 143.765L335.511 160.281L286.521 193.332L262.036 209.879L237.631 226.574C221.358 237.699 205.081 248.814 188.887 260.087C168.388 274.355 140.207 269.303 125.939 248.808C111.67 228.309 116.722 200.128 137.218 185.859C140.192 183.79 143.552 182.05 146.787 180.78Z" fill="#008CFF"/>
</g>
<g opacity="0.0261">
<path d="M147.893 182.867C166.244 175.661 184.519 168.304 202.797 160.959L230.219 149.947L257.565 138.792L312.236 116.446L339.566 105.264L366.836 93.9669C403.223 78.9543 439.49 63.7169 475.795 48.5463L502.937 37.0089C511.935 33.0659 520.954 29.1684 529.897 25.1282C547.814 17.0994 565.609 8.84585 583.094 0.00292969C565.974 9.52934 549.163 19.642 532.476 29.9856C524.116 35.1285 515.835 40.4142 507.53 45.6574L482.766 61.6755C449.858 83.2436 416.917 104.745 384.094 126.471L359.458 142.726L334.882 159.096L285.737 191.856L261.177 208.256L236.693 224.8C220.368 235.824 204.034 246.836 187.782 258C168.295 271.384 141.644 266.436 128.26 246.948C114.876 227.461 119.824 200.811 139.311 187.427C141.978 185.589 145.004 184.024 147.893 182.867Z" fill="#008CFF"/>
</g>
<g opacity="0.029">
<path d="M149.002 184.954C167.295 177.636 185.515 170.178 203.739 162.733L231.079 151.569L258.349 140.268L312.867 117.631L340.119 106.303L367.292 94.8235L475.986 48.9048L503.068 37.2519C512.044 33.2755 521.045 29.3355 529.973 25.2649C547.856 17.1723 565.624 8.86711 583.097 0.00292969C565.967 9.51111 549.129 19.5722 532.406 29.8489C524.031 34.9615 515.729 40.2107 507.402 45.4174L482.575 61.317L383.638 125.614L358.905 141.687L334.25 157.912L284.95 190.385L260.314 206.64L235.748 223.029C219.368 233.95 202.983 244.861 186.67 255.913C168.197 268.428 143.075 263.601 130.559 245.132C118.044 226.659 122.871 201.537 141.34 189.021C143.728 187.402 146.432 186.002 149.002 184.954Z" fill="#008CFF"/>
</g>
<g opacity="0.029">
<path d="M150.11 187.041C168.346 179.614 186.512 172.056 204.68 164.504C222.861 156.976 241.027 149.418 259.132 141.739L313.496 118.813L340.672 107.339L367.775 95.7258L476.18 49.2664L503.195 37.489C512.153 33.4761 521.133 29.4997 530.043 25.3957C547.893 17.2393 565.633 8.87937 583.097 0C565.955 9.48996 549.092 19.4994 532.333 29.7123C523.943 34.7945 515.619 40.0042 507.275 45.1745L482.38 60.9496L383.155 124.706L358.348 140.645L333.618 156.727L284.166 188.909C267.662 199.599 251.225 210.413 234.803 221.252C218.369 232.073 201.928 242.881 185.558 253.823C168.109 265.488 144.512 260.798 132.847 243.349C121.185 225.9 125.872 202.303 143.321 190.638C145.441 189.228 147.844 187.983 150.11 187.041Z" fill="#008CFF"/>
</g>
<g opacity="0.0319">
<path d="M151.216 189.128C169.394 181.591 187.505 173.93 205.622 166.278C223.749 158.647 241.863 150.986 259.913 143.215L314.125 120L341.225 108.384L368.255 96.634L476.375 49.6338L503.323 37.7289C512.263 33.6795 521.221 29.6636 530.116 25.5322C547.953 17.3546 565.606 8.83066 583.097 0.00292969C565.983 9.54149 549.032 19.3899 532.263 29.5785C523.855 34.6303 515.51 39.8006 507.147 44.9344L482.189 60.5849L382.678 123.801L357.802 139.603L332.996 155.539L283.392 187.433C266.839 198.028 250.347 208.739 233.867 219.478C217.378 230.195 200.883 240.903 184.458 251.736C168.042 262.559 145.961 258.027 135.134 241.614C124.311 225.198 128.843 203.117 145.256 192.293C147.115 191.066 149.232 189.966 151.216 189.128Z" fill="#008CFF"/>
</g>
<g opacity="0.0319">
<path d="M152.325 191.215L206.564 168.052C224.636 160.318 242.695 152.556 260.697 144.688L314.754 121.185L341.778 109.423L368.735 97.5394L476.566 49.9985L503.447 37.9689C512.366 33.8832 521.303 29.8308 530.183 25.666C547.984 17.4215 565.615 8.85507 583.091 0C565.965 9.51426 548.99 19.3171 532.185 29.4419C523.761 34.4634 515.395 39.5941 507.014 44.6945L481.989 60.2205L382.189 122.896L357.24 138.564L332.358 154.358L282.599 185.962C265.998 196.464 249.451 207.075 232.917 217.707L183.341 249.652C167.927 259.583 147.383 255.138 137.452 239.728C127.522 224.314 131.966 203.77 147.377 193.839C148.926 192.846 150.694 191.926 152.325 191.215Z" fill="#008CFF"/>
</g>
<g opacity="0.0348">
<path d="M153.434 193.302L207.506 169.826C225.523 161.985 243.528 154.124 261.481 146.165L315.386 122.373L342.334 110.468L369.221 98.4476L476.767 50.3659L503.584 38.2118C512.485 34.0896 521.401 29.9978 530.265 25.8026C548.03 17.4913 565.636 8.87926 583.103 0.00292969C565.964 9.49592 548.965 19.2532 532.127 29.3112C523.688 34.3023 515.301 39.3935 506.901 44.4575L481.809 59.8589L381.724 121.993L356.702 137.528L331.741 153.176L281.822 184.489C265.169 194.896 248.567 205.404 231.981 215.936L182.238 247.568C167.878 256.7 148.835 252.459 139.703 238.099C130.572 223.74 134.809 204.696 149.169 195.565C150.502 194.72 152.033 193.921 153.434 193.302Z" fill="#008CFF"/>
</g>
<g opacity="0.0348">
<path d="M154.539 195.389L208.444 171.597C226.407 163.653 244.357 155.691 262.258 147.635C298.067 131.535 333.98 115.629 369.695 99.3498L476.952 50.7305L503.702 38.4518L530.328 25.9393C548.06 17.5612 565.642 8.90356 583.094 0.00292969C565.943 9.47162 548.919 19.1864 532.045 29.1745L506.761 44.2145L481.603 59.4913L381.232 121.085C347.735 141.541 314.438 162.374 281.038 183.013C264.336 193.326 247.68 203.733 231.036 214.159L181.126 245.475C167.826 253.82 150.28 249.804 141.936 236.505C133.591 223.205 137.607 205.659 150.906 197.314C152.042 196.607 153.355 195.923 154.539 195.389Z" fill="#008CFF"/>
</g>
<g opacity="0.0377">
<path d="M155.648 197.475L209.386 173.371L263.042 149.111C298.751 132.823 334.554 116.71 370.178 100.255L477.149 51.0949C494.96 42.8686 512.737 34.5755 530.395 26.0607L556.848 13.2231C565.6 8.8184 574.409 4.52604 583.097 0.00585938C574.485 4.67186 565.992 9.55961 557.44 14.341L531.984 29.056C515.036 38.9104 498.207 48.9867 481.414 59.1298L380.755 120.183C347.164 140.466 313.757 161.092 280.257 181.542L230.098 212.388L180.02 243.391C167.787 250.964 151.733 247.188 144.159 234.955C136.586 222.722 140.362 206.668 152.595 199.094C153.546 198.508 154.658 197.928 155.648 197.475Z" fill="#008CFF"/>
</g>
<g opacity="0.0377">
<path d="M156.757 199.565C192.442 183.228 228.223 167.076 263.826 150.588C299.435 134.111 335.128 117.792 370.658 101.163L477.341 51.4624C495.106 43.1481 512.837 34.773 530.465 26.1974L556.872 13.2748C565.615 8.85485 574.409 4.53212 583.094 0.00585938C574.479 4.66274 565.971 9.5262 557.41 14.2894L531.908 28.9193C514.93 38.713 498.055 48.7072 481.217 58.7622L380.272 119.274C346.59 139.384 313.074 159.804 279.473 180.066C245.867 200.316 212.439 220.903 178.912 241.304C167.745 248.1 153.182 244.555 146.386 233.388C139.591 222.221 143.136 207.658 154.303 200.862C155.065 200.401 155.967 199.933 156.757 199.565Z" fill="#008CFF"/>
</g>
<g opacity="0.0406">
<path d="M157.866 201.652C193.441 185.112 229.104 168.738 264.61 152.061C300.118 135.396 335.705 118.873 371.141 102.068L477.538 51.827C512.91 34.9006 548.312 18.035 583.097 0.00585938C548.673 18.7124 514.866 38.5884 481.026 58.3977L379.792 118.369C346.019 138.303 312.394 158.519 278.693 178.593C244.986 198.654 211.44 219.019 177.806 239.217C167.723 245.271 154.64 242.006 148.586 231.924C142.531 221.841 145.797 208.758 155.879 202.703C156.523 202.318 157.201 201.962 157.866 201.652Z" fill="#008CFF"/>
</g>
<g opacity="0.0406">
<path d="M158.971 203.74C194.44 186.996 229.985 170.401 265.39 153.538L371.621 102.978L477.733 52.1954C513.019 35.108 548.333 18.0753 583.097 0.00976562C548.652 18.6798 514.757 38.3888 480.831 58.037L379.312 117.468L277.912 177.123C244.105 196.996 210.443 217.14 176.7 237.134C167.708 242.462 156.101 239.491 150.773 230.503C145.444 221.511 148.415 209.904 157.404 204.575C157.908 204.272 158.452 203.986 158.971 203.74Z" fill="#008CFF"/>
</g>
<g opacity="0.0435">
<path d="M160.08 205.826L266.174 155.011L372.1 103.882L477.924 52.5591C513.125 35.3107 548.351 18.1139 583.097 0.00585938C548.631 18.6395 514.647 38.1783 480.64 57.6686L378.832 116.559L277.128 175.646L175.591 235.043C167.699 239.661 157.559 237.006 152.944 229.114C148.327 221.221 150.982 211.081 158.874 206.467C159.26 206.239 159.682 206.018 160.08 205.826Z" fill="#008CFF"/>
</g>
<g opacity="0.0435">
<path d="M161.189 207.913C196.433 190.75 231.768 173.753 266.942 156.453L372.529 104.687L478.115 52.9175C513.235 35.5173 548.369 18.1474 583.094 0.00585938C548.609 18.603 514.535 37.9687 480.445 57.3071L378.401 115.754L276.359 174.2C242.321 193.639 208.447 213.381 174.482 232.956C167.696 236.869 159.02 234.536 155.107 227.75C151.195 220.96 153.524 212.287 160.314 208.375C160.59 208.217 160.906 208.05 161.189 207.913Z" fill="#008CFF"/>
</g>
<g opacity="0.0465">
<path d="M162.295 210L267.723 157.933L373.015 105.608L478.306 53.2822C513.341 35.7209 548.388 18.1839 583.094 0.00292969C548.591 18.5606 514.425 37.7623 480.251 56.9396L377.912 114.83L275.573 172.721L173.373 230.87C167.699 234.099 160.484 232.115 157.255 226.44C154.026 220.766 156.009 213.551 161.684 210.322C161.875 210.216 162.1 210.097 162.295 210Z" fill="#008CFF"/>
</g>
<path d="M163.404 212.087L268.51 159.412L373.507 106.531L478.504 53.6496C513.454 35.9274 548.409 18.2233 583.097 0.00585938C548.573 18.5271 514.32 37.5617 480.06 56.575L377.426 113.91L274.792 171.244L172.268 228.786C167.714 231.34 161.952 229.721 159.397 225.168C156.842 220.614 158.461 214.851 163.015 212.297C163.13 212.227 163.282 212.148 163.404 212.087Z" fill="#008CFF"/>
<path d="M164.671 214.472L374.066 107.585L478.726 54.0688L530.954 27.1209L557.064 13.6363L583.095 0.00585938L557.219 13.9279L531.422 27.9988L479.835 56.1588L376.864 112.856L171.001 226.398C167.736 228.199 163.629 227.011 161.827 223.746C160.026 220.48 161.214 216.373 164.479 214.572C164.534 214.541 164.616 214.499 164.671 214.472Z" fill="#229BFF"/>
<path d="M165.937 216.856L374.613 108.609L478.951 54.485L531.051 27.2971L583.1 0.00585938L531.334 27.8226L479.619 55.7396L376.326 111.829L169.74 224.01C167.775 225.076 165.314 224.35 164.248 222.382C163.182 220.416 163.908 217.956 165.876 216.89C165.885 216.884 165.919 216.865 165.937 216.856Z" fill="#44ABFF"/>
<path d="M167.201 219.241L583.097 0.00585938L168.468 221.626C167.812 221.978 166.991 221.729 166.642 221.073C166.29 220.413 166.539 219.596 167.195 219.244L167.201 219.241Z" fill="#66BAFF"/>
<g style="mix-blend-mode:plus-lighter">
<path d="M367.249 130.116C383.771 166.706 315.503 233.242 214.771 278.726C114.039 324.211 18.9848 331.419 2.4655 294.83C-14.0569 258.24 54.2076 191.707 154.94 146.222C255.672 100.738 350.726 93.5265 367.249 130.116Z" fill="url(#paint0_radial_739_29697)"/>
</g>
<defs>
<radialGradient id="paint0_radial_739_29697" cx="0" cy="0" r="1" gradientUnits="userSpaceOnUse" gradientTransform="translate(184.856 212.474) rotate(-24.3019) scale(200.117 72.6955)">
<stop offset="0.0539" stop-color="white"/>
<stop offset="0.1111" stop-color="#BABABA"/>
<stop offset="0.16" stop-color="#858585"/>
<stop offset="0.1838" stop-color="#707070"/>
<stop offset="0.218" stop-color="#606060"/>
<stop offset="0.2927" stop-color="#424242"/>
<stop offset="0.3757" stop-color="#2A2A2A"/>
<stop offset="0.469" stop-color="#171717"/>
<stop offset="0.5784" stop-color="#0A0A0A"/>
<stop offset="0.7189" stop-color="#020202"/>
<stop offset="1"/>
</radialGradient>
</defs>
</svg>
