<svg width="163" height="347" fill="none" xmlns="http://www.w3.org/2000/svg"><path d="M102.794 163.441h-5.866L92.53 320.516l16.337 1.084-6.074-158.159ZM70.25 162.972h-4.892l-7.582 157.071 17.233 1.236-4.76-158.307Z" fill="#ECECEC"/><path d="M87.497 154.014h-7.57l-5.676 192.978h17.661l-4.415-192.978Z" fill="#ECECEC"/><path d="M102.793 163.441h-5.866L92.53 320.516l16.337 1.084-6.074-158.159Z" fill="url(#a)"/><path d="m79.927 154.014-4.92 167.264-4.76-158.307h-4.89l-7.583 157.072 17.233 1.235-.757 25.714h17.662l-4.416-192.978h-7.569Z" fill="url(#b)"/><path opacity=".45" d="M81.363 318.812c44.935 0 81.363-36.359 81.363-81.209s-36.428-81.208-81.363-81.208C36.427 156.395 0 192.753 0 237.603s36.427 81.209 81.363 81.209Z" fill="url(#c)"/><defs><linearGradient id="a" x1="99.37" y1="228.081" x2="98.424" y2="161.895" gradientUnits="userSpaceOnUse"><stop stop-color="#FFE4BD"/><stop offset="1" stop-color="#610042"/></linearGradient><linearGradient id="b" x1="73.342" y1="228.452" x2="72.397" y2="162.266" gradientUnits="userSpaceOnUse"><stop stop-color="#FFE4BD"/><stop offset="1" stop-color="#610042"/></linearGradient><radialGradient id="c" cx="0" cy="0" r="1" gradientUnits="userSpaceOnUse" gradientTransform="matrix(81.3597 0 0 81.21 81.364 237.604)"><stop offset=".005" stop-color="#FFEEC6"/><stop offset=".231" stop-color="#FEECC5"/><stop offset=".622" stop-color="#F9DFBC"/><stop offset="1" stop-color="#F7D9B7"/></radialGradient></defs></svg>