<svg width="487" height="264" viewBox="0 0 487 264" fill="none" xmlns="http://www.w3.org/2000/svg">
<g opacity="0.01">
<path d="M129.349 115.869C159.733 107.404 189.91 98.5422 219.976 89.4685C235.035 84.9816 250.031 80.3736 265.021 75.7566L287.509 68.8371L309.934 61.7965C339.875 52.4867 369.637 42.8319 399.453 33.28C414.353 28.4905 429.119 23.4436 443.655 17.9609C458.19 12.4751 472.574 6.70186 486.473 -0.000658078C473.115 7.72795 460.24 16.3858 447.518 25.3312C434.799 34.2796 422.304 43.6639 409.947 53.3054C385.246 72.6158 360.489 91.8232 335.915 111.376L317.452 125.98L299.054 140.709C286.787 150.523 274.525 160.346 262.325 170.291C237.873 190.079 213.538 210.083 189.405 230.477C161.271 254.255 119.361 250.867 95.7941 222.917C72.2267 194.963 75.9322 153.03 104.064 129.252C111.602 122.886 120.451 118.391 129.349 115.869Z" fill="#008CFF"/>
</g>
<g opacity="0.01">
<path d="M130.208 117.511C160.502 108.873 190.595 99.8536 220.581 90.6286C235.598 86.063 250.555 81.3824 265.506 76.6897L287.938 69.6582L310.306 62.5086C340.17 53.0505 369.86 43.2625 399.604 33.5714C414.468 28.7122 429.201 23.6017 443.713 18.0706C458.222 12.5364 472.588 6.72072 486.478 0.00305382C473.111 7.71655 460.215 16.3351 447.466 25.229C434.72 34.129 422.195 43.4498 409.799 53.0217C385.024 72.1929 360.198 91.2642 335.546 110.668L317.026 125.164L298.569 139.781C286.262 149.519 273.961 159.27 261.72 169.135C237.19 188.77 212.768 208.616 188.546 228.84C161.114 251.746 120.477 248.219 97.7768 220.961C75.0766 193.703 78.9155 153.041 106.345 130.135C113.487 124.182 121.831 119.941 130.208 117.511Z" fill="#008CFF"/>
</g>
<g opacity="0.01">
<path d="M131.067 119.152C161.271 110.345 191.284 101.168 221.189 91.7885C236.167 87.1442 251.086 82.391 265.998 77.6226L288.369 70.4821L310.681 63.2235C340.47 53.6201 370.089 43.6929 399.758 33.8625C414.587 28.9337 429.287 23.7627 443.772 18.1831C458.254 12.5974 472.599 6.74241 486.48 0.0126148C473.104 7.71099 460.187 16.2872 447.414 25.1327C434.642 33.9843 422.084 43.2445 409.654 52.7469C384.808 71.7789 359.91 90.714 335.18 109.973L316.606 124.363L298.092 138.868C285.747 148.533 273.407 158.208 261.124 167.995C236.514 187.478 212.008 207.161 187.696 227.216C160.972 249.259 121.602 245.603 99.7594 219.047C77.9171 192.491 81.8714 153.095 108.595 131.052C115.335 125.486 123.196 121.488 131.067 119.152Z" fill="#008CFF"/>
</g>
<g opacity="0.01">
<path d="M131.925 120.793C162.039 111.816 191.969 102.479 221.793 92.9456C236.73 88.2226 251.609 83.3937 266.483 78.5526L288.798 71.3001L311.053 63.9356C340.764 54.1869 370.311 44.1234 399.906 34.1538C414.693 29.1493 429.375 23.9389 443.815 18.2776C458.291 12.6768 472.597 6.75519 486.476 0.0162986C473.096 7.70864 460.147 16.2182 447.362 25.0487C434.547 33.8186 421.968 43.0395 409.497 52.4662C384.576 71.359 359.607 90.158 334.802 109.269L316.171 123.55L297.597 137.942C285.213 147.533 272.834 157.135 260.513 166.843C235.821 186.172 211.231 205.697 186.833 225.583C160.824 246.777 122.72 243.006 101.72 217.158C80.7205 191.31 84.7809 153.179 110.79 131.984C117.155 126.797 124.542 123.032 131.925 120.793Z" fill="#008CFF"/>
</g>
<g opacity="0.01">
<path d="M132.783 122.435C162.811 113.285 192.654 103.791 222.398 94.1058C237.293 89.3072 252.134 84.4025 266.968 79.4858L289.223 72.1213L311.422 64.6478C341.055 54.7508 370.534 44.5541 400.054 34.4421C414.805 29.368 429.451 24.0941 443.871 18.3843C458.32 12.7321 472.605 6.77108 486.478 0.0170396C473.089 7.69427 460.119 16.1645 447.31 24.9435C434.468 33.662 421.86 42.8224 409.353 52.1795C384.36 70.9332 359.319 89.596 334.436 108.561L315.748 122.733L297.118 137.014C284.694 146.532 272.277 156.058 259.913 165.688C235.141 184.865 210.471 204.23 185.98 223.944C160.694 244.299 123.844 240.427 103.678 215.296C83.512 190.165 87.6636 153.287 112.95 132.932C118.97 128.09 125.837 124.574 132.783 122.435Z" fill="#008CFF"/>
</g>
<g opacity="0.01">
<path d="M133.642 124.076C163.58 114.757 193.339 105.102 223.006 95.2629C237.862 90.3855 252.661 85.4052 267.457 80.4189L289.655 72.9424L311.797 65.3599C341.356 55.3176 370.76 44.9816 400.208 34.7334C414.923 29.5897 429.537 24.2552 443.93 18.494C458.352 12.7902 472.616 6.78988 486.48 0.0206908C473.085 7.68281 460.091 16.1138 447.255 24.8413C434.39 33.5114 421.745 42.6082 409.202 51.8958C384.134 70.5072 359.021 89.0339 334.064 107.854L315.32 121.92L296.629 136.089C284.167 145.531 271.711 154.985 259.305 164.536C234.452 183.559 209.698 202.767 185.117 222.31C160.558 241.839 124.965 237.881 105.617 213.467C86.273 189.056 90.5006 153.432 115.063 133.903C120.721 129.416 127.154 126.121 133.642 124.076Z" fill="#008CFF"/>
</g>
<g opacity="0.0116">
<path d="M134.503 125.718C164.352 116.229 194.028 106.414 223.614 96.4229C238.428 91.4668 253.191 86.4139 267.948 81.3518L290.087 73.7633L312.172 66.0749C341.653 55.8872 370.985 45.415 400.362 35.0246C407.705 32.4255 415.015 29.7598 422.292 27.0396C429.533 24.2437 436.81 21.5204 443.988 18.6065C458.384 12.8544 472.627 6.8116 486.485 0.0272598C473.081 7.67426 460.069 16.0659 447.203 24.742C440.754 29.0453 434.4 33.5362 428.014 37.9575C421.663 42.4515 415.342 46.9999 409.057 51.618C383.918 70.0902 358.733 88.4807 333.698 107.156L314.897 121.113L296.15 135.173C283.648 144.542 271.153 153.917 258.706 163.396C233.772 182.267 208.934 201.315 184.267 220.686C160.439 239.4 126.094 235.369 107.559 211.684C89.0244 187.999 93.3159 153.625 117.146 134.911C122.438 130.748 128.458 127.662 134.503 125.718Z" fill="#008CFF"/>
</g>
<g opacity="0.0116">
<path d="M135.361 127.359C150.255 122.557 165.054 117.574 179.859 112.603L202.073 105.156L224.221 97.583C238.993 92.5482 253.717 87.4225 268.436 82.2848L290.518 74.5843L312.546 66.7869C341.953 56.4509 371.213 45.8425 400.515 35.3158C407.84 32.6834 415.132 29.9843 422.394 27.2308C429.621 24.4077 436.883 21.6512 444.049 18.7161C458.418 12.9124 472.643 6.83031 486.489 0.0308204C473.079 7.66271 460.043 16.012 447.154 24.6397C440.689 28.9188 434.324 33.3794 427.919 37.7705C421.554 42.2342 415.215 46.7493 408.912 51.3341C383.698 69.6672 358.444 87.9215 333.331 106.448L314.473 120.296L295.666 134.244C283.126 143.538 270.592 152.841 258.106 162.24L239.364 176.316L220.689 190.515C208.235 199.975 195.776 209.423 183.412 219.05C160.35 237.012 127.231 232.986 109.445 210.061C91.6556 187.136 95.9325 153.987 118.995 136.028C123.991 132.128 129.67 129.215 135.361 127.359Z" fill="#008CFF"/>
</g>
<g opacity="0.0145">
<path d="M136.219 129.001C151.069 124.111 165.826 119.049 180.59 113.996L202.74 106.429L224.826 98.7401C239.559 93.6296 254.241 88.4253 268.921 83.2149L290.943 75.4024L312.915 67.496C342.244 57.0147 371.433 46.2701 400.664 35.6011C407.971 32.9323 415.245 30.203 422.492 27.4193C429.703 24.5689 436.947 21.7821 444.102 18.8227C458.444 12.9676 472.645 6.84615 486.488 0.0315038C473.07 7.64828 460.012 15.9582 447.096 24.5345C440.62 28.7894 434.236 33.2198 427.82 37.5836C421.436 42.017 415.082 46.5019 408.758 51.0474C383.472 69.2412 358.144 87.3594 332.956 105.741L314.042 119.483L295.175 133.319C282.596 142.54 270.02 151.767 257.495 161.088L238.693 175.045L219.955 189.124C207.46 198.502 194.959 207.872 182.547 217.413C160.226 234.579 128.352 230.504 111.354 208.314C94.3554 186.124 98.6721 154.22 120.993 137.054C125.66 133.473 130.944 130.76 136.219 129.001Z" fill="#008CFF"/>
</g>
<g opacity="0.0145">
<path d="M137.077 130.641C151.883 125.667 166.595 120.523 181.316 115.391L203.402 107.703L225.427 99.8963C240.119 94.7071 254.762 89.4302 269.403 84.1441L291.366 76.2195L313.281 68.2042C342.532 57.5775 371.653 46.6936 400.809 35.8884C408.098 33.1864 415.324 30.3602 422.583 27.6037C429.785 24.7321 437.012 21.912 444.154 18.9284C458.469 13.0249 472.653 6.86099 486.484 0.0312006C473.056 7.63286 459.978 15.9035 447.038 24.4283C440.55 28.662 434.148 33.0561 427.72 37.3988C421.351 41.8564 414.946 46.2475 408.605 50.7627C383.246 68.8174 357.846 86.7994 332.581 105.036L313.609 118.669L294.686 132.393C282.068 141.539 269.453 150.693 256.886 159.935L238.025 173.777L219.224 187.735C206.687 197.034 194.144 206.322 181.687 215.779C160.114 232.16 129.478 228.051 113.262 206.602C97.0425 185.153 101.384 154.488 122.957 138.11C127.295 134.822 132.2 132.303 137.077 130.641Z" fill="#008CFF"/>
</g>
<g opacity="0.0174">
<path d="M137.935 132.281C152.693 127.222 167.366 121.997 182.046 116.786L204.069 108.977L226.034 101.055C240.684 95.7875 255.292 90.4378 269.894 85.076C284.511 79.7476 299.095 74.3495 313.658 68.9182C342.835 58.1432 371.881 47.1261 400.965 36.1786C408.236 33.4432 415.445 30.5868 422.689 27.7969C429.876 24.8981 437.085 22.0447 444.215 19.04C458.507 13.0849 472.666 6.88169 486.488 0.0367404C473.055 7.62631 459.956 15.8515 446.985 24.328C440.485 28.5375 434.066 32.9013 427.622 37.2167C421.236 41.6411 414.816 46.0019 408.456 50.4808C383.023 68.3963 357.552 86.2422 332.211 104.33C319.519 113.33 306.841 122.367 294.2 131.467C281.543 140.536 268.889 149.618 256.28 158.782L237.356 172.509L218.492 186.345C205.913 195.563 193.328 204.772 180.827 214.145C160.01 229.75 130.607 225.622 115.157 204.924C99.7077 184.225 104.059 154.792 124.876 139.187C128.903 136.178 133.44 133.843 137.935 132.281Z" fill="#008CFF"/>
</g>
<g opacity="0.0174">
<path d="M138.794 133.92C153.506 128.773 168.138 123.469 182.776 118.177L204.736 110.246L226.639 102.21C241.25 96.8629 255.816 91.4375 270.379 86.0031C284.958 80.599 299.503 75.1283 314.03 69.6273C343.13 58.707 372.107 47.5506 401.116 36.4669C408.37 33.6952 415.563 30.8115 422.789 27.9883C429.962 25.0623 437.155 22.1786 444.274 19.1466C458.538 13.1401 472.677 6.89749 486.493 0.0373873C473.051 7.61184 459.931 15.7977 446.937 24.2228C440.424 28.408 433.99 32.7416 427.532 37.0298C421.127 41.4239 414.693 45.7545 408.315 50.1971C382.81 67.9734 357.267 85.6831 331.849 103.626C319.117 112.556 306.404 121.517 293.723 130.545C281.027 139.542 268.335 148.548 255.687 157.633L236.703 171.242L217.777 184.96C205.156 194.1 192.529 203.227 179.983 212.511C159.925 227.357 131.754 223.222 117.059 203.277C102.364 183.332 106.713 155.131 126.771 140.285C130.478 137.543 134.666 135.388 138.794 133.92Z" fill="#008CFF"/>
</g>
<g opacity="0.0203">
<path d="M139.652 135.562C154.32 130.33 168.91 124.947 183.506 119.573C198.111 114.22 212.704 108.843 227.247 103.37L270.868 86.9363C285.407 81.4564 299.913 75.913 314.402 70.3394C343.424 59.2738 372.329 47.9812 401.267 36.7551C408.503 33.9502 415.681 31.0332 422.89 28.1767C430.047 25.2204 437.226 22.3064 444.33 19.2532C458.567 13.1983 472.685 6.91327 486.492 0.0380162C473.044 7.59736 459.9 15.7439 446.879 24.1175C440.354 28.2786 433.902 32.5819 427.429 36.8429C421.009 41.2037 414.557 45.504 408.161 49.9133C382.582 67.5504 356.969 85.1209 331.473 102.918C318.703 111.776 305.951 120.668 293.231 129.616L255.076 156.478C242.359 165.435 229.693 174.49 217.039 183.569C204.377 192.63 191.708 201.678 179.117 210.875C159.827 224.969 132.879 220.843 118.93 201.66C104.981 182.477 109.312 155.5 128.602 141.406C132.022 138.915 135.873 136.932 139.652 135.562Z" fill="#008CFF"/>
</g>
<g opacity="0.0203">
<path d="M140.51 137.203C155.133 131.883 169.682 126.422 184.236 120.969C198.799 115.535 213.351 110.079 227.854 104.529L271.356 87.869C285.856 82.3135 300.324 76.6974 314.777 71.0541C343.721 59.8402 372.555 48.4144 401.421 37.0491C408.639 34.2078 415.799 31.2635 422.993 28.3738C430.136 25.3902 437.296 22.4459 444.391 19.3685C458.602 13.2621 472.699 6.93773 486.5 0.0503541C473.042 7.59458 459.881 15.6988 446.832 24.024C440.296 28.1608 433.829 32.4339 427.341 36.6646C420.903 40.9922 414.436 45.2622 408.022 49.6382C382.371 67.1361 356.684 84.5705 331.113 102.223C318.307 111.011 305.516 119.827 292.757 128.703L254.482 155.337C241.727 164.219 229.019 173.195 216.32 182.189C203.616 191.168 190.905 200.138 178.269 209.25C159.75 222.605 134.026 218.502 120.81 200.085C107.594 181.668 111.892 155.913 130.411 142.559C133.536 140.295 137.065 138.479 140.51 137.203Z" fill="#008CFF"/>
</g>
<g opacity="0.0232">
<path d="M141.371 138.844C155.95 133.44 170.456 127.897 184.969 122.365L206.74 114.074L228.444 105.65L271.829 88.7688L293.517 80.3205L315.151 71.7663C344.021 60.407 372.783 48.8419 401.575 37.3373L423.096 28.5651C430.224 25.5543 437.369 22.5798 444.449 19.4751C458.633 13.3172 472.709 6.95349 486.502 0.0509575C473.035 7.58007 459.852 15.645 446.777 23.9217C440.226 28.0344 433.744 32.2772 427.24 36.4807L407.871 49.3544C382.145 66.7132 356.389 84.0114 330.741 101.515L311.485 114.607L292.286 127.805L253.894 154.218L234.707 167.443L215.589 180.798C202.842 189.698 190.09 198.587 177.409 207.611C159.667 220.239 135.16 216.171 122.665 198.526C110.171 180.883 114.424 156.343 132.165 143.715C135.02 141.685 138.238 140.027 141.371 138.844Z" fill="#008CFF"/>
</g>
<g opacity="0.0232">
<path d="M142.23 140.485C156.763 134.993 171.228 129.371 185.699 123.757L207.408 115.345L229.051 106.809L272.32 89.7008L293.949 81.1404L315.526 72.4772C344.318 60.9726 373.009 49.2713 401.729 37.6274L423.196 28.7584C430.309 25.7172 437.44 22.7155 444.508 19.5866C458.665 13.3802 472.72 6.97411 486.507 0.0564294C473.034 7.57043 459.827 15.596 446.728 23.8213C440.165 27.9098 433.668 32.1223 427.15 36.2986L407.73 49.0755C381.932 66.2951 356.101 83.4571 330.378 100.816L311.065 113.802L291.806 126.887L253.295 153.074L234.048 166.184L214.867 179.418C202.078 188.236 189.284 197.046 176.555 205.986C159.6 217.895 136.303 213.882 124.518 197.017C112.732 180.152 116.926 156.826 133.881 144.913C136.474 143.083 139.4 141.573 142.23 140.485Z" fill="#008CFF"/>
</g>
<g opacity="0.0261">
<path d="M143.088 142.126C157.577 136.549 172 130.846 186.426 125.154L208.072 116.621L229.656 107.97L272.805 90.6339L294.377 81.9585L315.898 73.1893C344.615 61.5364 373.231 49.6988 401.88 37.9157L423.296 28.9467C430.394 25.8783 437.51 22.8433 444.563 19.6932C458.696 13.4353 472.728 6.98985 486.505 0.0570101C473.024 7.5559 459.796 15.5421 446.67 23.716C440.095 27.7803 433.58 31.9626 427.05 36.1086L407.579 48.7887C381.706 65.869 355.806 82.8949 330.005 100.105L310.636 112.982L291.317 125.956L252.689 151.916L233.382 164.91L214.138 178.023C201.308 186.763 188.472 195.491 175.698 204.346C159.532 215.553 137.443 211.602 126.358 195.521C115.272 179.44 119.39 157.322 135.557 146.115C137.896 144.491 140.543 143.124 143.088 142.126Z" fill="#008CFF"/>
</g>
<g opacity="0.0261">
<path d="M143.946 143.768C158.39 138.103 172.771 132.323 187.155 126.55L208.736 117.896L230.26 109.13L273.29 91.5668L294.802 82.7794L316.266 73.9012C344.906 62.1029 373.453 50.1291 402.027 38.2067L423.393 29.1409C430.476 26.0422 437.574 22.9799 444.618 19.8056C458.724 13.4963 472.735 7.01142 486.507 0.0634316C473.016 7.54721 459.77 15.4911 446.614 23.6166C440.027 27.6566 433.497 31.8087 426.949 35.9274L407.424 48.5047C381.48 65.4458 355.508 82.3355 329.626 99.4008L310.2 112.169L290.822 125.027L252.074 150.76L232.707 163.643L213.401 176.638C200.525 185.296 187.65 193.945 174.832 202.716C159.464 213.228 138.576 209.359 128.179 194.071C117.781 178.783 121.809 157.866 137.177 147.353C139.289 145.908 141.671 144.677 143.946 143.768Z" fill="#008CFF"/>
</g>
<g opacity="0.029">
<path d="M144.804 145.409C159.2 139.66 173.543 133.799 187.885 127.943L209.403 119.168L230.868 110.287L273.778 92.4969L295.231 83.5945L316.62 74.574L402.176 38.4889L423.494 29.3322C430.562 26.2063 437.645 23.1107 444.674 19.9121C458.754 13.5544 472.743 7.02713 486.506 0.0639847C473.009 7.53264 459.74 15.4372 446.56 23.5113C439.958 27.5271 433.413 31.6489 426.849 35.7404L407.277 48.2299L329.276 98.7357L309.775 111.361L290.336 124.105L251.469 149.611L232.042 162.379L212.673 175.253C199.756 183.832 186.836 192.403 173.976 201.082C159.409 210.913 139.719 207.137 129.997 192.645C120.275 178.152 124.201 158.435 138.768 148.604C140.654 147.331 142.782 146.231 144.804 145.409Z" fill="#008CFF"/>
</g>
<g opacity="0.029">
<path d="M145.662 147.05C160.013 141.213 174.311 135.272 188.614 129.339C202.924 123.423 217.225 117.483 231.475 111.449L274.266 93.432L295.659 84.4145L316.991 75.288L402.326 38.7791L423.593 29.5225C430.646 26.3693 437.715 23.2434 444.732 20.0206C458.785 13.6114 472.753 7.04478 486.51 0.0664788C473.004 7.52003 459.714 15.3853 446.507 23.4079C439.893 27.3995 433.333 31.4911 426.755 35.5523L407.131 47.945L328.909 98.0241L309.354 110.544L289.856 123.176L250.868 148.454C237.859 156.852 224.897 165.344 211.947 173.86C198.988 182.358 186.026 190.85 173.121 199.445C159.364 208.606 140.867 204.938 131.809 191.251C122.75 177.563 126.559 159.042 140.316 149.878C141.986 148.769 143.879 147.789 145.662 147.05Z" fill="#008CFF"/>
</g>
<g opacity="0.0319">
<path d="M146.52 148.691C160.827 142.769 175.082 136.747 189.344 130.735C203.612 124.737 217.871 118.718 232.079 112.612L274.754 94.3678L296.087 85.2383L317.366 76.0059L402.48 39.0731L423.696 29.7195C430.735 26.5361 437.788 23.3829 444.79 20.1359C458.834 13.7085 472.737 7.01477 486.512 0.0757951C473.027 7.56872 459.671 15.3068 446.455 23.3113C439.829 27.2788 433.251 31.34 426.658 35.3741L406.983 47.6669L328.536 97.3224L308.925 109.736L289.367 122.256L250.26 147.308C237.211 155.633 224.207 164.046 211.215 172.478C198.215 180.897 185.211 189.307 172.261 197.817C159.317 206.321 142.012 202.773 133.605 189.894C125.198 177.015 128.877 159.684 141.821 151.18C143.29 150.213 144.959 149.349 146.52 148.691Z" fill="#008CFF"/>
</g>
<g opacity="0.0319">
<path d="M147.381 150.333L190.077 132.131C204.303 126.052 218.517 119.954 232.689 113.772L275.245 95.3011L296.518 86.0596L317.74 76.7211L402.63 39.3614L423.793 29.908C430.817 26.6973 437.852 23.5108 444.845 20.2396C458.862 13.7607 472.745 7.0306 486.51 0.073449C473.017 7.54823 459.639 15.25 446.396 23.2031C439.758 27.1463 433.165 31.1773 426.557 35.1841L406.832 47.3801L328.164 96.612L308.498 108.92L288.883 121.325L249.66 146.15C236.572 154.399 223.527 162.734 210.493 171.086L171.407 196.178C159.255 203.979 143.155 200.5 135.448 188.41C127.738 176.318 131.339 160.192 143.487 152.394C144.704 151.612 146.096 150.891 147.381 150.333Z" fill="#008CFF"/>
</g>
<g opacity="0.0348">
<path d="M148.239 151.973L190.806 133.523C204.991 127.362 219.163 121.186 233.296 114.928L275.733 96.2302L296.946 86.8736L318.112 77.4292L402.781 39.6456L423.893 30.0952C430.902 26.8573 437.922 23.6406 444.901 20.3451C458.888 13.8148 472.755 7.0483 486.512 0.0729679C473.009 7.52961 459.614 15.1951 446.344 23.0967C439.694 27.0188 433.083 31.0196 426.463 34.9961L406.687 47.0952L327.797 95.9035L308.075 108.106L288.4 120.398L249.057 144.996C235.931 153.173 222.843 161.426 209.767 169.697L170.553 194.543C159.232 201.717 144.311 198.398 137.222 187.132C130.134 175.865 133.566 160.92 144.886 153.747C145.93 153.086 147.136 152.458 148.239 151.973Z" fill="#008CFF"/>
</g>
<g opacity="0.0348">
<path d="M149.097 153.615L191.533 134.919C205.673 128.677 219.806 122.419 233.901 116.091C262.093 103.439 290.366 90.9414 318.487 78.147L402.935 39.9395L423.996 30.2923L444.962 20.4604C458.922 13.8755 472.772 7.07576 486.517 0.0822393C473.002 7.52074 459.592 15.153 446.292 23.0001L426.366 34.8148L406.536 46.811L327.422 95.1957C301.019 111.265 274.773 127.629 248.445 143.844C235.28 151.945 222.15 160.119 209.033 168.311L169.689 192.912C159.206 199.468 145.456 196.324 138.979 185.89C132.502 175.456 135.75 161.683 146.234 155.127C147.128 154.57 148.161 154.033 149.097 153.615Z" fill="#008CFF"/>
</g>
<g opacity="0.0377">
<path d="M149.955 155.256L192.263 136.316L234.508 117.251C262.623 104.451 290.812 91.7928 318.858 78.8621L403.083 40.2307C417.106 33.7669 431.102 27.2486 445.008 20.5578L465.84 10.4686C472.732 7.00966 479.671 3.63549 486.516 0.082714C479.731 3.74749 473.036 7.58784 466.3 11.3465L446.24 22.9068C432.886 30.6481 419.622 38.5619 406.385 46.5301L327.049 94.4911C300.575 110.425 274.245 126.628 247.839 142.691L208.301 166.923L168.829 191.279C159.189 197.228 146.609 194.271 140.732 184.676C134.854 175.08 137.907 162.479 147.548 156.529C148.299 156.066 149.174 155.611 149.955 155.256Z" fill="#008CFF"/>
</g>
<g opacity="0.0377">
<path d="M150.813 156.894C178.91 144.057 207.082 131.362 235.116 118.408C263.153 105.459 291.259 92.6371 319.233 79.5702L403.237 40.5149C417.224 33.9815 431.187 27.4026 445.07 20.6633L465.865 10.5075C472.752 7.0334 479.676 3.63803 486.521 0.0822187C479.733 3.74095 473.029 7.56315 466.284 11.3036L446.191 22.7974C432.81 30.4903 419.513 38.3435 406.24 46.2422L326.68 93.7796C300.134 109.577 273.72 125.619 247.237 141.535C220.75 157.444 194.402 173.614 167.975 189.641C159.175 194.979 147.766 192.205 142.491 183.442C137.22 174.682 140.079 163.253 148.883 157.912C149.482 157.555 150.193 157.185 150.813 156.894Z" fill="#008CFF"/>
</g>
<g opacity="0.0406">
<path d="M151.671 158.534C179.684 145.537 207.763 132.67 235.72 119.567C263.68 106.469 291.702 93.4873 319.605 80.2841L403.385 40.8049C431.24 27.5049 459.122 14.2533 486.519 0.0875539C459.399 14.7861 432.758 30.3988 406.089 45.9631L326.308 93.0768C299.69 108.738 273.189 124.62 246.631 140.387C220.067 156.148 193.625 172.146 167.118 188.013C159.172 192.768 148.922 190.212 144.226 182.303C139.53 174.393 142.163 164.123 150.109 159.368C150.614 159.062 151.149 158.78 151.671 158.534Z" fill="#008CFF"/>
</g>
<g opacity="0.0406">
<path d="M152.529 160.176C180.459 147.018 208.448 133.978 236.327 120.727L319.979 80.9991L403.538 41.096C431.328 27.6688 459.138 14.287 486.521 0.0909232C459.383 14.7592 432.672 30.2419 405.941 45.6791L325.938 92.3691L246.025 139.235C219.383 154.848 192.852 170.672 166.258 186.379C159.173 190.565 150.077 188.238 145.945 181.185C141.812 174.132 144.207 165.019 151.292 160.834C151.693 160.594 152.119 160.37 152.529 160.176Z" fill="#008CFF"/>
</g>
<g opacity="0.0435">
<path d="M153.39 161.816L236.938 121.886L320.357 81.7101L403.695 41.383C431.413 27.8317 459.155 14.3197 486.523 0.0933081C459.37 14.7314 432.59 30.0839 405.79 45.394L325.563 91.6605L245.416 138.078L165.401 184.741C159.183 188.366 151.239 186.288 147.658 180.097C144.076 173.907 146.218 165.948 152.436 162.32C152.743 162.144 153.077 161.968 153.39 161.816Z" fill="#008CFF"/>
</g>
<g opacity="0.0435">
<path d="M154.247 163.458C182.004 149.973 209.83 136.615 237.529 123.025L320.686 82.3493L403.842 41.674C431.5 28.0015 459.173 14.3533 486.527 0.0995946C459.359 14.7105 432.508 29.9268 405.647 45.1189L325.234 91.0313L244.824 136.947C218.003 152.218 191.307 167.728 164.543 183.107C159.195 186.181 152.397 184.356 149.366 179.031C146.333 173.706 148.209 166.895 153.558 163.822C153.776 163.697 154.023 163.567 154.247 163.458Z" fill="#008CFF"/>
</g>
<g opacity="0.0465">
<path d="M155.105 165.099L238.14 124.187L321.066 83.0727L403.993 41.9582C431.585 28.1586 459.19 14.3801 486.528 0.0960987C459.345 14.6768 432.425 29.763 405.496 44.828L324.859 90.3077L244.218 135.79L163.685 181.473C159.216 184.01 153.561 182.457 151.06 178.004C148.557 173.551 150.153 167.887 154.625 165.353C154.774 165.268 154.95 165.174 155.105 165.099Z" fill="#008CFF"/>
</g>
<path d="M155.96 166.736L238.745 125.351L321.444 83.8034L404.142 42.2556C431.673 28.3296 459.206 14.4218 486.53 0.108412C459.332 14.6579 432.342 29.6131 405.347 44.5501L324.477 89.5912L243.608 134.632L162.825 179.834C159.238 181.84 154.722 180.574 152.742 176.999C150.763 173.427 152.063 168.903 155.653 166.896C155.745 166.845 155.866 166.784 155.96 166.736Z" fill="#008CFF"/>
<path d="M156.94 168.61L321.878 84.6336L404.317 42.5862L445.458 21.4126L466.025 10.8182L486.531 0.111868L466.144 11.0513L445.82 22.1058L405.177 44.2268L324.048 88.7686L161.845 177.967C159.273 179.383 156.054 178.452 154.658 175.891C153.261 173.33 154.217 170.105 156.788 168.689C156.834 168.668 156.898 168.635 156.94 168.61Z" fill="#229BFF"/>
<path d="M157.921 170.484L322.3 85.4387L404.488 42.9157L445.531 21.5544L486.533 0.114335L445.75 21.9691L405.008 43.9026L323.627 87.9694L160.864 176.1C159.314 176.939 157.389 176.368 156.561 174.824C155.733 173.281 156.319 171.351 157.869 170.512C157.881 170.506 157.908 170.494 157.921 170.484Z" fill="#44ABFF"/>
<path d="M158.901 172.363L486.534 0.117768L159.884 174.233C159.364 174.509 158.724 174.316 158.452 173.798C158.18 173.283 158.378 172.638 158.898 172.363L158.901 172.363Z" fill="#66BAFF"/>
<path d="M337.156 75.7883C356.631 96.6519 302.792 152.053 216.902 199.535C131.009 247.018 45.5939 268.597 26.119 247.733C6.64454 226.872 60.4829 171.468 146.373 123.986C232.262 76.5046 317.678 54.9278 337.156 75.7883Z" fill="url(#paint0_radial_739_29766)"/>
<defs>
<radialGradient id="paint0_radial_739_29766" cx="0" cy="0" r="1" gradientUnits="userSpaceOnUse" gradientTransform="translate(181.636 161.761) rotate(-28.1125) scale(174.398 49.1925)">
<stop offset="0.0273306" stop-color="white"/>
<stop offset="0.101839" stop-color="#D3FFFF"/>
<stop offset="0.169363" stop-color="#8ED6FF"/>
<stop offset="0.250857" stop-color="#4F8BBF"/>
<stop offset="0.278798" stop-color="#487FAF" stop-opacity="0.9"/>
<stop offset="0.376591" stop-color="#2D506E" stop-opacity="0.8"/>
<stop offset="0.493011" stop-color="#1E3140" stop-opacity="0.7"/>
<stop offset="0.618744" stop-color="#141F29" stop-opacity="0.6"/>
<stop offset="0.744478" stop-color="#0C1319" stop-opacity="0.4"/>
<stop offset="0.827035" stop-color="#020202" stop-opacity="0.3"/>
<stop offset="1" stop-opacity="0"/>
</radialGradient>
</defs>
</svg>
