<svg width="635" height="345" viewBox="0 0 635 345" fill="none" xmlns="http://www.w3.org/2000/svg">
<g opacity="0.01">
<path d="M180.284 147.389C218.924 136.623 257.3 125.356 295.53 113.815C314.677 108.108 333.745 102.251 352.807 96.3757L381.402 87.5753L409.914 78.62C447.983 66.7788 485.821 54.5002 523.727 42.3492C542.67 36.2554 561.44 29.8367 579.916 22.862C598.389 15.8812 616.667 8.53588 634.316 0.00585938C617.362 9.84516 601.035 20.8692 584.901 32.2577C568.771 43.6524 552.938 55.5999 537.275 67.8785C505.971 92.4661 474.6 116.926 443.457 141.821L420.063 160.418L396.751 179.173C381.207 191.67 365.669 204.18 350.213 216.841C319.234 242.039 288.398 267.511 257.829 293.484C222.19 323.761 168.755 319.417 138.478 283.778C108.201 248.139 112.545 194.705 148.184 164.428C157.734 156.314 168.965 150.594 180.284 147.389Z" fill="#008CFF"/>
</g>
<g opacity="0.01">
<path d="M181.389 149.477C219.914 138.492 258.184 127.025 296.308 115.29C315.403 109.482 334.422 103.531 353.43 97.5614L381.948 88.6182L410.388 79.5232C448.36 67.4937 486.104 55.0419 523.915 42.7147C542.813 36.5328 561.54 30.0351 579.983 22.9966C598.422 15.9551 616.673 8.55509 634.313 0.00683594C617.347 9.82791 600.992 20.7973 584.828 32.1251C568.664 43.4559 552.789 55.3275 537.08 67.5149C505.682 91.9264 474.217 116.21 442.977 140.919L419.51 159.38L396.122 177.992C380.526 190.392 364.94 202.811 349.429 215.372C318.347 240.376 287.404 265.644 256.717 291.398C221.968 320.563 170.153 316.04 140.984 281.288C111.818 246.539 116.342 194.724 151.094 165.556C160.143 157.964 170.739 152.563 181.389 149.477Z" fill="#008CFF"/>
</g>
<g opacity="0.01">
<path d="M182.498 151.563C220.907 140.363 259.068 128.688 297.091 116.759C316.135 110.854 335.103 104.806 354.062 98.7422L382.507 89.6593L410.871 80.4245C448.742 68.2097 486.395 55.5818 524.112 43.0753C542.961 36.8054 561.647 30.2286 580.056 23.1263C598.461 16.021 616.685 8.56941 634.313 0.00292969C617.338 9.80578 600.955 20.7235 584.758 31.9875C568.561 43.2545 552.643 55.0471 536.886 67.1465C505.393 91.3787 473.837 115.489 442.497 140.013L418.957 158.334L395.493 176.804C379.849 189.109 364.211 201.431 348.648 213.895C317.463 238.704 286.411 263.768 255.611 289.307C221.755 317.376 171.556 312.689 143.487 278.833C115.418 244.977 120.106 194.778 153.961 166.709C162.51 159.622 172.489 154.531 182.498 151.563Z" fill="#008CFF"/>
</g>
<g opacity="0.01">
<path d="M183.607 153.65C221.901 142.231 259.955 130.356 297.872 118.229C316.861 112.224 335.78 106.081 354.687 99.9239L383.057 90.6982L411.351 81.3298C449.125 68.9297 486.684 56.1286 524.307 43.4429C543.104 37.0757 561.765 30.4473 580.119 23.2418C598.513 16.1152 616.694 8.58156 634.319 0.00292969C617.338 9.79666 600.913 20.6293 584.703 31.872C568.451 43.0358 552.506 54.7768 536.698 66.7789C505.111 90.8349 473.461 114.769 442.023 139.108L418.407 157.292L394.868 175.619C379.172 187.831 363.485 200.058 347.871 212.421C316.579 237.033 285.42 261.897 254.505 287.217C221.555 314.204 172.963 309.371 145.975 276.418C118.988 243.467 123.821 194.875 156.774 167.888C164.837 161.29 174.217 156.496 183.607 153.65Z" fill="#008CFF"/>
</g>
<g opacity="0.01">
<path d="M184.712 155.738C222.891 144.103 260.836 132.025 298.653 119.704C317.59 113.598 336.458 107.361 355.316 101.11L383.61 91.7411L411.83 82.2329C449.505 69.6444 486.972 56.6702 524.501 43.8083C543.253 37.3531 561.871 30.6457 580.189 23.3794C598.549 16.189 616.7 8.60369 634.316 0.00683594C617.326 9.7793 600.873 20.5633 584.627 31.7423C568.342 42.8453 552.354 54.5073 536.5 66.4214C504.819 90.2981 473.078 114.063 441.54 138.213L417.857 156.257L394.245 174.441C378.5 186.559 362.761 198.688 347.093 210.952C315.697 235.369 284.433 260.03 253.402 285.134C221.36 311.055 174.375 306.091 148.454 274.052C122.533 242.01 127.496 195.025 159.535 169.104C167.16 162.934 175.882 158.459 184.712 155.738Z" fill="#008CFF"/>
</g>
<g opacity="0.01">
<path d="M185.821 157.823C223.884 145.97 261.723 133.689 299.433 121.173C318.319 114.97 337.135 108.636 355.942 102.29L384.159 92.779L412.307 83.1341C449.881 70.3603 487.258 57.2099 524.692 44.1718C543.399 37.6285 561.972 30.8422 580.259 23.512C598.586 16.2548 616.709 8.6179 634.316 0.00585938C617.317 9.7601 600.834 20.4925 584.557 31.6046C568.239 42.6438 552.208 54.2268 536.309 66.0528C504.534 89.7534 472.698 113.342 441.063 137.306L417.301 155.214L393.613 173.258C377.817 185.282 362.029 197.317 346.306 209.481C314.807 233.704 283.434 258.161 252.287 283.046C221.166 307.913 175.775 302.843 150.908 271.718C126.041 240.596 131.111 195.206 162.236 170.339C169.402 164.619 177.574 160.421 185.821 157.823Z" fill="#008CFF"/>
</g>
<g opacity="0.0116">
<path d="M186.93 159.911C224.878 147.842 262.607 135.356 300.217 122.646C319.048 116.343 337.815 109.915 356.574 103.472L384.715 93.818L412.79 84.0364C450.267 71.0743 487.55 57.7537 524.89 44.5365C534.225 41.2314 543.511 37.8382 552.764 34.3752C561.966 30.8179 571.216 27.3519 580.335 23.6458C598.628 16.3248 616.724 8.63624 634.319 0.00292969C617.307 9.73895 600.8 20.4197 584.487 31.468C576.307 36.9481 568.254 42.6652 560.152 48.2942C552.099 54.0173 544.085 59.8073 536.117 65.6884C504.248 89.2097 472.321 112.625 440.586 136.401L416.752 154.172L392.987 172.074C377.142 184.003 361.3 195.941 345.528 208.007C313.926 232.036 282.446 256.289 251.185 280.956C220.989 304.784 177.191 299.623 153.363 269.425C129.535 239.229 134.696 195.431 164.894 171.603C171.604 166.311 179.244 162.386 186.93 159.911Z" fill="#008CFF"/>
</g>
<g opacity="0.0116">
<path d="M188.036 161.997C206.97 155.888 225.783 149.549 244.605 143.224L272.844 133.749L300.998 124.117C319.777 117.713 338.493 111.191 357.199 104.654L385.265 94.8599L413.267 84.9385C450.644 71.7911 487.835 58.2944 525.081 44.9009C534.392 41.5502 543.657 38.1176 552.889 34.615C562.072 31.0244 571.298 27.5188 580.405 23.7824C598.662 16.3976 616.733 8.6574 634.316 0.00585938C617.295 9.72365 600.761 20.3528 584.412 31.3373C576.216 36.787 568.141 42.4646 560.018 48.0571C551.947 53.7408 543.909 59.4912 535.917 65.3268C503.954 88.672 471.932 111.911 440.1 135.502L416.193 153.136L392.352 170.895C376.456 182.73 360.565 194.574 344.742 206.54L320.986 224.46L297.316 242.54C281.532 254.585 265.739 266.615 250.07 278.875C220.844 301.746 178.61 296.591 155.738 267.365C132.867 238.139 138.022 195.905 167.248 173.034C173.594 168.067 180.803 164.361 188.036 161.997Z" fill="#008CFF"/>
</g>
<g opacity="0.0145">
<path d="M189.145 164.084C208.021 157.866 226.779 151.423 245.547 144.998L273.704 135.371L301.779 125.59C320.506 119.089 339.17 112.47 357.828 105.838L385.821 95.9018L413.75 85.8438C451.03 72.5111 488.127 58.8381 525.279 45.2685C534.565 41.8753 543.809 38.4001 553.019 34.8581C562.184 31.231 571.392 27.6859 580.481 23.9191C598.704 16.4705 616.746 8.67866 634.322 0.00585938C617.292 9.70238 600.727 20.2799 584.348 31.2006C576.134 36.6169 568.038 42.2581 559.9 47.8141C551.807 53.4583 543.748 59.1692 535.735 64.9592C503.677 88.1252 471.565 111.194 439.632 134.597L415.652 152.091L391.733 169.707C375.788 181.445 359.845 193.198 343.967 205.064L320.133 222.835L296.38 240.76C280.542 252.705 264.697 264.631 248.967 276.782C220.68 298.639 180.028 293.423 158.172 265.135C136.315 236.848 141.531 196.196 169.818 174.34C175.73 169.777 182.44 166.323 189.145 164.084Z" fill="#008CFF"/>
</g>
<g opacity="0.0145">
<path d="M190.253 166.171C209.072 159.844 227.775 153.3 246.488 146.772L274.563 136.991L302.559 127.06C321.232 120.459 339.847 113.746 358.457 107.02L386.374 96.9408L414.227 86.7461C451.406 73.2251 488.412 59.382 525.47 45.6301C534.735 42.1944 543.915 38.5977 553.141 35.089C562.29 31.4377 571.474 27.844 580.547 24.0498C598.737 16.5374 616.751 8.69396 634.316 0.00292969C617.274 9.68123 600.685 20.2071 584.269 31.064C576.039 36.453 567.919 42.0455 559.769 47.5803C551.692 53.2579 543.572 58.8474 535.534 64.5948C503.382 87.5845 471.179 110.477 439.146 133.695L415.093 151.052L391.101 168.526C375.104 180.169 359.113 191.825 343.183 203.593L319.273 221.219L295.438 238.989C279.545 250.831 263.645 262.657 247.858 274.698C220.515 295.556 181.444 290.297 160.586 262.954C139.729 235.611 144.987 196.54 172.33 175.683C177.829 171.493 184.053 168.286 190.253 166.171Z" fill="#008CFF"/>
</g>
<g opacity="0.0174">
<path d="M191.362 168.259C210.124 161.822 228.772 155.176 247.43 148.547L275.423 138.611L303.34 128.534C321.962 121.833 340.525 115.025 359.083 108.206C377.662 101.425 396.195 94.5601 414.704 87.6492C451.783 73.9428 488.698 59.9236 525.662 45.9955C534.902 42.5142 544.064 38.881 553.269 35.3299C562.4 31.6421 571.562 28.0119 580.621 24.1874C598.777 16.6112 616.764 8.71609 634.319 0.00683594C617.268 9.66691 600.652 20.1411 584.202 30.9312C575.958 36.2898 567.816 41.8459 559.645 47.3412C551.546 52.9762 543.405 58.5262 535.343 64.2311C503.097 87.0417 470.8 109.761 438.669 132.793C422.575 144.255 406.502 155.756 390.475 167.345C374.427 178.894 358.387 190.456 342.403 202.124L318.414 219.6L294.5 237.219C278.555 248.957 262.598 260.683 246.756 272.612C220.37 292.482 182.869 287.2 162.996 260.814C143.126 234.425 148.405 196.926 174.794 177.053C179.886 173.22 185.648 170.249 191.362 168.259Z" fill="#008CFF"/>
</g>
<g opacity="0.0174">
<path d="M192.468 170.345C211.171 163.799 229.765 157.052 248.372 150.317L276.283 140.229L304.121 130.004C322.687 123.202 341.202 116.3 359.708 109.387C378.236 102.509 396.721 95.5495 415.181 88.5505C452.163 74.6558 488.983 60.4634 525.853 46.3591C535.069 42.8323 544.21 39.1627 553.393 35.569C562.506 31.8447 571.647 28.1751 580.687 24.3202C598.807 16.6772 616.77 8.73345 634.313 0.00292969C617.253 9.64174 600.606 20.0673 584.123 30.7936C575.863 36.1219 567.701 41.6384 559.511 47.0973C551.391 52.6898 543.229 58.2033 535.142 63.8627C502.799 86.497 470.414 109.04 438.183 131.887C422.04 143.258 405.919 154.667 389.843 166.159C373.746 177.615 357.655 189.079 341.616 200.65L317.547 217.977L293.552 235.441C277.552 247.079 261.543 258.701 245.641 270.521C220.215 289.422 184.281 284.134 165.38 258.708C146.479 233.281 151.768 197.348 177.194 178.447C181.902 174.954 187.218 172.21 192.468 170.345Z" fill="#008CFF"/>
</g>
<g opacity="0.0203">
<path d="M193.577 172.432C212.219 165.773 230.765 158.926 249.313 152.091C267.877 145.281 286.423 138.44 304.904 131.474L360.34 110.568C378.816 103.597 397.252 96.5429 415.667 89.4528C452.549 75.3727 489.278 61.0072 526.053 46.7237C535.249 43.1543 544.368 39.4421 553.527 35.809C562.619 32.0482 571.741 28.3422 580.766 24.4538C598.853 16.7471 616.785 8.74864 634.322 0.00292969C617.25 9.62351 600.579 19.9944 584.062 30.66C575.784 35.9578 567.604 41.4349 559.396 46.8604C551.255 52.4103 543.071 57.8874 534.963 63.5012C502.526 85.9563 470.046 108.329 437.718 130.985C421.527 142.264 405.357 153.58 389.23 164.978L340.85 199.177C324.726 210.58 308.668 222.109 292.626 233.667C276.571 245.202 260.508 256.724 244.547 268.434C220.093 286.379 185.721 281.102 167.774 256.645C149.83 232.191 155.106 197.819 179.563 179.872C183.883 176.7 188.771 174.176 193.577 172.432Z" fill="#008CFF"/>
</g>
<g opacity="0.0203">
<path d="M194.685 174.519C213.27 167.751 231.761 160.8 250.255 153.865C268.764 146.951 287.255 140.01 305.685 132.947L360.966 111.753C379.39 104.684 397.777 97.5392 416.144 90.3579C452.928 76.0926 489.563 61.5509 526.244 47.0911C535.415 43.4762 544.513 39.7276 553.651 36.0519C562.725 32.2547 571.826 28.5092 580.836 24.5935C598.889 16.8229 616.794 8.77283 634.318 0.00585938C617.237 9.60821 600.539 19.9275 583.986 30.5262C575.693 35.7937 567.491 41.2313 559.262 46.6203C551.096 52.1308 542.894 57.5653 534.762 63.1365C502.231 85.4155 469.66 107.612 437.232 130.083C420.992 141.271 404.773 152.495 388.594 163.796L340.06 197.706C323.884 209.016 307.772 220.441 291.675 231.896C275.565 243.327 259.45 254.746 243.429 266.35C219.95 283.353 187.136 278.107 170.131 254.628C153.128 231.152 158.375 198.335 181.854 181.33C185.824 178.456 190.302 176.141 194.685 174.519Z" fill="#008CFF"/>
</g>
<g opacity="0.0232">
<path d="M195.791 176.606C214.318 169.728 232.755 162.678 251.194 155.639L278.862 145.089L306.438 134.372L361.571 112.892L389.132 102.144L416.621 91.2601C453.305 76.8065 489.849 62.0916 526.436 47.4556L553.779 36.2919C562.834 32.4582 571.914 28.6762 580.906 24.7271C598.926 16.8928 616.803 8.79106 634.316 0.00585937C617.225 9.58999 600.497 19.8576 583.91 30.3926C575.602 35.6297 567.379 41.0308 559.131 46.3803L534.565 62.772C501.94 84.8717 469.274 106.895 436.749 129.18L412.332 145.849L387.984 162.654L339.301 196.282L314.972 213.12L290.73 230.125C274.566 241.456 258.396 252.772 242.318 264.264C219.826 280.339 188.558 275.139 172.482 252.647C156.407 230.156 161.607 198.888 184.099 182.812C187.726 180.221 191.815 178.11 195.791 176.606Z" fill="#008CFF"/>
</g>
<g opacity="0.0232">
<path d="M196.9 178.693C215.369 171.706 233.751 164.552 252.135 157.41L279.721 146.708L307.222 135.845L362.2 114.077L389.685 103.183L417.101 92.1624C453.688 77.5235 490.138 62.6354 526.63 47.8172L553.906 36.5289C562.941 32.6588 572.002 28.8373 580.979 24.8579C598.962 16.9597 616.815 8.80635 634.319 0.00292969C617.219 9.56883 600.463 19.7848 583.844 30.2529C575.517 35.4596 567.276 40.8213 559.007 46.1374L534.374 62.4046C501.654 84.3281 468.898 106.176 436.272 128.275L411.782 144.807L387.358 161.466L338.52 194.805L314.115 211.498L289.792 228.348C273.573 239.576 257.348 250.791 241.215 262.174C219.717 277.338 189.995 272.204 174.831 250.706C159.666 229.208 164.8 199.486 186.298 184.322C189.588 182.001 193.303 180.078 196.9 178.693Z" fill="#008CFF"/>
</g>
<g opacity="0.0261">
<path d="M198.008 180.78C216.42 173.684 234.747 166.43 253.08 159.185L280.584 148.328L308.006 137.319L362.831 115.262L390.238 104.225L417.581 93.0648C454.067 78.2375 490.426 63.1763 526.825 48.1819L554.034 36.769C563.05 32.8625 572.09 29.0015 581.052 24.9916C599.002 17.0297 616.824 8.82469 634.319 0C617.207 9.54464 600.426 19.709 583.77 30.1163C575.429 35.2927 567.166 40.6148 558.879 45.8945L534.182 62.0371C501.368 83.7814 468.518 105.459 435.795 127.37L411.232 143.765L386.732 160.281L337.742 193.332L313.258 209.879L288.853 226.574C272.579 237.699 256.303 248.814 240.109 260.087C219.61 274.355 191.429 269.303 177.16 248.808C162.892 228.309 167.944 200.128 188.44 185.859C191.413 183.79 194.773 182.05 198.008 180.78Z" fill="#008CFF"/>
</g>
<g opacity="0.0261">
<path d="M199.115 182.867C217.466 175.661 235.741 168.304 254.019 160.959L281.441 149.947L308.787 138.792L363.457 116.446L390.788 105.264L418.058 93.9669C454.444 78.9543 490.712 63.7169 527.016 48.5463L554.159 37.0089C563.157 33.0659 572.176 29.1684 581.119 25.1282C599.036 17.0994 616.831 8.84585 634.316 0.00292969C617.195 9.52934 600.384 19.642 583.698 29.9856C575.338 35.1285 567.057 40.4142 558.752 45.6574L533.988 61.6755C501.08 83.2436 468.139 104.745 435.316 126.471L410.679 142.726L386.104 159.096L336.959 191.856L312.399 208.256L287.914 224.8C271.589 235.824 255.255 246.836 239.003 258C219.516 271.384 192.866 266.436 179.482 246.948C166.097 227.461 171.046 200.811 190.533 187.427C193.2 185.589 196.226 184.024 199.115 182.867Z" fill="#008CFF"/>
</g>
<g opacity="0.029">
<path d="M200.223 184.954C218.517 177.636 236.737 170.178 254.961 162.733L282.3 151.569L309.57 140.268L364.089 117.631L391.341 106.303L418.514 94.8235L527.208 48.9048L554.289 37.2519C563.266 33.2755 572.267 29.3355 581.195 25.2649C599.078 17.1723 616.846 8.86711 634.319 0.00292969C617.189 9.51111 600.351 19.5722 583.628 29.8489C575.253 34.9615 566.951 40.2107 558.624 45.4174L533.797 61.317L434.86 125.614L410.126 141.687L385.472 157.912L336.172 190.385L311.536 206.64L286.969 223.029C270.59 233.95 254.204 244.861 237.891 255.913C219.419 268.428 194.297 263.601 181.781 245.132C169.265 226.659 174.092 201.537 192.562 189.021C194.95 187.402 197.653 186.002 200.223 184.954Z" fill="#008CFF"/>
</g>
<g opacity="0.029">
<path d="M201.332 187.041C219.568 179.614 237.733 172.056 255.902 164.504C274.083 156.976 292.249 149.418 310.354 141.739L364.718 118.813L391.893 107.339L418.996 95.7258L527.402 49.2664L554.417 37.489C563.375 33.4761 572.355 29.4997 581.264 25.3957C599.114 17.2393 616.855 8.87937 634.319 0C617.177 9.48996 600.314 19.4994 583.555 29.7123C575.164 34.7945 566.841 40.0042 558.496 45.1745L533.602 60.9496L434.377 124.706L409.57 140.645L384.84 156.727L335.388 188.909C318.884 199.599 302.447 210.413 286.025 221.252C269.59 232.073 253.15 242.881 236.779 253.823C219.331 265.488 195.733 260.798 184.068 243.349C172.406 225.9 177.094 202.303 194.542 190.638C196.663 189.228 199.066 187.983 201.332 187.041Z" fill="#008CFF"/>
</g>
<g opacity="0.0319">
<path d="M202.438 189.128C220.616 181.591 238.727 173.93 256.844 166.278C274.97 158.647 293.084 150.986 311.135 143.215L365.347 120L392.447 108.384L419.477 96.634L527.596 49.6338L554.544 37.7289C563.484 33.6795 572.443 29.6636 581.337 25.5322C599.175 17.3546 616.828 8.83066 634.319 0.00292969C617.204 9.54149 600.254 19.3899 583.485 29.5785C575.077 34.6303 566.732 39.8006 558.369 44.9344L533.411 60.5849L433.9 123.801L409.024 139.603L384.217 155.539L334.614 187.433C318.061 198.028 301.569 208.739 285.089 219.478C268.6 230.195 252.105 240.903 235.68 251.736C219.264 262.559 197.182 258.027 186.356 241.614C175.532 225.198 180.065 203.117 196.478 192.293C198.337 191.066 200.454 189.966 202.438 189.128Z" fill="#008CFF"/>
</g>
<g opacity="0.0319">
<path d="M203.547 191.215L257.786 168.052C275.858 160.318 293.917 152.556 311.919 144.688L365.976 121.185L393 109.423L419.957 97.5394L527.788 49.9985L554.669 37.9689C563.588 33.8832 572.525 29.8308 581.404 25.666C599.206 17.4215 616.837 8.85507 634.313 0C617.186 9.51426 600.211 19.3171 583.406 29.4419C574.983 34.4634 566.617 39.5941 558.235 44.6945L533.21 60.2205L433.411 122.896L408.462 138.564L383.58 154.358L333.821 185.962C317.22 196.464 300.673 207.075 284.139 217.707L234.562 249.652C219.149 259.583 198.604 255.138 188.674 239.728C178.744 224.314 183.188 203.77 198.598 193.839C200.148 192.846 201.916 191.926 203.547 191.215Z" fill="#008CFF"/>
</g>
<g opacity="0.0348">
<path d="M204.655 193.302L258.728 169.826C276.745 161.985 294.749 154.124 312.702 146.165L366.607 122.373L393.555 110.468L420.443 98.4476L527.988 50.3659L554.806 38.2118C563.706 34.0896 572.622 29.9978 581.486 25.8026C599.251 17.4913 616.858 8.87926 634.325 0.00292969C617.186 9.49592 600.187 19.2532 583.349 29.3112C574.91 34.3023 566.522 39.3935 558.123 44.4575L533.031 59.8589L432.946 121.993L407.924 137.528L382.963 153.176L333.043 184.489C316.39 194.896 299.789 205.404 283.203 215.936L233.46 247.568C219.1 256.7 200.056 252.459 190.925 238.099C181.793 223.74 186.031 204.696 200.39 195.565C201.724 194.72 203.255 193.921 204.655 193.302Z" fill="#008CFF"/>
</g>
<g opacity="0.0348">
<path d="M205.761 195.389L259.666 171.597C277.628 163.653 295.578 155.691 313.48 147.635C349.289 131.535 385.201 115.629 420.916 99.3498L528.173 50.7305L554.924 38.4518L581.55 25.9393C599.281 17.5612 616.864 8.90356 634.316 0.00292969C617.165 9.47162 600.141 19.1864 583.266 29.1745L557.983 44.2145L532.824 59.4913L432.454 121.085C398.956 141.541 365.659 162.374 332.259 183.013C315.558 193.326 298.902 203.733 282.258 214.159L232.347 245.475C219.048 253.82 201.502 249.804 193.157 236.505C184.813 223.205 188.829 205.659 202.128 197.314C203.264 196.607 204.576 195.923 205.761 195.389Z" fill="#008CFF"/>
</g>
<g opacity="0.0377">
<path d="M206.87 197.475L260.608 173.371L314.264 149.111C349.973 132.823 385.776 116.71 421.399 100.255L528.371 51.0949C546.181 42.8686 563.958 34.5755 581.617 26.0607L608.07 13.2231C616.822 8.8184 625.631 4.52604 634.319 0.00585938C625.707 4.67186 617.213 9.55961 608.662 14.341L583.206 29.056C566.258 38.9104 549.429 48.9867 532.636 59.1298L431.977 120.183C398.385 140.466 364.979 161.092 331.479 181.542L281.319 212.388L231.242 243.391C219.009 250.964 202.954 247.188 195.381 234.955C187.808 222.722 191.584 206.668 203.817 199.094C204.768 198.508 205.88 197.928 206.87 197.475Z" fill="#008CFF"/>
</g>
<g opacity="0.0377">
<path d="M207.979 199.565C243.663 183.228 279.445 167.076 315.048 150.588C350.656 134.111 386.35 117.792 421.88 101.163L528.563 51.4624C546.327 43.1481 564.059 34.773 581.687 26.1974L608.094 13.2748C616.837 8.85485 625.631 4.53212 634.316 0.00585938C625.701 4.66274 617.192 9.5262 608.632 14.2894L583.13 28.9193C566.152 38.713 549.277 48.7072 532.439 58.7622L431.494 119.274C397.811 139.384 364.296 159.804 330.695 180.066C297.088 200.316 263.661 220.903 230.133 241.304C218.966 248.1 204.403 244.555 197.608 233.388C190.812 222.221 194.357 207.658 205.524 200.862C206.287 200.401 207.189 199.933 207.979 199.565Z" fill="#008CFF"/>
</g>
<g opacity="0.0406">
<path d="M209.088 201.652C244.663 185.112 280.326 168.738 315.831 152.061C351.34 135.396 386.927 118.873 422.363 102.068L528.76 51.827C564.132 34.9006 599.534 18.035 634.319 0.00585938C599.895 18.7124 566.088 38.5884 532.247 58.3977L431.014 118.369C397.24 138.303 363.615 158.519 329.914 178.593C296.207 198.654 262.661 219.019 229.027 239.217C218.945 245.271 205.861 242.006 199.807 231.924C193.753 221.841 197.019 208.758 207.101 202.703C207.745 202.318 208.422 201.962 209.088 201.652Z" fill="#008CFF"/>
</g>
<g opacity="0.0406">
<path d="M210.193 203.74C245.662 186.996 281.207 170.401 316.612 153.538L422.842 102.978L528.954 52.1954C564.241 35.108 599.555 18.0753 634.319 0.00976562C599.874 18.6798 565.978 38.3888 532.053 58.037L430.534 117.468L329.134 177.123C295.326 196.996 261.665 217.14 227.922 237.134C218.93 242.462 207.322 239.491 201.994 230.503C196.666 221.511 199.637 209.904 208.626 204.575C209.13 204.272 209.674 203.986 210.193 203.74Z" fill="#008CFF"/>
</g>
<g opacity="0.0435">
<path d="M211.302 205.826L317.396 155.011L423.322 103.882L529.146 52.5591C564.347 35.3107 599.573 18.1139 634.319 0.00585938C599.852 18.6395 565.869 38.1783 531.861 57.6686L430.054 116.559L328.35 175.646L226.813 235.043C218.921 239.661 208.78 237.006 204.166 229.114C199.549 221.221 202.204 211.081 210.096 206.467C210.482 206.239 210.904 206.018 211.302 205.826Z" fill="#008CFF"/>
</g>
<g opacity="0.0435">
<path d="M212.41 207.913C247.654 190.75 282.99 173.753 318.164 156.453L423.75 104.687L529.337 52.9175C564.456 35.5173 599.591 18.1474 634.316 0.00585938C599.831 18.603 565.756 37.9687 531.667 57.3071L429.622 115.754L327.581 174.2C293.543 193.639 259.669 213.381 225.704 232.956C218.917 236.869 210.241 234.536 206.329 227.75C202.416 220.96 204.746 212.287 211.536 208.375C211.812 208.217 212.128 208.05 212.41 207.913Z" fill="#008CFF"/>
</g>
<g opacity="0.0465">
<path d="M213.516 210L318.945 157.933L424.236 105.608L529.528 53.2822C564.563 35.7209 599.609 18.1839 634.316 0.00292969C599.813 18.5606 565.647 37.7623 531.472 56.9396L429.133 114.83L326.794 172.721L224.595 230.87C218.92 234.099 211.706 232.115 208.477 226.44C205.247 220.766 207.231 213.551 212.906 210.322C213.097 210.216 213.322 210.097 213.516 210Z" fill="#008CFF"/>
</g>
<path d="M214.626 212.087L319.732 159.412L424.729 106.531L529.726 53.6496C564.676 35.9274 599.631 18.2233 634.319 0.00585938C599.795 18.5271 565.541 37.5617 531.281 56.575L428.648 113.91L326.014 171.244L223.49 228.786C218.936 231.34 213.173 229.721 210.619 225.168C208.064 220.614 209.683 214.851 214.237 212.297C214.352 212.227 214.504 212.148 214.626 212.087Z" fill="#008CFF"/>
<path d="M215.892 214.472L425.288 107.585L529.948 54.0688L582.176 27.1209L608.286 13.6363L634.316 0.00585938L608.441 13.9279L582.644 27.9988L531.057 56.1588L428.086 112.856L222.223 226.398C218.957 228.199 214.85 227.011 213.049 223.746C211.248 220.48 212.435 216.373 215.701 214.572C215.756 214.541 215.838 214.499 215.892 214.472Z" fill="#229BFF"/>
<path d="M217.159 216.856L425.835 108.609L530.172 54.485L582.273 27.2971L634.322 0.00585938L582.556 27.8226L530.841 55.7396L427.548 111.829L220.962 224.01C218.997 225.076 216.536 224.35 215.47 222.382C214.404 220.416 215.13 217.956 217.098 216.89C217.107 216.884 217.141 216.865 217.159 216.856Z" fill="#44ABFF"/>
<path d="M218.423 219.241L634.319 0.00585938L219.689 221.626C219.033 221.978 218.213 221.729 217.864 221.073C217.511 220.413 217.76 219.596 218.417 219.244L218.423 219.241Z" fill="#66BAFF"/>
<path opacity="0.94" d="M439.702 99.9672C465.127 127.275 394.651 199.613 282.287 261.543C169.919 323.475 58.2187 351.544 32.7936 324.236C7.36903 296.932 77.8447 224.591 190.208 162.66C302.572 100.729 414.273 72.6637 439.702 99.9672Z" fill="url(#paint0_radial_739_29697)"/>
<defs>
<radialGradient id="paint0_radial_739_29697" cx="0" cy="0" r="1" gradientUnits="userSpaceOnUse" gradientTransform="translate(236.246 212.103) rotate(-28.0397) scale(227.994 64.31)">
<stop offset="0.0273306" stop-color="white"/>
<stop offset="0.101839" stop-color="#D3FFFF"/>
<stop offset="0.169363" stop-color="#8ED6FF"/>
<stop offset="0.250857" stop-color="#4F8BBF"/>
<stop offset="0.278798" stop-color="#487FAF" stop-opacity="0.9"/>
<stop offset="0.376591" stop-color="#2D506E" stop-opacity="0.8"/>
<stop offset="0.493011" stop-color="#1E3140" stop-opacity="0.7"/>
<stop offset="0.618744" stop-color="#141F29" stop-opacity="0.6"/>
<stop offset="0.744478" stop-color="#0C1319" stop-opacity="0.4"/>
<stop offset="0.823541" stop-color="#020202" stop-opacity="0.3"/>
<stop offset="1" stop-opacity="0"/>
</radialGradient>
</defs>
</svg>
